<?xml version="1.0" standalone="no"?>
<!DOCTYPE svg PUBLIC "-//W3C//DTD SVG 1.1//EN" "http://www.w3.org/Graphics/SVG/1.1/DTD/svg11.dtd" >
<svg xmlns="http://www.w3.org/2000/svg" xmlns:xlink="http://www.w3.org/1999/xlink" version="1.1">
<metadata>
Created by FontForge 20170731 at Wed Mar 29 16:02:34 2023
 By Aleksey,,,
Copyright (c) 2019 by Roland Stieger. All rights reserved.
</metadata>
<defs>
<font id="NNAlenaSTD-Medium" horiz-adv-x="0" >
  <font-face 
    font-family="NN Alena STD Medium"
    font-weight="500"
    font-stretch="normal"
    units-per-em="2048"
    panose-1="0 0 6 0 0 0 0 0 0 0"
    ascent="1638"
    descent="-410"
    x-height="977"
    cap-height="1407"
    bbox="-821 -551.25 2525 2132"
    underline-thickness="145"
    underline-position="-451"
    unicode-range="U+0020-FFEB"
  />
<missing-glyph horiz-adv-x="1878" 
d="M938 -305q-188 0 -351 66t-278.5 181t-181.5 278t-66 351q0 189 66 352.5t181.5 279t278.5 181.5t351 66q189 0 352.5 -66t279 -181.5t181.5 -279t66 -352.5q0 -188 -66 -351t-181.5 -278t-279 -181t-352.5 -66zM786 375h242v88q0 40 23 69t86 70q86 57 120.5 114.5
t34.5 145.5q0 131 -96.5 213t-257.5 82q-124 0 -270 -47l63 -197q95 33 191 33q129 0 129 -90q0 -35 -22 -59t-89 -66q-92 -57 -123 -114.5t-31 -172.5v-69zM907 -12q65 0 111.5 45.5t46.5 109.5t-46.5 110t-111.5 46q-63 0 -110 -46t-47 -110t46.5 -109.5t110.5 -45.5z" />
    <glyph glyph-name="fi" unicode="fi" horiz-adv-x="1185" 
d="M1014 977v-977h-180v819h-443v-819h-178v819h-139v158h139v233q0 167 91.5 251.5t244.5 84.5q94 0 156 -20l-31 -156q-52 14 -107 14q-92 0 -134 -48t-42 -154v-205h623zM924 1163q-48 0 -82.5 35t-34.5 84t34.5 84t82.5 35q47 0 81.5 -35t34.5 -84t-34.5 -84t-81.5 -35z
" />
    <glyph glyph-name="fl" unicode="fl" horiz-adv-x="1193" 
d="M647 1546q174 0 373 -67v-1479h-180v1368q-109 23 -185 23q-55 0 -98.5 -10.5t-71 -25t-47 -39t-29 -44t-14.5 -50t-5.5 -46t-0.5 -41.5v-158h258v-160h-258v-817h-180v817h-137v160h137v160q0 34 1 56.5t9.5 69.5t24 80t47.5 74t77 67t117 44t162 18z" />
    <glyph glyph-name="f_f" unicode="ff" horiz-adv-x="1245" 
d="M1141 1384q-176 0 -176 -194v-213h247v-156h-247v-821h-181v819h-434v-819h-176v819h-100v158h100v35q0 24 0.5 40.5t4 54t10 65.5t20.5 67.5t33 68.5t50 60.5t69.5 51.5t93 33t118.5 13q138 0 271 -49q85 129 278 129q78 0 156 -16l-29 -156q-55 10 -108 10zM350 1010
v-33h434v219q0 33 7 80q-98 37 -201 37q-50 0 -89 -12t-63.5 -29t-42.5 -46t-26.5 -52t-13 -59t-5 -54.5t-0.5 -50.5z" />
    <glyph glyph-name="f_f_i" unicode="ffi" horiz-adv-x="1759" 
d="M1585 977v-977h-180v819h-442v-819h-179v819h-434v-819h-176v819h-100v158h100v35q0 24 0.5 40.5t4 54t10 65.5t20.5 67.5t33 68.5t50 60.5t69.5 51.5t93 33t118.5 13q134 0 267 -49q84 129 280 129q94 0 156 -20l-31 -156q-52 14 -106 14q-92 0 -134 -48t-42 -154v-205
h622zM1497 1163q-49 0 -84 34.5t-35 84.5t35 84.5t84 34.5q46 0 80.5 -35t34.5 -84t-34.5 -84t-80.5 -35zM784 977v233q0 26 4 66q-98 37 -198 37q-50 0 -89 -12t-63.5 -29t-42.5 -46t-26.5 -52t-13 -59t-5 -54.5t-0.5 -50.5v-33h434z" />
    <glyph glyph-name="f_f_l" unicode="ffl" horiz-adv-x="1769" 
d="M1223 1546q173 0 372 -67v-1479h-180v1368q-109 23 -184 23q-55 0 -98.5 -10.5t-71 -25t-47 -39t-29 -44t-14.5 -50t-5.5 -46t-0.5 -41.5v-158h258v-160h-258v-817h-181v817h-137v2h-297v-819h-176v819h-100v158h100v35q0 24 0.5 40.5t4 54t10 65.5t20.5 67.5t33 68.5
t50 60.5t69.5 51.5t93 33t118.5 13q144 0 287 -57q104 137 363 137zM350 977h434v160q0 77 13 137q-106 39 -207 39q-50 0 -89 -12t-63.5 -29t-42.5 -46t-26.5 -52t-13 -59t-5 -54.5t-0.5 -50.5v-33z" />
    <glyph glyph-name="f_f_dotlessi.liga" unicode="ff&#x131;" horiz-adv-x="1759" 
d="M1587 977v-977h-180v819h-444v-819h-179v819h-434v-819h-176v819h-100v158h100v35q0 24 0.5 40.5t4 54t10 65.5t20.5 67.5t33 68.5t50 60.5t69.5 51.5t93 33t118.5 13q134 0 267 -49q84 129 280 129q94 0 156 -20l-31 -156q-52 14 -106 14q-92 0 -134 -48t-42 -154v-205
h624zM784 977v233q0 26 4 66q-98 37 -198 37q-50 0 -89 -12t-63.5 -29t-42.5 -46t-26.5 -52t-13 -59t-5 -54.5t-0.5 -50.5v-33h434z" />
    <glyph glyph-name="f_f_iacute.liga" unicode="ff&#xed;" horiz-adv-x="1759" 
d="M1587 977v-977h-180v819h-444v-819h-179v819h-434v-819h-176v819h-100v158h100v35q0 24 0.5 40.5t4 54t10 65.5t20.5 67.5t33 68.5t50 60.5t69.5 51.5t93 33t118.5 13q134 0 267 -49q84 129 280 129q94 0 156 -20l-31 -156q-52 14 -106 14q-92 0 -134 -48t-42 -154v-205
h624zM1741 1350l-326 -234l-78 103l316 254zM784 977v233q0 26 4 66q-98 37 -198 37q-50 0 -89 -12t-63.5 -29t-42.5 -46t-26.5 -52t-13 -59t-5 -54.5t-0.5 -50.5v-33h434z" />
    <glyph glyph-name="uni0066_uni0066_uni01D0.liga" unicode="ff&#x1d0;" horiz-adv-x="1828" 
d="M1655 977v-977h-180v819h-512v-819h-179v819h-434v-819h-176v819h-100v158h100v35q0 24 0.5 40.5t4 54t10 65.5t20.5 67.5t33 68.5t50 60.5t69.5 51.5t93 33t118.5 13q137 0 267 -49q86 129 280 129q92 0 158 -20l-31 -156q-52 14 -106 14q-94 0 -136 -48t-42 -154v-205
h692zM1849 1362l-284 -252l-279 252l84 98l199 -182l194 180zM784 977v233q0 26 4 66q-98 37 -198 37q-50 0 -89 -12t-63.5 -29t-42.5 -46t-26.5 -52t-13 -59t-5 -54.5t-0.5 -50.5v-33h434z" />
    <glyph glyph-name="f_f_icircumflex.liga" unicode="ff&#xee;" horiz-adv-x="1800" 
d="M1626 977v-977h-180v819h-483v-819h-179v819h-434v-819h-176v819h-100v158h100v35q0 24 0.5 40.5t4 54t10 65.5t20.5 67.5t33 68.5t50 60.5t69.5 51.5t93 33t118.5 13q137 0 267 -49q86 129 280 129q92 0 158 -20l-31 -156q-52 14 -106 14q-94 0 -136 -48t-42 -154v-205
h663zM1536 1462l295 -233l-70 -101l-225 166l-225 -166l-72 101zM784 977v233q0 26 4 66q-98 37 -198 37q-50 0 -89 -12t-63.5 -29t-42.5 -46t-26.5 -52t-13 -59t-5 -54.5t-0.5 -50.5v-33h434z" />
    <glyph glyph-name="f_f_idieresis.liga" unicode="ff&#xef;" horiz-adv-x="1814" 
d="M1640 977v-977h-180v819h-497v-819h-179v819h-434v-819h-176v819h-100v158h100v35q0 24 0.5 40.5t4 54t10 65.5t20.5 67.5t33 68.5t50 60.5t69.5 51.5t93 33t118.5 13q137 0 267 -49q86 129 280 129q92 0 158 -20l-31 -156q-52 14 -106 14q-94 0 -136 -48t-42 -154v-205
h677zM1401 1186q-44 0 -74.5 30t-30.5 74t30.5 75.5t74.5 31.5q43 0 73.5 -31.5t30.5 -75.5t-30.5 -74t-73.5 -30zM1698 1397q43 0 73.5 -31.5t30.5 -75.5t-30.5 -74t-73.5 -30q-44 0 -74.5 30t-30.5 74t30.5 75.5t74.5 31.5zM784 977v233q0 26 4 66q-98 37 -198 37
q-50 0 -89 -12t-63.5 -29t-42.5 -46t-26.5 -52t-13 -59t-5 -54.5t-0.5 -50.5v-33h434z" />
    <glyph glyph-name="uni0066_uni0066_uni1ECB.liga" unicode="ff&#x1ecb;" horiz-adv-x="1746" 
d="M1393 819h-430v-819h-179v819h-434v-819h-176v819h-100v158h100v35q0 24 0.5 40.5t4 54t10 65.5t20.5 67.5t33 68.5t50 60.5t69.5 51.5t93 33t118.5 13q137 0 267 -49q86 129 280 129q92 0 158 -20l-31 -156q-52 14 -106 14q-94 0 -136 -48t-42 -154v-205h610v-977h-180
v819zM1485 1163q-49 0 -83 34.5t-34 84.5t34 84.5t83 34.5q47 0 80.5 -35t33.5 -84t-33.5 -84t-80.5 -35zM784 977v233q0 26 4 66q-98 37 -198 37q-50 0 -89 -12t-63.5 -29t-42.5 -46t-26.5 -52t-13 -59t-5 -54.5t-0.5 -50.5v-33h434zM1479 -133q44 0 76 -32.5t32 -76.5
q0 -47 -31.5 -79.5t-76.5 -32.5t-77 32.5t-32 79.5q0 44 32.5 76.5t76.5 32.5z" />
    <glyph glyph-name="f_f_igrave.liga" unicode="ff&#xec;" horiz-adv-x="1824" 
d="M1651 977v-977h-181v819h-507v-819h-179v819h-434v-819h-176v819h-100v158h100v35q0 24 0.5 40.5t4 54t10 65.5t20.5 67.5t33 68.5t50 60.5t69.5 51.5t93 33t118.5 13q137 0 267 -49q86 129 280 129q92 0 158 -20l-31 -156q-52 14 -106 14q-94 0 -136 -48t-42 -154v-205
h688zM1706 1212l-76 -100l-327 231l90 125zM784 977v233q0 26 4 66q-98 37 -198 37q-50 0 -89 -12t-63.5 -29t-42.5 -46t-26.5 -52t-13 -59t-5 -54.5t-0.5 -50.5v-33h434z" />
    <glyph glyph-name="uni0066_uni0066_uni1EC9.liga" unicode="ff&#x1ec9;" horiz-adv-x="1720" 
d="M1546 977v-977h-180v819h-403v-819h-179v819h-434v-819h-176v819h-100v158h100v35q0 24 0.5 40.5t4 54t10 65.5t20.5 67.5t33 68.5t50 60.5t69.5 51.5t93 33t118.5 13q137 0 267 -49q86 129 280 129q92 0 158 -20l-31 -156q-52 14 -106 14q-94 0 -136 -48t-42 -154v-205
h583zM1360 1395q144 0 206 -31t62 -100q0 -34 -15.5 -60t-34 -40t-36.5 -37t-22 -50h-129q5 35 21 60.5t32 36.5t28.5 25.5t12.5 31.5q0 53 -125 53v111zM784 977v233q0 26 4 66q-98 37 -198 37q-50 0 -89 -12t-63.5 -29t-42.5 -46t-26.5 -52t-13 -59t-5 -54.5t-0.5 -50.5
v-33h434z" />
    <glyph glyph-name="f_f_imacron.liga" unicode="ff&#x12b;" horiz-adv-x="1798" 
d="M1624 977v-977h-180v819h-481v-819h-179v819h-434v-819h-176v819h-100v158h100v35q0 24 0.5 40.5t4 54t10 65.5t20.5 67.5t33 68.5t50 60.5t69.5 51.5t93 33t118.5 13q137 0 267 -49q86 129 280 129q92 0 158 -20l-31 -156q-52 14 -106 14q-94 0 -136 -48t-42 -154v-205
h661zM1276 1339h514v-129h-514v129zM784 977v233q0 26 4 66q-98 37 -198 37q-50 0 -89 -12t-63.5 -29t-42.5 -46t-26.5 -52t-13 -59t-5 -54.5t-0.5 -50.5v-33h434z" />
    <glyph glyph-name="f_f_iogonek.liga" unicode="ff&#x12f;" horiz-adv-x="1759" 
d="M1604 -397l28 -111q-64 -29 -141 -29q-102 0 -162.5 59t-60.5 161q0 77 42 159.5t122 157.5h-25v819h-444v-819h-179v819h-434v-819h-176v819h-100v158h100v35q0 24 0.5 40.5t4 54t10 65.5t20.5 67.5t33 68.5t50 60.5t69.5 51.5t93 33t118.5 13q134 0 267 -49
q84 129 280 129q94 0 156 -20l-31 -156q-52 14 -106 14q-92 0 -134 -48t-42 -154v-205h624v-977h-2q-78 -69 -124 -146.5t-46 -144.5q0 -58 28.5 -90.5t80.5 -32.5q31 0 80 17zM1497 1163q-48 0 -82.5 35t-34.5 84t34.5 84t82.5 35t82.5 -35t34.5 -84t-34.5 -84t-82.5 -35z
M784 977v233q0 26 4 66q-98 37 -198 37q-50 0 -89 -12t-63.5 -29t-42.5 -46t-26.5 -52t-13 -59t-5 -54.5t-0.5 -50.5v-33h434z" />
    <glyph glyph-name="f_f_itilde.liga" unicode="ff&#x129;" horiz-adv-x="1851" 
d="M1677 977v-977h-180v819h-534v-819h-179v819h-434v-819h-176v819h-100v158h100v35q0 24 0.5 40.5t4 54t10 65.5t20.5 67.5t33 68.5t50 60.5t69.5 51.5t93 33t118.5 13q137 0 267 -49q86 129 280 129q92 0 158 -20l-31 -156q-52 14 -106 14q-94 0 -136 -48t-42 -154v-205
h714zM1849 1366l62 -100q-107 -99 -207 -99q-56 0 -126.5 37t-115.5 37q-63 0 -141 -65l-61 98q106 100 213 100q56 0 128 -37t111 -37q62 0 137 66zM784 977v233q0 26 4 66q-98 37 -198 37q-50 0 -89 -12t-63.5 -29t-42.5 -46t-26.5 -52t-13 -59t-5 -54.5t-0.5 -50.5v-33
h434z" />
    <glyph glyph-name="f_f_j.liga" unicode="ffj" horiz-adv-x="1759" 
d="M1585 977v-1137q0 -30 -0.5 -47.5t-3 -52.5t-7.5 -57.5t-15.5 -55t-25 -54t-37.5 -45.5t-52 -38t-69.5 -23.5t-88.5 -9.5q-71 0 -151 17l32 159q63 -10 95 -10q41 0 69.5 13.5t42.5 31t21.5 52.5t8.5 58t1 68v973h-442v-819h-179v819h-434v-819h-176v819h-100v158h100v35
q0 24 0.5 40.5t4 54t10 65.5t20.5 67.5t33 68.5t50 60.5t69.5 51.5t93 33t118.5 13q134 0 267 -49q84 129 280 129q94 0 156 -20l-31 -156q-52 14 -106 14q-92 0 -134 -48t-42 -154v-205h622zM1497 1163q-49 0 -84 34.5t-35 84.5t35 84.5t84 34.5q46 0 80.5 -35t34.5 -84
t-34.5 -84t-80.5 -35zM784 977v233q0 26 4 66q-98 37 -198 37q-50 0 -89 -12t-63.5 -29t-42.5 -46t-26.5 -52t-13 -59t-5 -54.5t-0.5 -50.5v-33h434z" />
    <glyph glyph-name="f_dotlessi.liga" unicode="f&#x131;" horiz-adv-x="1185" 
d="M1014 977v-977h-180v819h-443v-819h-178v819h-139v158h139v233q0 167 91.5 251.5t244.5 84.5q94 0 156 -20l-31 -156q-52 14 -107 14q-92 0 -134 -48t-42 -154v-205h623z" />
    <glyph glyph-name="f_iacute.liga" unicode="f&#xed;" horiz-adv-x="1202" 
d="M1030 977v-977h-180v819h-459v-819h-178v819h-139v158h139v233q0 167 91.5 251.5t244.5 84.5q94 0 156 -20l-31 -156q-52 14 -107 14q-92 0 -134 -48t-42 -154v-205h639zM1184 1350l-326 -234l-78 103l316 254z" />
    <glyph glyph-name="uni0066_uni01D0.liga" unicode="f&#x1d0;" horiz-adv-x="1257" 
d="M1083 977v-977h-180v819h-512v-819h-178v819h-139v158h139v233q0 167 91.5 251.5t244.5 84.5q94 0 156 -20l-31 -156q-52 14 -107 14q-92 0 -134 -48t-42 -154v-205h692zM1278 1362l-285 -252l-278 252l84 98l196 -184l197 182z" />
    <glyph glyph-name="f_icircumflex.liga" unicode="f&#xee;" horiz-adv-x="1267" 
d="M1094 977v-977h-181v819h-522v-819h-178v819h-139v158h139v233q0 167 91.5 251.5t244.5 84.5q94 0 156 -20l-31 -156q-52 14 -107 14q-92 0 -134 -48t-42 -154v-205h703zM1004 1462l294 -233l-69 -101l-225 166l-226 -166l-71 101z" />
    <glyph glyph-name="f_idieresis.liga" unicode="f&#xef;" horiz-adv-x="1267" 
d="M1094 977v-977h-181v819h-522v-819h-178v819h-139v158h139v233q0 167 91.5 251.5t244.5 84.5q94 0 156 -20l-31 -156q-52 14 -107 14q-92 0 -134 -48t-42 -154v-205h703zM854 1186q-43 0 -72.5 30t-29.5 74t29.5 75.5t72.5 31.5t73.5 -31.5t30.5 -75.5t-30.5 -74
t-73.5 -30zM1153 1397q43 0 73.5 -31.5t30.5 -75.5t-30.5 -74t-73.5 -30q-46 0 -76 30t-30 74q0 45 30.5 76t75.5 31z" />
    <glyph glyph-name="uni0066_uni1ECB.liga" unicode="f&#x1ecb;" horiz-adv-x="1185" 
d="M834 819h-443v-819h-178v819h-139v158h139v233q0 167 91.5 251.5t244.5 84.5q94 0 156 -20l-31 -156q-52 14 -107 14q-92 0 -134 -48t-42 -154v-205h623v-977h-180v819zM924 1163q-48 0 -82.5 35t-34.5 84t34.5 84t82.5 35q47 0 81.5 -35t34.5 -84t-34.5 -84t-81.5 -35z
M920 -133q44 0 76 -32.5t32 -76.5q0 -47 -31.5 -79.5t-76.5 -32.5q-46 0 -78.5 32.5t-32.5 79.5q0 44 32.5 76.5t78.5 32.5z" />
    <glyph glyph-name="f_igrave.liga" unicode="f&#xec;" horiz-adv-x="1265" 
d="M1092 977v-977h-181v819h-520v-819h-178v819h-139v158h139v233q0 167 91.5 251.5t244.5 84.5q94 0 156 -20l-31 -156q-52 14 -107 14q-92 0 -134 -48t-42 -154v-205h701zM1147 1212l-76 -100l-328 231l91 125z" />
    <glyph glyph-name="uni0066_uni1EC9.liga" unicode="f&#x1ec9;" horiz-adv-x="1185" 
d="M1014 977v-977h-180v819h-443v-819h-178v819h-139v158h139v233q0 167 91.5 251.5t244.5 84.5q94 0 156 -20l-31 -156q-52 14 -107 14q-92 0 -134 -48t-42 -154v-205h623zM825 1395q146 0 208.5 -31t62.5 -100q0 -28 -10 -49.5t-25.5 -36t-31 -28.5t-27.5 -32.5t-15 -40.5
h-129q5 35 20.5 60.5t31.5 36.5t29 25.5t13 31.5q0 53 -127 53v111z" />
    <glyph glyph-name="f_imacron.liga" unicode="f&#x12b;" horiz-adv-x="1226" 
d="M1055 977v-977h-181v819h-483v-819h-178v819h-139v158h139v233q0 167 91.5 251.5t244.5 84.5q94 0 156 -20l-31 -156q-52 14 -107 14q-92 0 -134 -48t-42 -154v-205h664zM707 1339h514v-129h-514v129z" />
    <glyph glyph-name="f_iogonek.liga" unicode="f&#x12f;" horiz-adv-x="1185" 
d="M1030 -397l29 -111q-64 -29 -141 -29q-102 0 -163 59t-61 161q0 77 42 159.5t122 157.5h-24v819h-443v-819h-178v819h-139v158h139v233q0 167 91.5 251.5t244.5 84.5q94 0 156 -20l-31 -156q-52 14 -107 14q-92 0 -134 -48t-42 -154v-205h623v-977h-2
q-78 -69 -124 -146.5t-46 -144.5q0 -58 28 -90.5t80 -32.5q31 0 80 17zM924 1163q-48 0 -82.5 35t-34.5 84t34.5 84t82.5 35q47 0 81.5 -35t34.5 -84t-34.5 -84t-81.5 -35z" />
    <glyph glyph-name="f_itilde.liga" unicode="f&#x129;" horiz-adv-x="1249" 
d="M1077 977v-977h-180v819h-506v-819h-178v819h-139v158h139v233q0 167 91.5 251.5t244.5 84.5q94 0 156 -20l-31 -156q-52 14 -107 14q-92 0 -134 -48t-42 -154v-205h686zM1249 1366l62 -100q-110 -99 -207 -99q-56 0 -127.5 37t-116.5 37q-63 0 -139 -65l-62 98
q106 100 213 100q56 0 128.5 -37t111.5 -37q62 0 137 66z" />
    <glyph glyph-name="f_j.liga" unicode="fj" horiz-adv-x="1185" 
d="M1014 977v-1137q0 -30 -0.5 -47.5t-3 -52.5t-7.5 -57.5t-15.5 -55t-25 -54t-37.5 -45.5t-52 -38t-69.5 -23.5t-88.5 -9.5q-72 0 -152 17l33 159q63 -10 94 -10q30 0 53 7t38 17t25.5 29t16 34t8 42.5t3 44.5t0.5 49v973h-443v-819h-178v819h-139v158h139v233
q0 167 91.5 251.5t244.5 84.5q94 0 156 -20l-31 -156q-52 14 -107 14q-92 0 -134 -48t-42 -154v-205h623zM924 1163q-48 0 -82.5 35t-34.5 84t34.5 84t82.5 35q47 0 81.5 -35t34.5 -84t-34.5 -84t-81.5 -35z" />
    <glyph glyph-name="uni0066_uni0237.liga" unicode="f&#x237;" horiz-adv-x="1241" 
d="M1067 977v-1137q0 -30 -0.5 -47.5t-3 -52.5t-7.5 -57.5t-15 -55t-24.5 -54t-37.5 -45.5t-51.5 -38t-69 -23.5t-88.5 -9.5q-76 0 -152 17l31 159q63 -10 94 -10q30 0 53 7t38 17t25.5 29t16 34t8 42.5t3 44.5t0.5 49v973h-496v-819h-178v819h-139v158h139v233
q0 167 91.5 251.5t244.5 84.5q94 0 156 -20l-31 -156q-52 14 -107 14q-92 0 -134 -48t-42 -154v-205h676z" />
    <glyph glyph-name="f_jcircumflex.liga" unicode="f&#x135;" horiz-adv-x="1251" 
d="M1077 977v-1137q0 -30 -0.5 -47.5t-3 -52.5t-7.5 -57.5t-15.5 -55t-25 -54t-37.5 -45.5t-52 -38t-69.5 -23.5t-88.5 -9.5q-71 0 -151 17l32 159q63 -10 95 -10q41 0 69.5 13.5t42.5 31t21.5 52.5t8.5 58t1 68v973h-506v-819h-178v819h-139v158h139v233q0 167 91.5 251.5
t244.5 84.5q94 0 156 -20l-31 -156q-52 14 -107 14q-92 0 -134 -48t-42 -154v-205h686zM987 1462l295 -233l-70 -101l-227 166l-225 -166l-70 101z" />
    <glyph glyph-name=".notdef" horiz-adv-x="1878" 
d="M938 -305q-188 0 -351 66t-278.5 181t-181.5 278t-66 351q0 189 66 352.5t181.5 279t278.5 181.5t351 66q189 0 352.5 -66t279 -181.5t181.5 -279t66 -352.5q0 -188 -66 -351t-181.5 -278t-279 -181t-352.5 -66zM786 375h242v88q0 40 23 69t86 70q86 57 120.5 114.5
t34.5 145.5q0 131 -96.5 213t-257.5 82q-124 0 -270 -47l63 -197q95 33 191 33q129 0 129 -90q0 -35 -22 -59t-89 -66q-92 -57 -123 -114.5t-31 -172.5v-69zM907 -12q65 0 111.5 45.5t46.5 109.5t-46.5 110t-111.5 46q-63 0 -110 -46t-47 -110t46.5 -109.5t110.5 -45.5z" />
    <glyph glyph-name=".null" 
 />
    <glyph glyph-name="nonmarkingreturn" horiz-adv-x="682" 
 />
    <glyph glyph-name="space" unicode=" " horiz-adv-x="495" 
 />
    <glyph glyph-name="exclam" unicode="!" horiz-adv-x="661" 
d="M424 1407v-961h-186v961h186zM330 223q51 0 87 -35t36 -86q0 -52 -36 -87t-87 -35t-87 35t-36 87q0 51 36 86t87 35z" />
    <glyph glyph-name="quotedbl" unicode="&#x22;" horiz-adv-x="854" 
d="M350 1536v-420l-162 -24v444h162zM666 1536v-420l-162 -24v444h162z" />
    <glyph glyph-name="numbersign" unicode="#" horiz-adv-x="1310" 
d="M1202 883h-237l-29 -363h235l-12 -131h-233l-31 -389h-145l30 389h-297l-30 -389h-146l31 389h-242l10 131h242l31 363h-242l13 131h239l31 393h143l-31 -393h299l31 393h144l-31 -393h239zM791 520l30 363h-299l-28 -363h297z" />
    <glyph glyph-name="dollar" unicode="$" horiz-adv-x="962" 
d="M874 367q0 -141 -84.5 -243t-228.5 -134v-211h-147v196q-169 7 -318 78l60 160q142 -68 276 -68q109 0 181.5 60t72.5 155q0 59 -31.5 109t-82 87.5t-111.5 74t-121.5 77.5t-111 87.5t-82 113.5t-31.5 148q0 140 88.5 237.5t238.5 126.5v226h146v-215q123 -4 237 -37
l-41 -166q-118 35 -227 35q-117 0 -185.5 -56t-68.5 -143q0 -56 31.5 -104.5t82 -85t111 -72.5t121.5 -77.5t111.5 -89t82 -117t31.5 -152.5z" />
    <glyph glyph-name="percent" unicode="%" horiz-adv-x="1878" 
d="M1358 1456l98 -67l-954 -1455l-101 70zM465 1425q149 0 243.5 -103t94.5 -249q0 -145 -94.5 -246.5t-243.5 -101.5q-150 0 -244 101.5t-94 246.5q0 147 94 249.5t244 102.5zM465 1300q-87 0 -142 -64.5t-55 -160.5q0 -94 55.5 -158.5t141.5 -64.5t141.5 64.5t55.5 158.5
q0 96 -55 160.5t-142 64.5zM1413 684q149 0 243.5 -103t94.5 -249q0 -145 -94.5 -246.5t-243.5 -101.5q-150 0 -244 101.5t-94 246.5q0 147 94 249.5t244 102.5zM1413 559q-87 0 -141.5 -64t-54.5 -161q0 -94 55 -158.5t141 -64.5t141.5 64.5t55.5 158.5q0 96 -55 160.5
t-142 64.5z" />
    <glyph glyph-name="ampersand" unicode="&#x26;" horiz-adv-x="1439" 
d="M1452 115l-98 -113l-269 225q-94 -119 -224.5 -184.5t-287.5 -65.5q-203 0 -327.5 102t-124.5 265q0 120 77 211.5t253 212.5q-55 50 -87 83.5t-66.5 80t-50.5 94.5t-16 102q0 143 106 231.5t265 88.5q69 0 131 -18.5t113.5 -55t81.5 -98t30 -139.5q0 -106 -60 -187.5
t-208 -189.5l357 -301q44 103 65 229l150 -14q-21 -172 -95 -318zM600 1311q-92 0 -148.5 -50t-56.5 -128q0 -70 45.5 -133t139.5 -146q113 75 164 135.5t51 143.5q0 87 -55 132.5t-140 45.5zM592 131q229 0 377 197l-406 342q-59 -43 -92.5 -68t-72.5 -59.5t-58 -60.5
t-32 -59t-13 -67q0 -101 82.5 -163t214.5 -62z" />
    <glyph glyph-name="quotesingle" unicode="'" horiz-adv-x="538" 
d="M350 1536v-420l-162 -24v444h162z" />
    <glyph glyph-name="parenleft" unicode="(" horiz-adv-x="679" 
d="M475 1604l127 -91q-139 -184 -218 -433t-79 -502q0 -491 303 -971l-129 -86q-157 227 -244.5 501t-87.5 558q0 277 85 548t243 476z" />
    <glyph glyph-name="parenright" unicode=")" horiz-adv-x="679" 
d="M205 1604q159 -206 244.5 -477t85.5 -547q0 -283 -88.5 -557t-245.5 -502l-129 86q305 483 305 971q0 252 -79.5 501t-219.5 434z" />
    <glyph glyph-name="asterisk" unicode="*" horiz-adv-x="935" 
d="M895 1092l-328 -95l207 -264l-112 -82l-197 273l-191 -273l-112 82l205 264l-326 95l43 133l322 -109l-11 332h144l-9 -332l320 109z" />
    <glyph glyph-name="plus" unicode="+" horiz-adv-x="1075" 
d="M1010 569v-149h-389v-393h-164v393h-391v149h391v387h164v-387h389z" />
    <glyph glyph-name="comma" unicode="," horiz-adv-x="450" 
d="M344 193l-141 -467h-148l111 467h178z" />
    <glyph glyph-name="hyphen" unicode="-" horiz-adv-x="614" 
d="M553 469h-492v149h492v-149z" />
    <glyph glyph-name="period" unicode="." horiz-adv-x="458" 
d="M229 223q51 0 87 -35t36 -86q0 -52 -36 -87t-87 -35t-87 35t-36 87q0 51 36 86t87 35z" />
    <glyph glyph-name="slash" unicode="/" horiz-adv-x="890" 
d="M737 1587l156 -61l-707 -1776l-155 64z" />
    <glyph glyph-name="zero" unicode="0" horiz-adv-x="1169" 
d="M592 1020q213 0 341 -140t128 -376q0 -238 -128.5 -382.5t-340.5 -144.5t-341.5 144.5t-129.5 382.5q0 234 129 375t342 141zM592 868q-133 0 -215 -98.5t-82 -265.5q0 -166 82.5 -270.5t214.5 -104.5t213.5 102.5t81.5 272.5q0 167 -81 265.5t-214 98.5z" />
    <glyph glyph-name="one" unicode="1" horiz-adv-x="759" 
d="M481 1008h105v-1008h-180v811l-316 -117l-49 150z" />
    <glyph glyph-name="two" unicode="2" horiz-adv-x="1001" 
d="M371 156h540v-156h-817v92l348 301q113 99 167.5 167.5t54.5 139.5q0 73 -56.5 116.5t-146.5 43.5q-66 0 -151.5 -21t-157.5 -55l-56 146q83 40 182.5 64t190.5 24q172 0 274.5 -82.5t102.5 -220.5q0 -113 -68.5 -207.5t-193.5 -190.5z" />
    <glyph glyph-name="three" unicode="3" horiz-adv-x="944" 
d="M539 348q142 -28 220.5 -121.5t78.5 -230.5q0 -178 -126.5 -288.5t-330.5 -110.5q-166 0 -326 75l49 150q135 -64 267 -64q127 0 205.5 67t78.5 179q0 124 -101.5 192.5t-277.5 65.5v146q342 40 342 245q0 95 -65.5 150t-175.5 55q-118 0 -260 -63l-51 143q160 80 325 80
q187 0 298.5 -93.5t111.5 -246.5q0 -120 -69 -207.5t-193 -122.5z" />
    <glyph glyph-name="four" unicode="4" horiz-adv-x="1124" 
d="M1083 150v-150h-233v-377h-170v377h-645v78l612 926h203v-854h233zM254 150h426v651z" />
    <glyph glyph-name="five" unicode="5" horiz-adv-x="1007" 
d="M526 451q173 0 286.5 -113.5t113.5 -288.5q0 -201 -133.5 -325.5t-348.5 -124.5q-91 0 -181 21.5t-154 57.5l61 140q56 -29 131.5 -46.5t140.5 -17.5q134 0 217.5 82t83.5 209q0 119 -82 190.5t-208 71.5q-109 0 -234 -49l-49 33v686h694v-154h-520v-407q81 35 182 35z
" />
    <glyph glyph-name="six" unicode="6" horiz-adv-x="1124" 
d="M643 838q177 0 280 -110.5t103 -295.5q0 -205 -124.5 -331t-321.5 -126q-223 0 -340 168t-117 471q0 359 155 560.5t420 201.5q131 0 242 -43l-47 -149q-91 33 -191 33q-187 0 -292 -152.5t-111 -431.5q41 94 131 149.5t213 55.5zM578 135q123 0 199.5 81.5t76.5 209.5
q0 117 -67 186.5t-185 69.5q-98 0 -177.5 -51.5t-119.5 -159.5q37 -336 273 -336z" />
    <glyph glyph-name="seven" unicode="7" horiz-adv-x="931" 
d="M41 977h864v-66l-600 -1288h-196l561 1192h-629v162z" />
    <glyph glyph-name="eight" unicode="8" horiz-adv-x="1157" 
d="M727 723q54 -29 93.5 -53t82.5 -59t69.5 -70.5t44 -83.5t17.5 -101q0 -164 -123 -272.5t-333 -108.5q-209 0 -332 101t-123 270q0 218 285 381q-101 64 -157 140t-56 182q0 148 107.5 237.5t287.5 89.5q176 0 281.5 -87.5t105.5 -227.5q0 -93 -64 -179.5t-186 -158.5z
M588 1235q-101 0 -159 -52t-58 -136q0 -79 57 -136.5t164 -115.5q211 116 211 254q0 83 -58 134.5t-157 51.5zM578 131q126 0 200 68t74 166q0 44 -19 80.5t-69 73.5t-80 55t-109 59q-17 9 -26 14q-246 -131 -246 -276q0 -110 80.5 -175t194.5 -65z" />
    <glyph glyph-name="nine" unicode="9" horiz-adv-x="1124" 
d="M545 1018q223 0 339.5 -167t116.5 -472q0 -357 -155 -558.5t-420 -201.5q-127 0 -242 43l49 148q91 -33 189 -33q187 0 292 152t111 431q-41 -94 -130 -149t-212 -55q-178 0 -281.5 111t-103.5 294q0 206 124.5 331.5t322.5 125.5zM522 311q97 0 176.5 52.5t120.5 160.5
q-37 334 -272 334q-122 0 -198.5 -81.5t-76.5 -209.5q0 -117 66 -186.5t184 -69.5z" />
    <glyph glyph-name="colon" unicode=":" horiz-adv-x="522" 
d="M262 686q-47 0 -81 35t-34 84q0 46 34 79.5t81 33.5q46 0 79.5 -33.5t33.5 -79.5q0 -49 -33.5 -84t-79.5 -35zM262 -29q-47 0 -81 35t-34 84q0 47 34 80t81 33q46 0 79.5 -33t33.5 -80q0 -49 -33.5 -84t-79.5 -35z" />
    <glyph glyph-name="semicolon" unicode=";" horiz-adv-x="606" 
d="M315 954q51 0 87 -35t36 -85q0 -52 -36 -88.5t-87 -36.5t-86.5 36.5t-35.5 88.5q0 50 35.5 85t86.5 35zM406 193l-142 -467h-147l110 467h179z" />
    <glyph glyph-name="less" unicode="&#x3c;" horiz-adv-x="1075" 
d="M926 821l-561 -276l561 -277l-72 -137l-707 365v98l707 362z" />
    <glyph glyph-name="equal" unicode="=" horiz-adv-x="1075" 
d="M98 625v147h879v-147h-879zM98 279v147h879v-147h-879z" />
    <glyph glyph-name="greater" unicode="&#x3e;" horiz-adv-x="1075" 
d="M219 956l709 -362v-98l-709 -365l-69 137l561 277l-561 276z" />
    <glyph glyph-name="question" unicode="?" horiz-adv-x="954" 
d="M399 1440q193 0 309.5 -99t116.5 -260q0 -106 -48 -179t-175 -161q-89 -61 -119 -98.5t-30 -89.5v-109h-168v95q0 107 38 166.5t154 136.5q106 69 144 118.5t38 118.5q0 98 -72 153.5t-198 55.5q-107 0 -211 -35l-43 144q150 43 264 43zM369 223q51 0 87 -35t36 -86
q0 -52 -36 -87t-87 -35t-87 35t-36 87q0 51 36 86t87 35z" />
    <glyph glyph-name="at" unicode="@" horiz-adv-x="2035" 
d="M1036 1430q187 0 348.5 -60.5t277.5 -168.5t182.5 -264.5t66.5 -340.5q0 -173 -57 -314.5t-159.5 -223.5t-230.5 -85q-95 -3 -166 41.5t-94 122.5q-107 -162 -295 -162q-126 0 -203 77t-77 206q0 168 140 242.5t427 77.5v81q0 101 -47 151t-150 50q-128 0 -264 -65
l-49 125q155 79 330 79q337 0 340 -325l2 -408q0 -75 32.5 -113t90.5 -38q78 0 141.5 61.5t100 169.5t36.5 240q0 212 -93.5 373.5t-256.5 247t-371 85.5q-164 0 -302.5 -55.5t-237 -157.5t-154 -251.5t-55.5 -331.5q0 -237 88.5 -422.5t254 -290.5t380.5 -105q84 0 170 21
l26 -133q-112 -25 -200 -25q-258 0 -457 121.5t-306.5 338.5t-107.5 495q0 211 67.5 387t187 295.5t285 185.5t359.5 66zM965 115q139 0 231 143v193q-206 -1 -296.5 -45t-90.5 -140q0 -70 41.5 -110.5t114.5 -40.5z" />
    <glyph glyph-name="A" unicode="A" horiz-adv-x="1243" 
d="M1014 0l-117 383h-547l-127 -383h-190l491 1407h236l450 -1407h-196zM406 547h442l-211 694z" />
    <glyph glyph-name="B" unicode="B" horiz-adv-x="1124" 
d="M735 745q56 -12 103.5 -35.5t90.5 -64.5t68 -107.5t25 -152.5q0 -193 -128 -294t-382 -101q-107 0 -315 10v1405q182 6 299 6q221 0 330.5 -92.5t109.5 -251.5q0 -109 -51.5 -197t-149.5 -125zM768 1042q0 215 -281 215q-45 0 -106 -6v-454h143q111 0 177.5 68t66.5 177z
M526 154q149 0 227 62t78 181q0 126 -83.5 194t-241.5 68h-125v-497q71 -8 145 -8z" />
    <glyph glyph-name="C" unicode="C" horiz-adv-x="1218" 
d="M1077 1198q-158 64 -305 64q-209 0 -335 -153t-126 -407q0 -258 131.5 -406.5t348.5 -148.5q128 0 280 58l57 -162q-176 -68 -348 -68q-305 0 -484 195t-179 526q0 333 179 534.5t468 201.5q174 0 364 -72z" />
    <glyph glyph-name="D" unicode="D" horiz-adv-x="1417" 
d="M573 1411q352 0 538.5 -180t186.5 -518q0 -335 -192 -526t-531 -191q-185 0 -378 8v1401q164 6 376 6zM567 166q260 0 399.5 144.5t139.5 406.5q0 253 -136 388.5t-386 135.5q-47 0 -109 -1t-92 -1v-1069q126 -4 184 -4z" />
    <glyph glyph-name="E" unicode="E" horiz-adv-x="1042" 
d="M383 168h541v-168h-727v1407h692v-168h-506v-426h451v-168h-451v-477z" />
    <glyph glyph-name="F" unicode="F" horiz-adv-x="960" 
d="M866 1239h-483v-446h442v-168h-442v-625h-186v1407h669v-168z" />
    <glyph glyph-name="G" unicode="G" horiz-adv-x="1396" 
d="M1034 662h187v-617q-79 -31 -195.5 -51.5t-216.5 -20.5q-317 0 -499.5 196.5t-182.5 541.5q0 176 54 315.5t147.5 227t216 133t264.5 45.5q192 0 393 -62l-45 -164q-192 56 -338 56q-228 0 -362.5 -141t-134.5 -412q0 -141 39.5 -251t108.5 -177t156.5 -101.5
t188.5 -34.5q97 0 219 29v488z" />
    <glyph glyph-name="H" unicode="H" horiz-adv-x="1464" 
d="M1081 1407h187v-1407h-187v641h-698v-641h-186v1407h186v-598h698v598z" />
    <glyph glyph-name="I" unicode="I" horiz-adv-x="579" 
d="M383 1407v-1407h-186v1407h186z" />
    <glyph glyph-name="J" unicode="J" horiz-adv-x="745" 
d="M569 1407v-1077q0 -22 -0.5 -35.5t-3 -44t-8 -52t-17 -52.5t-27 -52.5t-41 -45.5t-57 -39t-76 -24.5t-97.5 -9.5q-109 0 -219 29l32 168q86 -22 170 -22q45 0 77 15t47 33.5t23.5 51t9.5 51t1 49.5v1057h186z" />
    <glyph glyph-name="K" unicode="K" horiz-adv-x="1167" 
d="M1147 0h-223l-541 713v-713h-186v1407h186v-690l500 690h207l-498 -680z" />
    <glyph glyph-name="L" unicode="L" horiz-adv-x="952" 
d="M383 168h516v-168h-702v1407h186v-1239z" />
    <glyph glyph-name="M" unicode="M" horiz-adv-x="1845" 
d="M1686 0h-181l-37 1135l-507 -1135h-70l-510 1126l-39 -1126h-180l51 1407h240l483 -1073l469 1073h231z" />
    <glyph glyph-name="N" unicode="N" horiz-adv-x="1552" 
d="M1174 1407h182v-1407h-207l-770 1155v-1155h-182v1407h233l744 -1114v1114z" />
    <glyph glyph-name="O" unicode="O" horiz-adv-x="1599" 
d="M807 1432q201 0 354.5 -91t237.5 -256t84 -378t-84 -379.5t-238.5 -259.5t-355.5 -93t-358 93t-243.5 259t-86.5 378q0 210 86 375.5t243.5 258.5t360.5 93zM803 1262q-219 0 -354.5 -157t-135.5 -396q0 -159 60.5 -287t173 -202.5t256.5 -74.5q217 0 350 160t133 404
q0 157 -57.5 282t-168.5 198t-257 73z" />
    <glyph glyph-name="P" unicode="P" horiz-adv-x="1058" 
d="M457 1413q132 0 230.5 -22t172.5 -70t112 -131.5t38 -200.5q0 -448 -514 -448q-35 0 -113 4v-545h-186v1407q198 6 260 6zM494 698q162 0 246.5 68t84.5 217q0 266 -323 266q-49 0 -119 -4v-540q101 -7 111 -7z" />
    <glyph glyph-name="Q" unicode="Q" horiz-adv-x="1599" 
d="M1903 -193l55 -153q-174 -86 -375 -86q-227 0 -427.5 103.5t-356.5 303.5q-199 1 -354.5 94t-241.5 259t-86 377q0 210 86 375.5t243.5 258.5t360.5 93q201 0 354.5 -91t237.5 -256t84 -378q0 -261 -125 -448.5t-340 -252.5q112 -134 258.5 -203t316.5 -69q161 0 310 73z
M313 709q0 -159 60.5 -287t173 -202.5t256.5 -74.5q217 0 350 160t133 404q0 157 -57.5 282t-168.5 198t-257 73q-219 0 -354.5 -157t-135.5 -396z" />
    <glyph glyph-name="R" unicode="R" horiz-adv-x="1189" 
d="M1180 0h-228l-358 557q-44 -6 -88 -6h-123v-551h-186v1407q151 8 284 8q254 0 380 -104t126 -301q0 -134 -57 -236t-160 -160zM383 711h141q129 0 202 76t73 208q0 130 -75 192t-226 62q-38 0 -115 -6v-532z" />
    <glyph glyph-name="S" unicode="S" horiz-adv-x="962" 
d="M559 1432q143 0 266 -37l-41 -166q-118 35 -227 35q-117 0 -185.5 -56t-68.5 -143q0 -56 31.5 -104.5t82 -85t111 -72.5t121.5 -77.5t111.5 -89t82 -117t31.5 -152.5q0 -172 -121.5 -282t-316.5 -110q-178 0 -340 78l60 160q142 -68 276 -68q109 0 181.5 60t72.5 155
q0 59 -31.5 109t-82 87.5t-111.5 74t-121.5 77.5t-111 87.5t-82 113.5t-31.5 148q0 167 123 271t321 104z" />
    <glyph glyph-name="T" unicode="T" horiz-adv-x="1130" 
d="M1098 1407v-168h-447v-1239h-186v1239h-432v168h1065z" />
    <glyph glyph-name="U" unicode="U" horiz-adv-x="1404" 
d="M365 1407v-936q0 -21 0.5 -34t3.5 -42t8.5 -49t17 -48.5t27.5 -48.5t42 -42.5t58.5 -36t78 -22.5t99.5 -9q70 0 125 14.5t90 35.5t60 54.5t36.5 60t18 64.5t7.5 56.5t1 46.5v936h187v-934q0 -28 -0.5 -47.5t-5.5 -61t-13.5 -73t-27 -75t-44 -75.5t-66 -66t-91 -56
t-121.5 -36t-156 -14q-84 0 -154.5 14t-121 36t-90.5 56t-65 66t-43 75.5t-26.5 74.5t-13.5 72.5t-5.5 60.5t-0.5 47v936h185z" />
    <glyph glyph-name="V" unicode="V" horiz-adv-x="1236" 
d="M1008 1407h194l-491 -1407h-170l-506 1407h201l393 -1143z" />
    <glyph glyph-name="W" unicode="W" horiz-adv-x="1959" 
d="M1712 1407h193l-377 -1407h-172l-371 1026l-348 -1026h-168l-414 1407h195l315 -1118l381 1118h80l412 -1124z" />
    <glyph glyph-name="X" unicode="X" horiz-adv-x="1230" 
d="M1169 0h-215l-350 567l-342 -567h-201l445 719l-428 688h213l323 -537l328 537h197l-424 -682z" />
    <glyph glyph-name="Y" unicode="Y" horiz-adv-x="1132" 
d="M897 1407h201l-432 -840v-567h-187v567l-444 840h205l335 -668z" />
    <glyph glyph-name="Z" unicode="Z" horiz-adv-x="1126" 
d="M1079 1407v-76l-729 -1163h727v-168h-999v74l731 1165h-703v168h973z" />
    <glyph glyph-name="bracketleft" unicode="[" horiz-adv-x="681" 
d="M606 1593v-137h-241v-1806h241v-137h-393v2080h393z" />
    <glyph glyph-name="backslash" unicode="\" horiz-adv-x="899" 
d="M162 1587l706 -1773l-163 -68l-705 1774z" />
    <glyph glyph-name="bracketright" unicode="]" horiz-adv-x="681" 
d="M469 1593v-2080h-393v137h241v1806h-241v137h393z" />
    <glyph glyph-name="asciicircum" unicode="^" horiz-adv-x="890" 
d="M821 913l-110 -73l-267 409l-266 -409l-108 73l374 555z" />
    <glyph glyph-name="underscore" unicode="_" horiz-adv-x="960" 
d="M961 -211v-135h-961v135h961z" />
    <glyph glyph-name="grave" unicode="`" horiz-adv-x="567" 
d="M485 1212l-75 -100l-328 231l88 125z" />
    <glyph glyph-name="a" unicode="a" horiz-adv-x="978" 
d="M477 1001q99 0 170.5 -29t109 -80t54 -109t16.5 -128v-655h-178v111q-118 -136 -278 -136q-133 0 -210 77.5t-77 205.5q0 168 143 246.5t422 81.5v51q0 32 -2.5 56t-13.5 55t-30 50.5t-56 33.5t-88 14q-123 0 -266 -70l-56 144q166 81 340 81zM420 133q129 0 229 129v176
q-203 -1 -293 -41t-90 -127q0 -62 41 -99.5t113 -37.5z" />
    <glyph glyph-name="b" unicode="b" horiz-adv-x="1114" 
d="M666 1006q76 0 137.5 -30t100.5 -78t65.5 -113t37.5 -131t11 -136q0 -83 -16.5 -159.5t-54 -146.5t-92.5 -122t-138.5 -82.5t-186.5 -30.5q-71 0 -172.5 13.5t-183.5 38.5v1507h178v-698q137 168 314 168zM541 141q78 0 136.5 31t91.5 85t49 118t16 137q0 90 -22 161.5
t-74 118t-128 46.5q-139 0 -258 -189v-487q111 -21 189 -21z" />
    <glyph glyph-name="c" unicode="c" horiz-adv-x="929" 
d="M801 786q-126 50 -228 50q-76 0 -134 -27.5t-92 -75.5t-51 -108.5t-17 -130.5q0 -54 9.5 -103t31 -95t54 -79.5t83 -53.5t112.5 -20q119 0 254 64l62 -148q-67 -36 -157.5 -59t-180.5 -23q-148 0 -251.5 67.5t-151.5 179.5t-48 259q0 229 125.5 373.5t345.5 144.5
q150 0 281 -61z" />
    <glyph glyph-name="d" unicode="d" horiz-adv-x="1136" 
d="M782 1536h181v-1536h-181v127q-154 -147 -315 -147q-162 0 -259 131.5t-97 343.5q0 155 52 278.5t157.5 199t248.5 75.5q88 0 213 -25v553zM522 147q137 0 260 150v516q-109 31 -194 31q-97 0 -165 -54t-98 -136t-30 -183q0 -139 58.5 -231.5t168.5 -92.5z" />
    <glyph glyph-name="e" unicode="e" horiz-adv-x="1030" 
d="M547 999q112 0 193 -41.5t125 -117t60 -174.5t5 -222h-654q9 -158 83.5 -236.5t222.5 -78.5q133 0 272 68l59 -140q-164 -82 -352 -82q-226 0 -345.5 129.5t-119.5 370.5q0 242 118 383t333 141zM539 852q-223 0 -258 -258h475q-5 132 -57.5 195t-159.5 63z" />
    <glyph glyph-name="f" unicode="f" horiz-adv-x="669" 
d="M565 1384q-176 0 -176 -194v-213h248v-156h-248v-821h-180v821h-137v156h137v219q0 48 8.5 92.5t31.5 93t59.5 83.5t98 58t140.5 23q77 0 155 -16l-28 -156q-55 10 -109 10z" />
    <glyph glyph-name="g" unicode="g" horiz-adv-x="1048" 
d="M1006 840h-101q-40 0 -92 10q61 -89 61 -201q0 -149 -105 -244.5t-271 -95.5q-68 0 -133 19q-64 -55 -64 -113q0 -43 32.5 -68t96.5 -26l219 -6q162 -5 248 -74t86 -197q0 -165 -131 -273t-350 -108q-189 0 -306.5 86.5t-117.5 225.5q0 142 135 262q-74 55 -74 147
q0 100 97 209q-59 45 -92 112t-33 146q0 151 109.5 250.5t273.5 99.5q80 0 147 -24h365v-137zM494 449q99 0 161 56t62 146q0 91 -62 149t-161 58t-161.5 -58t-62.5 -149q0 -90 62.5 -146t161.5 -56zM606 -20l-225 6q-19 0 -29 2q-112 -82 -112 -189q0 -87 74 -138.5
t198 -51.5q136 0 220.5 61.5t84.5 159.5q0 144 -211 150z" />
    <glyph glyph-name="h" unicode="h" horiz-adv-x="1167" 
d="M709 1001q61 0 109.5 -16t79 -39t52.5 -60t32.5 -66.5t16.5 -72t6.5 -63.5t0.5 -53v-631h-181v602q0 26 -0.5 40.5t-4 42.5t-9.5 45t-19.5 39t-32 34.5t-48 21.5t-66.5 9q-163 0 -293 -164v-670h-178v1536h178v-700q156 165 357 165z" />
    <glyph glyph-name="i" unicode="i" horiz-adv-x="526" 
d="M264 1401q48 0 82.5 -35t34.5 -84t-34.5 -84t-82.5 -35t-82.5 35t-34.5 84t34.5 84t82.5 35zM354 977v-977h-180v977h180z" />
    <glyph glyph-name="j" unicode="j" horiz-adv-x="526" 
d="M264 1401q48 0 82.5 -35t34.5 -84t-34.5 -84t-82.5 -35t-82.5 35t-34.5 84t34.5 84t82.5 35zM354 977v-1137q0 -30 -0.5 -47.5t-3 -52.5t-7.5 -57.5t-15.5 -55t-25 -54t-37.5 -45.5t-52 -38t-69.5 -23.5t-88.5 -9.5q-71 0 -151 17l33 159q63 -10 94 -10q41 0 69.5 13.5
t42.5 31t21.5 52.5t8.5 58t1 68v1131h180z" />
    <glyph glyph-name="k" unicode="k" horiz-adv-x="991" 
d="M174 1536h178v-1536h-178v1536zM555 541l428 -541h-207l-424 530l365 447h203z" />
    <glyph glyph-name="l" unicode="l" horiz-adv-x="526" 
d="M354 1536v-1536h-180v1536h180z" />
    <glyph glyph-name="m" unicode="m" horiz-adv-x="1771" 
d="M1315 1001q47 0 87 -9t68.5 -23t51 -37.5t36.5 -44t24 -51t15 -51.5t7.5 -51.5t3 -45.5t0.5 -39v-649h-181v621q0 32 -1 51.5t-10 54t-25.5 55t-51 36.5t-82.5 16q-147 0 -276 -144v-41v-649h-180v621q0 26 -1 42t-5 45.5t-15 48t-28.5 38t-48 29.5t-70.5 10
q-149 0 -279 -142v-692h-180v977h180v-125q143 149 334 149q209 0 268 -167q156 167 359 167z" />
    <glyph glyph-name="n" unicode="n" horiz-adv-x="1167" 
d="M711 1001q61 0 109 -16t78.5 -39t52.5 -60.5t32 -67.5t16 -74t6.5 -66t0.5 -57v-621h-181v596q0 27 -0.5 42t-4 44t-10 46.5t-19.5 39.5t-32 35t-48.5 22t-67.5 9q-163 0 -289 -162v-672h-180v977h180v-141q155 165 357 165z" />
    <glyph glyph-name="o" unicode="o" horiz-adv-x="1132" 
d="M565 -25q-215 0 -342 139.5t-127 374.5q0 236 127 375.5t342 139.5q217 0 344 -139.5t127 -375.5q0 -235 -127.5 -374.5t-343.5 -139.5zM565 135q131 0 209 96.5t78 257.5q0 162 -78 258.5t-209 96.5q-130 0 -207 -96t-77 -259q0 -162 77 -258t207 -96z" />
    <glyph glyph-name="p" unicode="p" horiz-adv-x="1136" 
d="M674 1001q159 0 252.5 -131t93.5 -350q0 -252 -122 -398.5t-331 -146.5q-99 0 -215 25v-512h-178v1489h178v-129q144 153 322 153zM547 139q80 0 138 31.5t90 86t46.5 118t14.5 137.5q0 152 -54.5 234.5t-158.5 82.5q-78 0 -148 -39.5t-123 -111.5v-508q117 -31 195 -31z
" />
    <glyph glyph-name="q" unicode="q" horiz-adv-x="1114" 
d="M575 999q93 0 193 -19.5t174 -49.5v-1442h-180v645q-136 -153 -313 -153q-167 0 -260 128t-93 357q0 79 15 152.5t50.5 144t89 122.5t137 83.5t187.5 31.5zM500 143q87 0 157 53t105 113v500q-115 27 -193 27q-79 0 -137 -31.5t-89.5 -85.5t-46.5 -116t-15 -134
q0 -90 22 -161.5t72.5 -118t124.5 -46.5z" />
    <glyph glyph-name="r" unicode="r" horiz-adv-x="741" 
d="M696 1001h21l-17 -174q-113 0 -197 -37t-151 -118v-672h-178v977h178v-129q141 153 344 153z" />
    <glyph glyph-name="s" unicode="s" horiz-adv-x="794" 
d="M356 -23q-140 0 -266 52l43 151q126 -47 217 -47q76 0 126 36t50 97q0 39 -23.5 70t-61 53t-83 42.5t-91 45.5t-83 56t-61 80.5t-23.5 111.5q0 132 92.5 203t247.5 71q120 0 226 -34l-37 -148q-109 31 -180 31q-78 0 -124 -32t-46 -85q0 -35 23.5 -64.5t61.5 -51.5
t83.5 -44t91 -49t83.5 -60t61.5 -83.5t23.5 -112.5q0 -129 -94.5 -209t-256.5 -80z" />
    <glyph glyph-name="t" unicode="t" horiz-adv-x="753" 
d="M461 -20q-275 0 -275 278v565h-149v47l287 295h43v-188h307v-154h-307v-508q0 -87 27 -129.5t106 -42.5q71 0 162 39l49 -149q-111 -53 -250 -53z" />
    <glyph glyph-name="u" unicode="u" horiz-adv-x="1163" 
d="M809 977h180v-977h-180v139q-143 -164 -348 -164q-48 0 -89 9t-69.5 23t-51.5 36.5t-37.5 43.5t-25 50t-15.5 49.5t-7.5 49t-3 41.5t-0.5 34v666h180v-637q0 -197 168 -197q154 0 299 168v666z" />
    <glyph glyph-name="v" unicode="v" horiz-adv-x="974" 
d="M762 977h188l-379 -977h-159l-387 977h198l273 -768z" />
    <glyph glyph-name="w" unicode="w" horiz-adv-x="1499" 
d="M1290 977h176l-288 -977h-170l-258 655l-248 -655h-168l-299 977h180l219 -746l281 746h78l290 -746z" />
    <glyph glyph-name="x" unicode="x" horiz-adv-x="991" 
d="M946 0h-213l-250 379l-241 -379h-195l336 514l-313 463h206l220 -334l211 334h190l-303 -469z" />
    <glyph glyph-name="y" unicode="y" horiz-adv-x="999" 
d="M784 977h191l-590 -1489h-195l226 541l-391 948h194l287 -746z" />
    <glyph glyph-name="z" unicode="z" horiz-adv-x="917" 
d="M336 154h498v-154h-748v70l483 753h-467v154h719v-70z" />
    <glyph glyph-name="braceleft" unicode="{" horiz-adv-x="735" 
d="M641 1454h-104q-93 0 -93 -123v-442q0 -119 -21.5 -193.5t-52.5 -103t-77 -37.5q46 -11 77 -40.5t52.5 -103.5t21.5 -192v-442q0 -123 93 -123h104v-139h-131q-102 0 -158.5 64t-56.5 177v428q0 181 -32 241t-128 60v140q96 0 128 60t32 239v428q0 114 56.5 177.5
t158.5 63.5h131v-139z" />
    <glyph glyph-name="bar" unicode="|" horiz-adv-x="696" 
d="M438 1597v-2084h-180v2084h180z" />
    <glyph glyph-name="braceright" unicode="}" horiz-adv-x="735" 
d="M94 1454v139h131q102 0 158.5 -63.5t56.5 -177.5v-428q0 -179 32 -239t128 -60v-140q-96 0 -128 -60t-32 -241v-428q0 -113 -56.5 -177t-158.5 -64h-131v139h105q48 0 71 33t23 90v442q0 118 21 192t51.5 103.5t76.5 40.5q-46 9 -76.5 37.5t-51.5 103t-21 193.5v442
q-3 123 -94 123h-105z" />
    <glyph glyph-name="asciitilde" unicode="~" horiz-adv-x="1236" 
d="M403 651q60 0 122 -21.5t105 -48t95.5 -48t95.5 -21.5q64 0 118 40t87 85l107 -100q-19 -25 -43 -49t-64 -55.5t-94 -51t-111 -19.5t-118 22t-104.5 48t-97 48t-98.5 22q-16 0 -31.5 -2.5t-30 -8.5t-26.5 -11.5t-25 -15.5t-21.5 -16.5t-21 -18.5t-17 -16.5t-15.5 -16.5
t-12 -13l-99 106q53 65 131 113.5t168 48.5z" />
    <glyph glyph-name="uni00A0" unicode="&#xa0;" horiz-adv-x="495" 
 />
    <glyph glyph-name="exclamdown" unicode="&#xa1;" horiz-adv-x="661" 
d="M332 762q-51 0 -87 35t-36 86q0 52 36 87.5t87 35.5t87 -35.5t36 -87.5q0 -51 -36 -86t-87 -35zM238 -422v961h186v-961h-186z" />
    <glyph glyph-name="cent" unicode="&#xa2;" horiz-adv-x="929" 
d="M885 59q-114 -60 -254 -75v-195h-146v193q-191 20 -290 156.5t-99 344.5q0 205 102.5 345t286.5 167v199h146v-197q115 -9 217 -57l-47 -154q-126 50 -228 50q-76 0 -134 -27.5t-92 -75.5t-51 -108.5t-17 -130.5q0 -54 9.5 -103t31 -95t54 -79.5t83 -53.5t112.5 -20
q119 0 254 64z" />
    <glyph glyph-name="sterling" unicode="&#xa3;" horiz-adv-x="1046" 
d="M461 623v-473h506v-148l-875 -2v150h201v473h-143v147h143v297q0 174 117 276.5t288 102.5q81 0 162.5 -31t140.5 -84l-88 -117q-105 78 -204 78q-116 0 -182 -64.5t-66 -170.5v-287h379v-147h-379z" />
    <glyph glyph-name="currency" unicode="&#xa4;" horiz-adv-x="1208" 
d="M1065 485q0 -142 -86 -262l117 -119l-107 -110l-121 123q-119 -82 -260 -82q-143 0 -262 82l-119 -119l-110 106l119 121q-84 117 -84 260q0 145 86 265l-119 118l108 109l121 -121q116 80 260 80q141 0 260 -82l121 121l109 -109l-119 -118q86 -116 86 -263zM608 184
q121 0 207 88t86 213t-86 213t-207 88q-123 0 -208 -88t-85 -213t85 -213t208 -88z" />
    <glyph glyph-name="yen" unicode="&#xa5;" horiz-adv-x="1095" 
d="M1079 1407l-407 -748h280v-116h-315v-176h315v-117h-315v-250h-184v250h-312v117h312v176h-312v116h277l-402 748h207l283 -557l45 -107q25 71 45 109l283 555h200z" />
    <glyph glyph-name="brokenbar" unicode="&#xa6;" horiz-adv-x="696" 
d="M438 1597v-886h-180v886h180zM438 401v-888h-180v888h180z" />
    <glyph glyph-name="section" unicode="&#xa7;" horiz-adv-x="1097" 
d="M756 176q129 -115 129 -282q0 -169 -117 -273t-322 -104q-174 0 -313 73l68 154q118 -59 248 -59q125 0 187 60.5t62 148.5q0 53 -24 98t-64 78t-90.5 66.5t-103 62t-103 66t-90.5 78t-64 98.5t-24 126q0 117 66.5 205t173.5 121q-146 118 -146 281t117.5 264.5
t310.5 101.5q108 0 234 -29l-37 -163q-89 24 -188 24q-118 0 -185 -52t-67 -140q0 -43 19 -80.5t51 -67t73.5 -57t88 -54.5t92.5 -55.5t87.5 -64.5t73.5 -76.5t51 -96.5t19 -120q0 -113 -56.5 -200t-156.5 -132zM313 580q0 -32 8.5 -61t28 -54t39 -44.5t53 -42t57.5 -37
t65.5 -38t64.5 -37.5q82 31 131 95.5t49 140.5q0 39 -15 74t-36 60t-59.5 53.5t-67 46t-78.5 45.5q-17 9 -25 14q-93 -14 -154 -71t-61 -144z" />
    <glyph glyph-name="dieresis" unicode="&#xa8;" horiz-adv-x="727" 
d="M184 1393q41 0 72 -31t31 -72q0 -44 -30.5 -75t-72.5 -31q-44 0 -73 30.5t-29 75.5q0 42 29.5 72.5t72.5 30.5zM543 1393q41 0 71.5 -31t30.5 -72q0 -44 -30 -75t-72 -31q-44 0 -74.5 31t-30.5 75q0 42 30.5 72.5t74.5 30.5z" />
    <glyph glyph-name="copyright" unicode="&#xa9;" horiz-adv-x="1679" 
d="M838 -246q-210 0 -378 94.5t-262 262t-94 376.5t94.5 377.5t262.5 263.5t377 95q156 0 293 -56t235 -153t154.5 -233.5t56.5 -293.5q0 -156 -56.5 -292.5t-154.5 -233t-235 -152t-293 -55.5zM838 -121q130 0 242.5 45.5t192 125.5t124.5 193t45 244q0 175 -77 314.5
t-215 218t-312 78.5q-263 0 -431.5 -172.5t-168.5 -438.5q0 -175 76 -313.5t213 -216.5t311 -78zM870 119q-92 0 -162 33t-111 89t-61 123.5t-20 143.5q0 161 93.5 269t260.5 108q133 0 215 -45l-38 -115q-86 33 -168 33q-107 0 -164.5 -71t-57.5 -179q0 -110 59 -185
t167 -75q94 0 178 49l53 -113q-110 -65 -244 -65z" />
    <glyph glyph-name="ordfeminine" unicode="&#xaa;" horiz-adv-x="727" 
d="M373 1415q43 0 79.5 -7t62.5 -18t46.5 -29.5t33.5 -34.5t22.5 -41t14 -42.5t6.5 -44.5t2.5 -40.5t0.5 -37.5v-461h-137v89q-38 -50 -93.5 -77.5t-117.5 -27.5q-96 0 -157.5 62.5t-61.5 164.5q0 122 104 175.5t326 56.5v14q0 34 -1 51.5t-9 46.5t-23 44.5t-45 27.5t-74 12
q-90 0 -194 -49l-43 99q115 67 258 67zM332 752q100 0 172 106v146q-167 -3 -231 -32.5t-64 -97.5q0 -58 33.5 -90t89.5 -32z" />
    <glyph glyph-name="guillemotleft" unicode="&#xab;" horiz-adv-x="962" 
d="M475 834l-199 -347l197 -344l-123 -71l-235 415l239 426zM848 834l-199 -347l199 -344l-123 -71l-236 415l240 426z" />
    <glyph glyph-name="logicalnot" unicode="&#xac;" horiz-adv-x="1075" 
d="M1016 590v-424h-164v274h-795v150h959z" />
    <glyph glyph-name="uni00AD" unicode="&#xad;" horiz-adv-x="614" 
d="M553 469h-492v149h492v-149z" />
    <glyph glyph-name="registered" unicode="&#xae;" horiz-adv-x="1077" 
d="M541 1499q199 0 329.5 -130.5t130.5 -330.5q0 -201 -130 -330.5t-330 -129.5q-201 0 -332 129.5t-131 330.5q0 200 131 330.5t332 130.5zM539 680q158 0 257 99t99 259q0 158 -99 257.5t-257 99.5q-157 0 -256 -99.5t-99 -257.5q0 -159 99 -258.5t256 -99.5zM694 1143
q0 -92 -86 -139l148 -201h-109l-131 178h-6h-39v-178h-90v485h139q49 0 85 -13.5t54.5 -36.5t26.5 -46.5t8 -48.5zM471 1208v-149h43q42 0 65 23t23 59q0 67 -76 67h-55z" />
    <glyph glyph-name="macron" unicode="&#xaf;" horiz-adv-x="677" 
d="M596 1339v-129h-514v129h514z" />
    <glyph glyph-name="degree" unicode="&#xb0;" horiz-adv-x="661" 
d="M332 1552q119 0 200.5 -82t81.5 -202q0 -119 -82 -201t-200 -82q-120 0 -202.5 82t-82.5 201q0 120 82.5 202t202.5 82zM332 1425q-65 0 -110.5 -45.5t-45.5 -111.5t45.5 -111t110.5 -45t109 45t44 111t-44.5 111.5t-108.5 45.5z" />
    <glyph glyph-name="plusminus" unicode="&#xb1;" horiz-adv-x="1075" 
d="M621 846h389v-150h-389v-391h-164v391h-391v150h391v387h164v-387zM66 45v150h944v-150h-944z" />
    <glyph glyph-name="uni00B2" unicode="&#xb2;" horiz-adv-x="636" 
d="M240 918h335v-119h-512v90l230 237q58 59 87.5 106.5t29.5 96.5q0 52 -35.5 80.5t-102.5 28.5q-82 0 -172 -43l-41 108q97 51 226 51q120 0 190 -58.5t70 -158.5q0 -17 -2.5 -33.5t-5 -29.5t-9.5 -28.5t-11 -24.5t-15 -24t-14.5 -21t-18 -21.5t-17 -18.5t-19 -20
t-17.5 -18z" />
    <glyph glyph-name="uni00B3" unicode="&#xb3;" horiz-adv-x="585" 
d="M266 1559q113 0 178.5 -50.5t65.5 -138.5q0 -41 -15.5 -73.5t-40 -51.5t-48.5 -30t-48 -15q67 -11 119.5 -58t52.5 -134q0 -101 -72 -161.5t-196 -60.5q-105 0 -205 41l33 109q81 -31 164 -31q67 0 106 30t39 81q0 60 -58.5 92.5t-162.5 32.5v94q79 0 139 30t60 87
q0 43 -32.5 66.5t-92.5 23.5q-72 0 -154 -29l-30 107q97 39 198 39z" />
    <glyph glyph-name="acute" unicode="&#xb4;" horiz-adv-x="567" 
d="M485 1350l-325 -234l-78 103l315 254z" />
    <glyph glyph-name="uni00B5" unicode="&#xb5;" horiz-adv-x="1173" 
d="M819 977h180v-977h-180v168q-60 -104 -130.5 -148.5t-162.5 -44.5q-103 0 -172 56v-543h-180v1489h180v-633q0 -21 0.5 -33t3.5 -36t9.5 -39t19 -34.5t30 -31t45.5 -19.5t64 -8q178 0 293 209v625z" />
    <glyph glyph-name="paragraph" unicode="&#xb6;" horiz-adv-x="1280" 
d="M688 1407v-885h-70q-46 0 -89.5 4t-96.5 16.5t-97.5 32t-88.5 54.5t-74.5 80.5t-49 112t-18.5 147.5q0 79 18.5 143.5t49 109t74 78.5t88.5 54t98 32.5t96.5 16.5t89.5 4h70zM1087 1407v-1567q0 -173 -78 -262.5t-229 -89.5q-133 0 -239 29l32 166q97 -23 183 -23
q75 0 110 48.5t35 154.5v1544h186z" />
    <glyph glyph-name="periodcentered" unicode="&#xb7;" horiz-adv-x="575" 
d="M287 803q51 0 87 -36t36 -87t-36 -87t-87 -36t-87 36t-36 87t36 87t87 36z" />
    <glyph glyph-name="cedilla" unicode="&#xb8;" horiz-adv-x="477" 
d="M340 16q23 -44 39 -104t16 -113q0 -115 -79.5 -177t-229.5 -62v131q162 0 162 135q0 83 -58 190h150z" />
    <glyph glyph-name="uni00B9" unicode="&#xb9;" horiz-adv-x="462" 
d="M297 1540h59v-741h-125v587l-170 -75l-49 92z" />
    <glyph glyph-name="ordmasculine" unicode="&#xba;" horiz-adv-x="870" 
d="M793 1032q0 -73 -22 -141t-64 -123.5t-112 -89t-159 -33.5t-159 33.5t-112 89t-63.5 123.5t-21.5 141t21.5 141t63.5 123.5t112 89t159 33.5t159 -32.5t112.5 -88t64 -123.5t21.5 -143zM217 1032q0 -50 12 -95t36.5 -84.5t68.5 -63t102 -23.5q76 0 127 41.5t71.5 99.5
t20.5 125q0 50 -12 96t-37 85.5t-69 63t-101 23.5q-58 0 -102 -23.5t-68.5 -63.5t-36.5 -85.5t-12 -95.5z" />
    <glyph glyph-name="guillemotright" unicode="&#xbb;" horiz-adv-x="962" 
d="M473 487l-235 -415l-123 71l196 344l-196 347l121 79zM848 487l-236 -415l-123 71l197 344l-199 347l123 79z" />
    <glyph glyph-name="onequarter" unicode="&#xbc;" horiz-adv-x="1337" 
d="M1104 1456l98 -67l-954 -1455l-101 70zM231 664v587l-170 -75l-49 92l285 137h59v-741h-125zM1331 272v-102h-119v-170h-125v170h-350v74l320 501h155v-473h119zM1094 616l-220 -344h213z" />
    <glyph glyph-name="onehalf" unicode="&#xbd;" horiz-adv-x="1486" 
d="M1104 1456l98 -67l-954 -1455l-101 70zM231 664v587l-170 -75l-49 92l285 137h59v-741h-125zM1092 119h335v-119h-512v90l230 238q60 61 88.5 109t28.5 93q0 52 -35.5 80.5t-102.5 28.5q-82 0 -172 -43l-41 109q97 51 226 51q120 0 190 -58.5t70 -158.5q0 -38 -8.5 -70
t-31.5 -65.5t-33.5 -45.5t-44.5 -47q-7 -8 -11 -12z" />
    <glyph glyph-name="threequarters" unicode="&#xbe;" horiz-adv-x="1415" 
d="M1182 1456l98 -67l-954 -1455l-101 70zM254 770q67 0 106 30t39 81q0 60 -58.5 92.5t-162.5 32.5v94q79 0 139 30t60 87q0 43 -32.5 66.5t-92.5 23.5q-72 0 -154 -29l-30 106q97 39 198 39q113 0 178.5 -50.5t65.5 -137.5q0 -41 -15.5 -73.5t-40 -51.5t-48.5 -30t-48 -15
q67 -11 119.5 -58.5t52.5 -134.5q0 -100 -72 -160.5t-196 -60.5q-105 0 -205 41l33 109q81 -31 164 -31zM1409 272v-102h-119v-170h-125v170h-350v74l320 501h155v-473h119zM1171 616l-219 -344h213z" />
    <glyph glyph-name="questiondown" unicode="&#xbf;" horiz-adv-x="954" 
d="M592 752q-51 0 -87 34.5t-36 85.5q0 52 36 87.5t87 35.5t87 -35.5t36 -87.5q0 -51 -36 -85.5t-87 -34.5zM561 -465q-193 0 -309.5 99t-116.5 260q0 106 48 178.5t175 160.5q89 61 119.5 99t30.5 90v108h168v-94q0 -51 -6 -83.5t-25.5 -69.5t-58 -72t-103.5 -78
q-105 -69 -142.5 -118.5t-37.5 -118.5q0 -98 71 -153.5t197 -55.5q110 0 211 34l43 -143q-150 -43 -264 -43z" />
    <glyph glyph-name="Agrave" unicode="&#xc0;" horiz-adv-x="1243" 
d="M750 1595l-66 -96l-332 227l78 115zM1014 0l-117 383h-547l-127 -383h-190l491 1407h236l450 -1407h-196zM406 547h442l-211 694z" />
    <glyph glyph-name="Aacute" unicode="&#xc1;" horiz-adv-x="1243" 
d="M903 1726l-330 -227l-67 96l321 246zM1014 0l-117 383h-547l-127 -383h-190l491 1407h236l450 -1407h-196zM406 547h442l-211 694z" />
    <glyph glyph-name="Acircumflex" unicode="&#xc2;" horiz-adv-x="1243" 
d="M633 1683l-264 -178l-74 109l338 229l338 -227l-74 -111zM1014 0l-117 383h-547l-127 -383h-190l491 1407h236l450 -1407h-196zM406 547h442l-211 694z" />
    <glyph glyph-name="Atilde" unicode="&#xc3;" horiz-adv-x="1243" 
d="M518 1622q-62 0 -143 -66l-62 99q46 46 104.5 73t114.5 27q55 0 125 -37t107 -37q60 0 139 64l62 -98q-102 -99 -215 -99q-52 0 -123 37t-109 37zM1014 0l-117 383h-547l-127 -383h-190l491 1407h236l450 -1407h-196zM406 547h442l-211 694z" />
    <glyph glyph-name="Adieresis" unicode="&#xc4;" horiz-adv-x="1243" 
d="M459 1542q-46 0 -78.5 33t-32.5 80q0 44 32.5 76t78.5 32q44 0 76 -32t32 -76q0 -47 -32 -80t-76 -33zM813 1542q-46 0 -78.5 33t-32.5 80q0 44 32.5 76t78.5 32q43 0 75 -32t32 -76q0 -47 -32 -80t-75 -33zM1014 0l-117 383h-547l-127 -383h-190l491 1407h236l450 -1407
h-196zM406 547h442l-211 694z" />
    <glyph glyph-name="Aring" unicode="&#xc5;" horiz-adv-x="1243" 
d="M631 1481q-82 0 -139.5 50.5t-57.5 135.5q0 82 58 132t139 50q85 0 144 -50t59 -132q0 -85 -59 -135.5t-144 -50.5zM631 1759q-40 0 -66 -24.5t-26 -67.5t26.5 -68.5t65.5 -25.5q41 0 68.5 25.5t27.5 68.5t-27.5 67.5t-68.5 24.5zM1014 0l-117 383h-547l-127 -383h-190
l491 1407h236l450 -1407h-196zM406 547h442l-211 694z" />
    <glyph glyph-name="AE" unicode="&#xc6;" horiz-adv-x="1724" 
d="M1065 168h541v-168h-727v383h-459l-193 -383h-194l723 1407h815v-168h-506v-426h451v-168h-451v-477zM506 551h373v739z" />
    <glyph glyph-name="Ccedilla" unicode="&#xc7;" horiz-adv-x="1218" 
d="M1071 205l57 -162q-137 -54 -276 -66q39 -86 39 -178q0 -115 -79.5 -177t-229.5 -62v131q161 0 161 135q0 70 -38 154q-272 25 -430 216.5t-158 499.5q0 333 179 534.5t468 201.5q174 0 364 -72l-51 -162q-158 64 -305 64q-209 0 -335 -153t-126 -407
q0 -258 131.5 -406.5t348.5 -148.5q128 0 280 58z" />
    <glyph glyph-name="Egrave" unicode="&#xc8;" horiz-adv-x="1042" 
d="M662 1595l-66 -96l-332 227l78 115zM383 168h541v-168h-727v1407h692v-168h-506v-426h451v-168h-451v-477z" />
    <glyph glyph-name="Eacute" unicode="&#xc9;" horiz-adv-x="1042" 
d="M815 1726l-330 -227l-67 96l321 246zM383 168h541v-168h-727v1407h692v-168h-506v-426h451v-168h-451v-477z" />
    <glyph glyph-name="Ecircumflex" unicode="&#xca;" horiz-adv-x="1042" 
d="M545 1683l-264 -178l-74 109l338 229l338 -227l-74 -111zM383 168h541v-168h-727v1407h692v-168h-506v-426h451v-168h-451v-477z" />
    <glyph glyph-name="Edieresis" unicode="&#xcb;" horiz-adv-x="1042" 
d="M371 1542q-46 0 -78.5 33t-32.5 80q0 44 32.5 76t78.5 32q44 0 76 -32t32 -76q0 -47 -32 -80t-76 -33zM725 1542q-46 0 -78.5 33t-32.5 80q0 44 32.5 76t78.5 32q43 0 74.5 -32t31.5 -76q0 -47 -31.5 -80t-74.5 -33zM383 168h541v-168h-727v1407h692v-168h-506v-426h451
v-168h-451v-477z" />
    <glyph glyph-name="Igrave" unicode="&#xcc;" horiz-adv-x="579" 
d="M406 1595l-66 -96l-332 227l78 115zM383 1407v-1407h-186v1407h186z" />
    <glyph glyph-name="Iacute" unicode="&#xcd;" horiz-adv-x="579" 
d="M559 1726l-330 -227l-67 96l321 246zM383 1407v-1407h-186v1407h186z" />
    <glyph glyph-name="Icircumflex" unicode="&#xce;" horiz-adv-x="579" 
d="M289 1843l338 -227l-74 -111l-264 178l-264 -178l-74 109zM197 0v1407h186v-1407h-186z" />
    <glyph glyph-name="Idieresis" unicode="&#xcf;" horiz-adv-x="579" 
d="M139 1763q43 0 74 -30.5t31 -73.5q0 -45 -31 -77t-74 -32q-44 0 -74 31.5t-30 77.5q0 43 30 73.5t74 30.5zM436 1763q43 0 74 -30.5t31 -73.5q0 -45 -31 -77t-74 -32q-44 0 -74 31.5t-30 77.5q0 43 30 73.5t74 30.5zM383 1407v-1407h-186v1407h186z" />
    <glyph glyph-name="Eth" unicode="&#xd0;" horiz-adv-x="1417" 
d="M573 1411q352 0 538.5 -180t186.5 -518q0 -335 -192 -526t-531 -191q-185 0 -378 8v631h-152v145h152v625q164 6 376 6zM567 166q260 0 399.5 144.5t139.5 406.5q0 253 -136 388.5t-386 135.5q-47 0 -109 -1t-92 -1v-459h244v-145h-244v-465q126 -4 184 -4z" />
    <glyph glyph-name="Ntilde" unicode="&#xd1;" horiz-adv-x="1552" 
d="M655 1622q-62 0 -143 -66l-61 99q46 46 104.5 73t114.5 27q55 0 124.5 -37t106.5 -37q60 0 139 64l62 -98q-102 -99 -215 -99q-42 0 -83.5 18.5t-78.5 37t-70 18.5zM1174 1407h182v-1407h-207l-770 1155v-1155h-182v1407h233l744 -1114v1114z" />
    <glyph glyph-name="Ograve" unicode="&#xd2;" horiz-adv-x="1599" 
d="M922 1595l-66 -96l-332 227l78 115zM807 1432q201 0 354.5 -91t237.5 -256t84 -378t-84 -379.5t-238.5 -259.5t-355.5 -93t-358 93t-243.5 259t-86.5 378q0 210 86 375.5t243.5 258.5t360.5 93zM803 1262q-219 0 -354.5 -157t-135.5 -396q0 -159 60.5 -287t173 -202.5
t256.5 -74.5q217 0 350 160t133 404q0 157 -57.5 282t-168.5 198t-257 73z" />
    <glyph glyph-name="Oacute" unicode="&#xd3;" horiz-adv-x="1599" 
d="M1075 1726l-330 -227l-67 96l321 246zM807 1432q201 0 354.5 -91t237.5 -256t84 -378t-84 -379.5t-238.5 -259.5t-355.5 -93t-358 93t-243.5 259t-86.5 378q0 210 86 375.5t243.5 258.5t360.5 93zM803 1262q-219 0 -354.5 -157t-135.5 -396q0 -159 60.5 -287t173 -202.5
t256.5 -74.5q217 0 350 160t133 404q0 157 -57.5 282t-168.5 198t-257 73z" />
    <glyph glyph-name="Ocircumflex" unicode="&#xd4;" horiz-adv-x="1599" 
d="M805 1683l-264 -178l-74 109l338 229l338 -227l-74 -111zM807 1432q201 0 354.5 -91t237.5 -256t84 -378t-84 -379.5t-238.5 -259.5t-355.5 -93t-358 93t-243.5 259t-86.5 378q0 210 86 375.5t243.5 258.5t360.5 93zM803 145q217 0 350 160t133 404q0 157 -57.5 282
t-168.5 198t-257 73q-219 0 -354.5 -157t-135.5 -396q0 -159 60.5 -287t173 -202.5t256.5 -74.5z" />
    <glyph glyph-name="Otilde" unicode="&#xd5;" horiz-adv-x="1599" 
d="M549 1556l-62 99q46 46 105 73t115 27q55 0 124.5 -37t106.5 -37q60 0 139 64l62 -98q-102 -99 -215 -99q-52 0 -123 37t-109 37q-62 0 -143 -66zM807 1432q201 0 354.5 -91t237.5 -256t84 -378t-84 -379.5t-238.5 -259.5t-355.5 -93t-358 93t-243.5 259t-86.5 378
q0 210 86 375.5t243.5 258.5t360.5 93zM803 1262q-219 0 -354.5 -157t-135.5 -396q0 -159 60.5 -287t173 -202.5t256.5 -74.5q217 0 350 160t133 404q0 157 -57.5 282t-168.5 198t-257 73z" />
    <glyph glyph-name="Odieresis" unicode="&#xd6;" horiz-adv-x="1599" 
d="M631 1542q-46 0 -78.5 33t-32.5 80q0 44 32.5 76t78.5 32q44 0 76 -32t32 -76q0 -47 -32 -80t-76 -33zM985 1542q-46 0 -78.5 33t-32.5 80q0 44 32.5 76t78.5 32q43 0 75 -32t32 -76q0 -47 -32 -80t-75 -33zM807 1432q201 0 354.5 -91t237.5 -256t84 -378t-84 -379.5
t-238.5 -259.5t-355.5 -93t-358 93t-243.5 259t-86.5 378q0 210 86 375.5t243.5 258.5t360.5 93zM803 1262q-219 0 -354.5 -157t-135.5 -396q0 -159 60.5 -287t173 -202.5t256.5 -74.5q217 0 350 160t133 404q0 157 -57.5 282t-168.5 198t-257 73z" />
    <glyph glyph-name="multiply" unicode="&#xd7;" horiz-adv-x="1075" 
d="M971 817l-324 -325l324 -324l-109 -109l-323 324l-324 -324l-111 111l324 324l-324 323l109 111l324 -326l323 326z" />
    <glyph glyph-name="Oslash" unicode="&#xd8;" horiz-adv-x="1599" 
d="M1202 1313q133 -95 207 -252t74 -354q0 -213 -84 -379.5t-238.5 -259.5t-355.5 -93q-140 0 -264 48l-105 -205l-145 73l106 209q-132 96 -206 253.5t-74 351.5q0 210 86 375.5t243.5 258.5t360.5 93q137 0 250 -43l102 198l146 -74zM313 709q0 -134 45 -249t125 -192
l494 963q-82 31 -174 31q-219 0 -354.5 -157t-135.5 -396zM803 145q217 0 350 160t133 404q0 135 -44 248t-126 188l-493 -965q81 -35 180 -35z" />
    <glyph glyph-name="Ugrave" unicode="&#xd9;" horiz-adv-x="1404" 
d="M819 1595l-65 -96l-332 227l78 115zM365 1407v-936q0 -21 0.5 -34t3.5 -42t8.5 -49t17 -48.5t27.5 -48.5t42 -42.5t58.5 -36t78 -22.5t99.5 -9q70 0 125 14.5t90 35.5t60 54.5t36.5 60t18 64.5t7.5 56.5t1 46.5v936h187v-934q0 -28 -0.5 -47.5t-5.5 -61t-13.5 -73
t-27 -75t-44 -75.5t-66 -66t-91 -56t-121.5 -36t-156 -14q-84 0 -154.5 14t-121 36t-90.5 56t-65 66t-43 75.5t-26.5 74.5t-13.5 72.5t-5.5 60.5t-0.5 47v936h185z" />
    <glyph glyph-name="Uacute" unicode="&#xda;" horiz-adv-x="1404" 
d="M971 1726l-330 -227l-68 96l322 246zM365 1407v-936q0 -21 0.5 -34t3.5 -42t8.5 -49t17 -48.5t27.5 -48.5t42 -42.5t58.5 -36t78 -22.5t99.5 -9q70 0 125 14.5t90 35.5t60 54.5t36.5 60t18 64.5t7.5 56.5t1 46.5v936h187v-934q0 -28 -0.5 -47.5t-5.5 -61t-13.5 -73
t-27 -75t-44 -75.5t-66 -66t-91 -56t-121.5 -36t-156 -14q-84 0 -154.5 14t-121 36t-90.5 56t-65 66t-43 75.5t-26.5 74.5t-13.5 72.5t-5.5 60.5t-0.5 47v936h185z" />
    <glyph glyph-name="Ucircumflex" unicode="&#xdb;" horiz-adv-x="1404" 
d="M702 1683l-264 -178l-73 109l337 229l338 -227l-73 -111zM1038 1407h187v-934q0 -28 -0.5 -47.5t-5.5 -61t-13.5 -73t-27 -75t-44 -75.5t-66 -66t-91 -56t-121.5 -36t-156 -14q-84 0 -154.5 14t-121 36t-90.5 56t-65 66t-43 75.5t-26.5 74.5t-13.5 72.5t-5.5 60.5
t-0.5 47v936h185v-936q0 -21 0.5 -34t3.5 -42t8.5 -49t17 -48.5t27.5 -48.5t42 -42.5t58.5 -36t78 -22.5t99.5 -9q70 0 125 14.5t90 35.5t60 54.5t36.5 60t18 64.5t7.5 56.5t1 46.5v936z" />
    <glyph glyph-name="Udieresis" unicode="&#xdc;" horiz-adv-x="1404" 
d="M528 1542q-46 0 -78 33t-32 80q0 44 32 76t78 32q44 0 76.5 -32t32.5 -76q0 -47 -32 -80t-77 -33zM883 1542q-46 0 -78.5 33t-32.5 80q0 44 32.5 76t78.5 32q43 0 74.5 -32t31.5 -76q0 -47 -31.5 -80t-74.5 -33zM365 1407v-936q0 -21 0.5 -34t3.5 -42t8.5 -49t17 -48.5
t27.5 -48.5t42 -42.5t58.5 -36t78 -22.5t99.5 -9q70 0 125 14.5t90 35.5t60 54.5t36.5 60t18 64.5t7.5 56.5t1 46.5v936h187v-934q0 -28 -0.5 -47.5t-5.5 -61t-13.5 -73t-27 -75t-44 -75.5t-66 -66t-91 -56t-121.5 -36t-156 -14q-84 0 -154.5 14t-121 36t-90.5 56t-65 66
t-43 75.5t-26.5 74.5t-13.5 72.5t-5.5 60.5t-0.5 47v936h185z" />
    <glyph glyph-name="Yacute" unicode="&#xdd;" horiz-adv-x="1132" 
d="M836 1726l-330 -227l-68 96l322 246zM897 1407h201l-432 -840v-567h-187v567l-444 840h205l335 -668z" />
    <glyph glyph-name="Thorn" unicode="&#xde;" horiz-adv-x="1058" 
d="M383 1149q155 4 266.5 -14.5t195 -66t124.5 -133t41 -210.5q0 -127 -42.5 -215.5t-126 -139t-196 -70.5t-262.5 -15v-285h-186v1407h186v-258zM383 455q111 -6 188.5 2.5t137.5 37t89 85t29 143.5q0 68 -20 116.5t-58 77.5t-92.5 44.5t-123 18.5t-150.5 -1v-524z" />
    <glyph glyph-name="germandbls" unicode="&#xdf;" horiz-adv-x="1173" 
d="M565 1548q171 0 275 -103t104 -247q0 -61 -21 -116t-51 -94t-60.5 -74t-51.5 -72t-21 -72q0 -40 25.5 -76.5t64 -64t83.5 -63.5t83.5 -72t64 -92.5t25.5 -122.5q0 -132 -92 -217t-250 -85q-114 0 -237 33l35 156q113 -29 192 -29q78 0 126 36.5t48 102.5q0 40 -19 74.5
t-50 61t-68 52t-74 54t-68 61t-50 78t-19 99.5t21 103t50.5 86.5t59.5 73.5t51 80t21 91q0 79 -51.5 135.5t-143.5 56.5q-101 0 -158 -76.5t-57 -185.5v-1120h-178v1128q0 57 12.5 113t42 112.5t73 99t111.5 69t152 26.5z" />
    <glyph glyph-name="agrave" unicode="&#xe0;" horiz-adv-x="978" 
d="M627 1212l-76 -100l-328 231l88 125zM477 1001q99 0 170.5 -29t109 -80t54 -109t16.5 -128v-655h-178v111q-118 -136 -278 -136q-133 0 -210 77.5t-77 205.5q0 168 143 246.5t422 81.5v51q0 32 -2.5 56t-13.5 55t-30 50.5t-56 33.5t-88 14q-123 0 -266 -70l-56 144
q166 81 340 81zM420 133q129 0 229 129v176q-203 -1 -293 -41t-90 -127q0 -62 41 -99.5t113 -37.5z" />
    <glyph glyph-name="aacute" unicode="&#xe1;" horiz-adv-x="978" 
d="M725 1350l-326 -234l-77 103l315 254zM477 1001q99 0 170.5 -29t109 -80t54 -109t16.5 -128v-655h-178v111q-118 -136 -278 -136q-133 0 -210 77.5t-77 205.5q0 168 143 246.5t422 81.5v51q0 32 -2.5 56t-13.5 55t-30 50.5t-56 33.5t-88 14q-123 0 -266 -70l-56 144
q166 81 340 81zM420 133q129 0 229 129v176q-203 -1 -293 -41t-90 -127q0 -62 41 -99.5t113 -37.5z" />
    <glyph glyph-name="acircumflex" unicode="&#xe2;" horiz-adv-x="978" 
d="M479 1292l-225 -164l-70 101l297 233l295 -233l-71 -101zM477 1001q99 0 170.5 -29t109 -80t54 -109t16.5 -128v-655h-178v111q-118 -136 -278 -136q-133 0 -210 77.5t-77 205.5q0 168 143 246.5t422 81.5v51q0 32 -2.5 56t-13.5 55t-30 50.5t-56 33.5t-88 14
q-123 0 -266 -70l-56 144q166 81 340 81zM420 133q129 0 229 129v176q-203 -1 -293 -41t-90 -127q0 -62 41 -99.5t113 -37.5z" />
    <glyph glyph-name="atilde" unicode="&#xe3;" horiz-adv-x="978" 
d="M356 1241q-63 0 -141 -65l-61 98q106 100 213 100q56 0 128 -37t111 -37q62 0 137 66l62 -100q-110 -99 -207 -99q-57 0 -127.5 37t-114.5 37zM477 1001q99 0 170.5 -29t109 -80t54 -109t16.5 -128v-655h-178v111q-118 -136 -278 -136q-133 0 -210 77.5t-77 205.5
q0 168 143 246.5t422 81.5v51q0 32 -2.5 56t-13.5 55t-30 50.5t-56 33.5t-88 14q-123 0 -266 -70l-56 144q166 81 340 81zM420 133q129 0 229 129v176q-203 -1 -293 -41t-90 -127q0 -62 41 -99.5t113 -37.5z" />
    <glyph glyph-name="adieresis" unicode="&#xe4;" horiz-adv-x="978" 
d="M303 1184q-44 0 -73 30.5t-29 75.5q0 42 29.5 72.5t72.5 30.5q41 0 72 -31t31 -72q0 -44 -30.5 -75t-72.5 -31zM662 1184q-44 0 -74.5 31t-30.5 75q0 42 30.5 72.5t74.5 30.5q41 0 71.5 -31t30.5 -72q0 -44 -30 -75t-72 -31zM477 1001q99 0 170.5 -29t109 -80t54 -109
t16.5 -128v-655h-178v111q-118 -136 -278 -136q-133 0 -210 77.5t-77 205.5q0 168 143 246.5t422 81.5v51q0 32 -2.5 56t-13.5 55t-30 50.5t-56 33.5t-88 14q-123 0 -266 -70l-56 144q166 81 340 81zM420 133q129 0 229 129v176q-203 -1 -293 -41t-90 -127q0 -62 41 -99.5
t113 -37.5z" />
    <glyph glyph-name="aring" unicode="&#xe5;" horiz-adv-x="978" 
d="M481 1100q-78 0 -137 49t-59 137q0 84 59.5 132t136.5 48q80 0 141.5 -48t61.5 -132q0 -88 -61 -137t-142 -49zM481 1370q-34 0 -59 -23t-25 -61q0 -42 24.5 -65t59.5 -23q38 0 64 23t26 65q0 38 -26.5 61t-63.5 23zM477 1001q99 0 170.5 -29t109 -80t54 -109t16.5 -128
v-655h-178v111q-118 -136 -278 -136q-133 0 -210 77.5t-77 205.5q0 168 143 246.5t422 81.5v51q0 32 -2.5 56t-13.5 55t-30 50.5t-56 33.5t-88 14q-123 0 -266 -70l-56 144q166 81 340 81zM420 133q129 0 229 129v176q-203 -1 -293 -41t-90 -127q0 -62 41 -99.5t113 -37.5z
" />
    <glyph glyph-name="ae" unicode="&#xe6;" horiz-adv-x="1538" 
d="M1090 999q131 0 215.5 -73.5t115.5 -196t17 -285.5h-604q10 -144 76 -229.5t196 -85.5q129 0 258 68l57 -140q-161 -82 -334 -82q-129 0 -219.5 60t-138.5 170q-120 -230 -348 -230q-136 0 -214.5 78.5t-78.5 206.5q0 166 137.5 241.5t427.5 80.5v65q0 197 -188 197
q-134 0 -272 -66l-50 140q159 81 332 81q219 0 301 -168q113 168 314 168zM1079 852q-105 0 -166 -72t-75 -196h426q-3 268 -185 268zM420 113q74 0 138.5 53t94.5 141v137q-210 -3 -298.5 -45t-88.5 -131q0 -67 42.5 -111t111.5 -44z" />
    <glyph glyph-name="ccedilla" unicode="&#xe7;" horiz-adv-x="929" 
d="M885 59q-114 -60 -252 -75q39 -107 39 -185q0 -115 -80 -177t-230 -62v131q162 0 162 135q0 67 -39 156q-191 20 -290 156.5t-99 344.5q0 229 125.5 373.5t345.5 144.5q150 0 281 -61l-47 -154q-126 50 -228 50q-76 0 -134 -27.5t-92 -75.5t-51 -108.5t-17 -130.5
q0 -54 9.5 -103t31 -95t54 -79.5t83 -53.5t112.5 -20q119 0 254 64z" />
    <glyph glyph-name="egrave" unicode="&#xe8;" horiz-adv-x="1030" 
d="M694 1212l-76 -100l-327 231l88 125zM547 999q112 0 193 -41.5t125 -117t60 -174.5t5 -222h-654q9 -158 83.5 -236.5t222.5 -78.5q133 0 272 68l59 -140q-164 -82 -352 -82q-226 0 -345.5 129.5t-119.5 370.5q0 242 118 383t333 141zM539 852q-223 0 -258 -258h475
q-5 132 -57.5 195t-159.5 63z" />
    <glyph glyph-name="eacute" unicode="&#xe9;" horiz-adv-x="1030" 
d="M793 1350l-326 -234l-78 103l316 254zM547 999q112 0 193 -41.5t125 -117t60 -174.5t5 -222h-654q9 -158 83.5 -236.5t222.5 -78.5q133 0 272 68l59 -140q-164 -82 -352 -82q-226 0 -345.5 129.5t-119.5 370.5q0 242 118 383t333 141zM539 852q-223 0 -258 -258h475
q-5 132 -57.5 195t-159.5 63z" />
    <glyph glyph-name="ecircumflex" unicode="&#xea;" horiz-adv-x="1030" 
d="M547 1292l-225 -164l-70 101l297 233l295 -233l-72 -101zM547 999q112 0 193 -41.5t125 -117t60 -174.5t5 -222h-654q9 -158 83.5 -236.5t222.5 -78.5q133 0 272 68l59 -140q-164 -82 -352 -82q-226 0 -345.5 129.5t-119.5 370.5q0 242 118 383t333 141zM539 852
q-223 0 -258 -258h475q-5 132 -57.5 195t-159.5 63z" />
    <glyph glyph-name="edieresis" unicode="&#xeb;" horiz-adv-x="1030" 
d="M369 1184q-44 0 -73.5 30.5t-29.5 75.5q0 42 29.5 72.5t73.5 30.5q41 0 71.5 -31t30.5 -72q0 -44 -30 -75t-72 -31zM727 1184q-44 0 -74 31t-30 75q0 42 30 72.5t74 30.5q41 0 71.5 -31t30.5 -72q0 -44 -30 -75t-72 -31zM547 999q112 0 193 -41.5t125 -117t60 -174.5
t5 -222h-654q9 -158 83.5 -236.5t222.5 -78.5q133 0 272 68l59 -140q-164 -82 -352 -82q-226 0 -345.5 129.5t-119.5 370.5q0 242 118 383t333 141zM539 852q-223 0 -258 -258h475q-5 132 -57.5 195t-159.5 63z" />
    <glyph glyph-name="igrave" unicode="&#xec;" horiz-adv-x="526" 
d="M410 1212l-76 -100l-328 231l88 125zM354 977v-977h-180v977h180z" />
    <glyph glyph-name="iacute" unicode="&#xed;" horiz-adv-x="526" 
d="M508 1350l-326 -234l-78 103l316 254zM354 977v-977h-180v977h180z" />
    <glyph glyph-name="icircumflex" unicode="&#xee;" horiz-adv-x="526" 
d="M264 1462l295 -233l-72 -101l-225 164l-225 -164l-70 101zM174 0v977h180v-977h-180z" />
    <glyph glyph-name="idieresis" unicode="&#xef;" horiz-adv-x="526" 
d="M113 1186q-43 0 -73 30t-30 74t30 75.5t73 31.5q44 0 75 -31.5t31 -75.5t-31 -74t-75 -30zM412 1186q-45 0 -76 30t-31 74t31.5 75.5t75.5 31.5q43 0 73.5 -31.5t30.5 -75.5t-30.5 -74t-73.5 -30zM354 977v-977h-180v977h180z" />
    <glyph glyph-name="eth" unicode="&#xf0;" horiz-adv-x="1118" 
d="M735 1276q287 -313 287 -723q0 -279 -128 -428.5t-333 -149.5t-335 144t-130 375q0 219 115.5 358t290.5 139q99 0 179.5 -44.5t135.5 -121.5q-58 210 -225 383l-260 -121l-47 105l219 102q-90 77 -195 140l88 112q133 -78 252 -184l232 106l45 -104zM563 135
q127 0 202 96.5t75 251.5q0 165 -83.5 260t-209.5 95q-122 0 -194 -92.5t-72 -249.5q0 -167 78 -264t204 -97z" />
    <glyph glyph-name="ntilde" unicode="&#xf1;" horiz-adv-x="1167" 
d="M469 1241q-63 0 -141 -65l-62 98q106 100 213 100q56 0 128.5 -37t111.5 -37q62 0 137 66l62 -100q-110 -99 -207 -99q-57 0 -127.5 37t-114.5 37zM711 1001q61 0 109 -16t78.5 -39t52.5 -60.5t32 -67.5t16 -74t6.5 -66t0.5 -57v-621h-181v596q0 27 -0.5 42t-4 44
t-10 46.5t-19.5 39.5t-32 35t-48.5 22t-67.5 9q-163 0 -289 -162v-672h-180v977h180v-141q155 165 357 165z" />
    <glyph glyph-name="ograve" unicode="&#xf2;" horiz-adv-x="1132" 
d="M713 1212l-76 -100l-328 231l88 125zM565 -25q-215 0 -342 139.5t-127 374.5q0 236 127 375.5t342 139.5q217 0 344 -139.5t127 -375.5q0 -235 -127.5 -374.5t-343.5 -139.5zM565 135q131 0 209 96.5t78 257.5q0 162 -78 258.5t-209 96.5q-130 0 -207 -96t-77 -259
q0 -162 77 -258t207 -96z" />
    <glyph glyph-name="oacute" unicode="&#xf3;" horiz-adv-x="1132" 
d="M811 1350l-326 -234l-77 103l315 254zM565 -25q-215 0 -342 139.5t-127 374.5q0 236 127 375.5t342 139.5q217 0 344 -139.5t127 -375.5q0 -235 -127.5 -374.5t-343.5 -139.5zM565 135q131 0 209 96.5t78 257.5q0 162 -78 258.5t-209 96.5q-130 0 -207 -96t-77 -259
q0 -162 77 -258t207 -96z" />
    <glyph glyph-name="ocircumflex" unicode="&#xf4;" horiz-adv-x="1132" 
d="M565 1292l-225 -164l-70 101l297 233l295 -233l-71 -101zM565 1004q217 0 344 -139.5t127 -375.5q0 -235 -127.5 -374.5t-343.5 -139.5q-215 0 -342 139.5t-127 374.5q0 236 127 375.5t342 139.5zM565 135q131 0 209 96.5t78 257.5q0 162 -78 258.5t-209 96.5
q-130 0 -207 -96t-77 -259q0 -162 77 -258t207 -96z" />
    <glyph glyph-name="otilde" unicode="&#xf5;" horiz-adv-x="1132" 
d="M301 1176l-61 98q106 100 213 100q56 0 128 -37t111 -37q62 0 137 66l62 -100q-110 -99 -207 -99q-57 0 -127.5 37t-114.5 37q-63 0 -141 -65zM565 -25q-215 0 -342 139.5t-127 374.5q0 236 127 375.5t342 139.5q217 0 344 -139.5t127 -375.5q0 -235 -127.5 -374.5
t-343.5 -139.5zM565 135q131 0 209 96.5t78 257.5q0 162 -78 258.5t-209 96.5q-130 0 -207 -96t-77 -259q0 -162 77 -258t207 -96z" />
    <glyph glyph-name="odieresis" unicode="&#xf6;" horiz-adv-x="1132" 
d="M387 1393q41 0 71.5 -31t30.5 -72q0 -44 -30 -75t-72 -31q-44 0 -73 30.5t-29 75.5q0 42 29.5 72.5t72.5 30.5zM745 1393q41 0 72 -31t31 -72q0 -44 -30.5 -75t-72.5 -31q-44 0 -74 31t-30 75q0 42 30 72.5t74 30.5zM565 -25q-215 0 -342 139.5t-127 374.5
q0 236 127 375.5t342 139.5q217 0 344 -139.5t127 -375.5q0 -235 -127.5 -374.5t-343.5 -139.5zM565 135q131 0 209 96.5t78 257.5q0 162 -78 258.5t-209 96.5q-130 0 -207 -96t-77 -259q0 -162 77 -258t207 -96z" />
    <glyph glyph-name="divide" unicode="&#xf7;" horiz-adv-x="1075" 
d="M537 969q45 0 78.5 -33.5t33.5 -77.5q0 -47 -33 -80t-79 -33q-45 0 -77 33t-32 80q0 44 32.5 77.5t76.5 33.5zM1010 569v-149h-944v149h944zM537 244q46 0 79 -33.5t33 -79.5q0 -47 -33 -80t-79 -33q-45 0 -77 33t-32 80q0 46 32.5 79.5t76.5 33.5z" />
    <glyph glyph-name="oslash" unicode="&#xf8;" horiz-adv-x="1132" 
d="M868 903q81 -67 124.5 -173t43.5 -241q0 -235 -127.5 -374.5t-343.5 -139.5q-112 0 -196 37l-74 -131l-117 62l78 139q-160 141 -160 407q0 236 127 375.5t342 139.5q95 0 189 -33l73 133l119 -62zM281 489q0 -151 67 -243l324 577q-50 21 -107 21q-130 0 -207 -96
t-77 -259zM565 135q131 0 209 96.5t78 257.5q0 158 -74 254l-327 -583q55 -25 114 -25z" />
    <glyph glyph-name="ugrave" unicode="&#xf9;" horiz-adv-x="1163" 
d="M721 1212l-76 -100l-328 231l89 125zM809 977h180v-977h-180v139q-143 -164 -348 -164q-48 0 -89 9t-69.5 23t-51.5 36.5t-37.5 43.5t-25 50t-15.5 49.5t-7.5 49t-3 41.5t-0.5 34v666h180v-637q0 -197 168 -197q154 0 299 168v666z" />
    <glyph glyph-name="uacute" unicode="&#xfa;" horiz-adv-x="1163" 
d="M819 1350l-325 -234l-78 103l315 254zM809 977h180v-977h-180v139q-143 -164 -348 -164q-48 0 -89 9t-69.5 23t-51.5 36.5t-37.5 43.5t-25 50t-15.5 49.5t-7.5 49t-3 41.5t-0.5 34v666h180v-637q0 -197 168 -197q154 0 299 168v666z" />
    <glyph glyph-name="ucircumflex" unicode="&#xfb;" horiz-adv-x="1163" 
d="M573 1292l-225 -164l-69 101l296 233l295 -233l-71 -101zM809 977h180v-977h-180v139q-143 -164 -348 -164q-48 0 -89 9t-69.5 23t-51.5 36.5t-37.5 43.5t-25 50t-15.5 49.5t-7.5 49t-3 41.5t-0.5 34v666h180v-637q0 -197 168 -197q154 0 299 168v666z" />
    <glyph glyph-name="udieresis" unicode="&#xfc;" horiz-adv-x="1163" 
d="M397 1184q-44 0 -73 30.5t-29 75.5q0 42 29.5 72.5t72.5 30.5q41 0 72 -31t31 -72q0 -44 -30.5 -75t-72.5 -31zM756 1184q-44 0 -74.5 31t-30.5 75q0 42 30.5 72.5t74.5 30.5q41 0 71.5 -31t30.5 -72q0 -44 -30 -75t-72 -31zM809 977h180v-977h-180v139
q-143 -164 -348 -164q-48 0 -89 9t-69.5 23t-51.5 36.5t-37.5 43.5t-25 50t-15.5 49.5t-7.5 49t-3 41.5t-0.5 34v666h180v-637q0 -197 168 -197q154 0 299 168v666z" />
    <glyph glyph-name="yacute" unicode="&#xfd;" horiz-adv-x="999" 
d="M743 1350l-325 -234l-78 103l315 254zM784 977h191l-590 -1489h-195l226 541l-391 948h194l287 -746z" />
    <glyph glyph-name="thorn" unicode="&#xfe;" horiz-adv-x="1136" 
d="M670 1001q160 0 255 -131.5t95 -353.5q0 -251 -123 -396t-336 -145q-90 0 -209 29v-516h-178v2048h178v-702q62 81 145 124t173 43zM545 139q80 0 139 31.5t91 86t46.5 117.5t14.5 136q0 151 -57.5 235t-162.5 84q-74 0 -143 -42.5t-121 -118.5v-494q107 -35 193 -35z
" />
    <glyph glyph-name="ydieresis" unicode="&#xff;" horiz-adv-x="999" 
d="M319 1184q-44 0 -73 30.5t-29 75.5q0 42 29.5 72.5t72.5 30.5q41 0 72 -31t31 -72q0 -44 -30.5 -75t-72.5 -31zM678 1184q-44 0 -74.5 31t-30.5 75q0 42 30.5 72.5t74.5 30.5q41 0 71.5 -31t30.5 -72q0 -44 -30 -75t-72 -31zM784 977h191l-590 -1489h-195l226 541
l-391 948h194l287 -746z" />
    <glyph glyph-name="Amacron" unicode="&#x100;" horiz-adv-x="1243" 
d="M889 1720v-129h-514v129h514zM1014 0l-117 383h-547l-127 -383h-190l491 1407h236l450 -1407h-196zM406 547h442l-211 694z" />
    <glyph glyph-name="amacron" unicode="&#x101;" horiz-adv-x="978" 
d="M737 1339v-129h-514v129h514zM477 1001q99 0 170.5 -29t109 -80t54 -109t16.5 -128v-655h-178v111q-118 -136 -278 -136q-133 0 -210 77.5t-77 205.5q0 168 143 246.5t422 81.5v51q0 32 -2.5 56t-13.5 55t-30 50.5t-56 33.5t-88 14q-123 0 -266 -70l-56 144
q166 81 340 81zM420 133q129 0 229 129v176q-203 -1 -293 -41t-90 -127q0 -62 41 -99.5t113 -37.5z" />
    <glyph glyph-name="Abreve" unicode="&#x102;" horiz-adv-x="1243" 
d="M633 1511q-129 0 -208 74t-79 195h141q0 -67 39.5 -105.5t106.5 -38.5t105 38t38 106h144q0 -121 -79 -195t-208 -74zM1014 0l-117 383h-547l-127 -383h-190l491 1407h236l450 -1407h-196zM406 547h442l-211 694z" />
    <glyph glyph-name="abreve" unicode="&#x103;" horiz-adv-x="978" 
d="M481 1133q-131 0 -211 77t-80 203h142q0 -73 40 -114.5t109 -41.5q71 0 110.5 40.5t39.5 115.5h143q0 -126 -81 -203t-212 -77zM477 1001q99 0 170.5 -29t109 -80t54 -109t16.5 -128v-655h-178v111q-118 -136 -278 -136q-133 0 -210 77.5t-77 205.5q0 168 143 246.5
t422 81.5v51q0 32 -2.5 56t-13.5 55t-30 50.5t-56 33.5t-88 14q-123 0 -266 -70l-56 144q166 81 340 81zM420 133q129 0 229 129v176q-203 -1 -293 -41t-90 -127q0 -62 41 -99.5t113 -37.5z" />
    <glyph glyph-name="Aogonek" unicode="&#x104;" horiz-adv-x="1243" 
d="M1100 -414q31 0 80 17l28 -111q-64 -29 -141 -29q-102 0 -162.5 59t-60.5 161q0 78 43 161t125 160l-115 379h-547l-127 -383h-190l491 1407h236l450 -1407h-49q-78 -69 -124 -146.5t-46 -144.5q0 -58 28.5 -90.5t80.5 -32.5zM406 547h442l-211 694z" />
    <glyph glyph-name="aogonek" unicode="&#x105;" horiz-adv-x="978" 
d="M768 0q-78 -69 -124 -146.5t-46 -144.5q0 -58 28.5 -90.5t80.5 -32.5q30 0 79 17l29 -111q-64 -29 -141 -29q-102 0 -162.5 59t-60.5 161q0 85 50.5 175.5t147.5 172.5v80q-118 -136 -278 -136q-133 0 -210 77.5t-77 205.5q0 168 143 246.5t422 81.5v51q0 32 -2.5 56
t-13.5 55t-30 50.5t-56 33.5t-88 14q-123 0 -266 -70l-56 144q166 81 340 81q99 0 170.5 -29t109 -80t54 -109t16.5 -128v-655h-59zM420 133q129 0 229 129v176q-203 -1 -293 -41t-90 -127q0 -62 41 -99.5t113 -37.5z" />
    <glyph glyph-name="Cacute" unicode="&#x106;" horiz-adv-x="1218" 
d="M1014 1726l-330 -227l-68 96l322 246zM1077 1198q-158 64 -305 64q-209 0 -335 -153t-126 -407q0 -258 131.5 -406.5t348.5 -148.5q128 0 280 58l57 -162q-176 -68 -348 -68q-305 0 -484 195t-179 526q0 333 179 534.5t468 201.5q174 0 364 -72z" />
    <glyph glyph-name="cacute" unicode="&#x107;" horiz-adv-x="929" 
d="M784 1350l-325 -234l-78 103l315 254zM801 786q-126 50 -228 50q-76 0 -134 -27.5t-92 -75.5t-51 -108.5t-17 -130.5q0 -54 9.5 -103t31 -95t54 -79.5t83 -53.5t112.5 -20q119 0 254 64l62 -148q-67 -36 -157.5 -59t-180.5 -23q-148 0 -251.5 67.5t-151.5 179.5t-48 259
q0 229 125.5 373.5t345.5 144.5q150 0 281 -61z" />
    <glyph glyph-name="Ccircumflex" unicode="&#x108;" horiz-adv-x="1218" 
d="M745 1683l-264 -178l-73 109l337 229l338 -227l-73 -111zM791 147q128 0 280 58l57 -162q-176 -68 -348 -68q-305 0 -484 195t-179 526q0 333 179 534.5t468 201.5q174 0 364 -72l-51 -162q-158 64 -305 64q-209 0 -335 -153t-126 -407q0 -258 131.5 -406.5t348.5 -148.5
z" />
    <glyph glyph-name="ccircumflex" unicode="&#x109;" horiz-adv-x="929" 
d="M539 1292l-226 -164l-69 101l297 233l295 -233l-72 -101zM823 207l62 -148q-67 -36 -157.5 -59t-180.5 -23q-148 0 -251.5 67.5t-151.5 179.5t-48 259q0 229 125.5 373.5t345.5 144.5q150 0 281 -61l-47 -154q-126 50 -228 50q-76 0 -134 -27.5t-92 -75.5t-51 -108.5
t-17 -130.5q0 -54 9.5 -103t31 -95t54 -79.5t83 -53.5t112.5 -20q119 0 254 64z" />
    <glyph glyph-name="Cdotaccent" unicode="&#x10a;" horiz-adv-x="1218" 
d="M748 1542q-46 0 -78.5 33t-32.5 80q0 44 32.5 76t78.5 32q44 0 76 -32t32 -76q0 -47 -32 -80t-76 -33zM1077 1198q-158 64 -305 64q-209 0 -335 -153t-126 -407q0 -258 131.5 -406.5t348.5 -148.5q128 0 280 58l57 -162q-176 -68 -348 -68q-305 0 -484 195t-179 526
q0 333 179 534.5t468 201.5q174 0 364 -72z" />
    <glyph glyph-name="cdotaccent" unicode="&#x10b;" horiz-adv-x="929" 
d="M539 1401q47 0 81.5 -35t34.5 -84t-34.5 -84t-81.5 -35q-48 0 -82.5 35t-34.5 84t34.5 84t82.5 35zM801 786q-126 50 -228 50q-76 0 -134 -27.5t-92 -75.5t-51 -108.5t-17 -130.5q0 -54 9.5 -103t31 -95t54 -79.5t83 -53.5t112.5 -20q119 0 254 64l62 -148
q-67 -36 -157.5 -59t-180.5 -23q-148 0 -251.5 67.5t-151.5 179.5t-48 259q0 229 125.5 373.5t345.5 144.5q150 0 281 -61z" />
    <glyph glyph-name="Ccaron" unicode="&#x10c;" horiz-adv-x="1218" 
d="M1065 1724l-322 -229l-321 229l78 107l243 -182l244 184zM791 147q128 0 280 58l57 -162q-176 -68 -348 -68q-305 0 -484 195t-179 526q0 333 179 534.5t468 201.5q174 0 364 -72l-51 -162q-158 64 -305 64q-209 0 -335 -153t-126 -407q0 -258 131.5 -406.5t348.5 -148.5
z" />
    <glyph glyph-name="ccaron" unicode="&#x10d;" horiz-adv-x="929" 
d="M823 1362l-284 -252l-279 252l84 98l197 -184l196 182zM823 207l62 -148q-67 -36 -157.5 -59t-180.5 -23q-148 0 -251.5 67.5t-151.5 179.5t-48 259q0 229 125.5 373.5t345.5 144.5q150 0 281 -61l-47 -154q-126 50 -228 50q-76 0 -134 -27.5t-92 -75.5t-51 -108.5
t-17 -130.5q0 -54 9.5 -103t31 -95t54 -79.5t83 -53.5t112.5 -20q119 0 254 64z" />
    <glyph glyph-name="Dcaron" unicode="&#x10e;" horiz-adv-x="1417" 
d="M958 1724l-321 -229l-322 229l78 107l244 -182l244 184zM573 1411q352 0 538.5 -180t186.5 -518q0 -335 -192 -526t-531 -191q-185 0 -378 8v1401q164 6 376 6zM567 166q260 0 399.5 144.5t139.5 406.5q0 253 -136 388.5t-386 135.5q-47 0 -109 -1t-92 -1v-1069
q126 -4 184 -4z" />
    <glyph glyph-name="dcaron" unicode="&#x10f;" horiz-adv-x="1136" 
d="M782 983v553h181v-1536h-181v127q-154 -147 -315 -147q-162 0 -259 131.5t-97 343.5q0 155 52 278.5t157.5 199t248.5 75.5q88 0 213 -25zM1047 1536h135l-21 -430h-114v430zM522 147q137 0 260 150v516q-109 31 -194 31q-97 0 -165 -54t-98 -136t-30 -183
q0 -139 58.5 -231.5t168.5 -92.5z" />
    <glyph glyph-name="Dcroat" unicode="&#x110;" horiz-adv-x="1417" 
d="M573 1411q352 0 538.5 -180t186.5 -518q0 -335 -192 -526t-531 -191q-185 0 -378 8v631h-152v145h152v625q164 6 376 6zM567 166q260 0 399.5 144.5t139.5 406.5q0 253 -136 388.5t-386 135.5q-47 0 -109 -1t-92 -1v-459h244v-145h-244v-465q126 -4 184 -4z" />
    <glyph glyph-name="dcroat" unicode="&#x111;" horiz-adv-x="1136" 
d="M1083 1321v-117h-120v-1204h-181v127q-154 -147 -315 -147q-162 0 -259 131.5t-97 343.5q0 155 52 278.5t157.5 199t248.5 75.5q88 0 213 -25v221h-311v117h311v215h181v-215h120zM522 147q137 0 260 150v516q-109 31 -194 31q-97 0 -165 -54t-98 -136t-30 -183
q0 -139 58.5 -231.5t168.5 -92.5z" />
    <glyph glyph-name="Emacron" unicode="&#x112;" horiz-adv-x="1042" 
d="M801 1720v-129h-514v129h514zM383 168h541v-168h-727v1407h692v-168h-506v-426h451v-168h-451v-477z" />
    <glyph glyph-name="emacron" unicode="&#x113;" horiz-adv-x="1030" 
d="M805 1339v-129h-514v129h514zM547 999q112 0 193 -41.5t125 -117t60 -174.5t5 -222h-654q9 -158 83.5 -236.5t222.5 -78.5q133 0 272 68l59 -140q-164 -82 -352 -82q-226 0 -345.5 129.5t-119.5 370.5q0 242 118 383t333 141zM539 852q-223 0 -258 -258h475
q-5 132 -57.5 195t-159.5 63z" />
    <glyph glyph-name="Edotaccent" unicode="&#x116;" horiz-adv-x="1042" 
d="M547 1542q-46 0 -78.5 33t-32.5 80q0 44 32.5 76t78.5 32q44 0 76 -32t32 -76q0 -47 -32 -80t-76 -33zM383 168h541v-168h-727v1407h692v-168h-506v-426h451v-168h-451v-477z" />
    <glyph glyph-name="edotaccent" unicode="&#x117;" horiz-adv-x="1030" 
d="M547 1163q-48 0 -82.5 35t-34.5 84t34.5 84t82.5 35t82.5 -35t34.5 -84t-34.5 -84t-82.5 -35zM547 999q112 0 193 -41.5t125 -117t60 -174.5t5 -222h-654q9 -158 83.5 -236.5t222.5 -78.5q133 0 272 68l59 -140q-164 -82 -352 -82q-226 0 -345.5 129.5t-119.5 370.5
q0 242 118 383t333 141zM539 852q-223 0 -258 -258h475q-5 132 -57.5 195t-159.5 63z" />
    <glyph glyph-name="Eogonek" unicode="&#x118;" horiz-adv-x="1042" 
d="M932 -397l29 -111q-64 -29 -142 -29q-102 0 -162.5 59t-60.5 161q0 77 42 159.5t122 157.5h-563v1407h692v-168h-506v-426h451v-168h-451v-477h541v-168h-11q-78 -69 -124 -146.5t-46 -144.5q0 -58 28.5 -90.5t80.5 -32.5q31 0 80 17z" />
    <glyph glyph-name="eogonek" unicode="&#x119;" horiz-adv-x="1030" 
d="M547 999q112 0 193 -41.5t125 -117t60 -174.5t5 -222h-654q9 -158 83.5 -236.5t222.5 -78.5q133 0 272 68l59 -140l-12 -6q-115 -57 -170 -137t-55 -170q0 -66 30.5 -104.5t86.5 -38.5q40 0 75 14l33 -119q-76 -26 -145 -26q-101 0 -164.5 66t-63.5 175q0 153 127 271
q-54 -7 -94 -7q-226 0 -345.5 129.5t-119.5 370.5q0 242 118 383t333 141zM539 852q-223 0 -258 -258h475q-5 132 -57.5 195t-159.5 63z" />
    <glyph glyph-name="Ecaron" unicode="&#x11a;" horiz-adv-x="1042" 
d="M864 1724l-321 -229l-322 229l78 107l244 -182l243 184zM383 168h541v-168h-727v1407h692v-168h-506v-426h451v-168h-451v-477z" />
    <glyph glyph-name="ecaron" unicode="&#x11b;" horiz-adv-x="1030" 
d="M831 1362l-284 -252l-279 252l84 98l197 -184l196 182zM547 999q112 0 193 -41.5t125 -117t60 -174.5t5 -222h-654q9 -158 83.5 -236.5t222.5 -78.5q133 0 272 68l59 -140q-164 -82 -352 -82q-226 0 -345.5 129.5t-119.5 370.5q0 242 118 383t333 141zM539 852
q-223 0 -258 -258h475q-5 132 -57.5 195t-159.5 63z" />
    <glyph glyph-name="Gcircumflex" unicode="&#x11c;" horiz-adv-x="1396" 
d="M772 1683l-264 -178l-74 109l338 229l338 -227l-74 -111zM1034 662h187v-617q-79 -31 -195.5 -51.5t-216.5 -20.5q-317 0 -499.5 196.5t-182.5 541.5q0 176 54 315.5t147.5 227t216 133t264.5 45.5q192 0 393 -62l-45 -164q-192 56 -338 56q-228 0 -362.5 -141
t-134.5 -412q0 -141 39.5 -251t108.5 -177t156.5 -101.5t188.5 -34.5q97 0 219 29v488z" />
    <glyph glyph-name="gcircumflex" unicode="&#x11d;" horiz-adv-x="1048" 
d="M500 1292l-226 -164l-69 101l297 233l295 -233l-72 -101zM1006 840h-101q-40 0 -92 10q61 -89 61 -201q0 -149 -105 -244.5t-271 -95.5q-68 0 -133 19q-64 -55 -64 -113q0 -43 32.5 -68t96.5 -26l219 -6q162 -5 248 -74t86 -197q0 -165 -131 -273t-350 -108
q-189 0 -306.5 86.5t-117.5 225.5q0 142 135 262q-74 55 -74 147q0 100 97 209q-59 45 -92 112t-33 146q0 151 109.5 250.5t273.5 99.5q80 0 147 -24h365v-137zM494 449q99 0 161 56t62 146q0 91 -62 149t-161 58t-161.5 -58t-62.5 -149q0 -90 62.5 -146t161.5 -56zM606 -20
l-225 6q-19 0 -29 2q-112 -82 -112 -189q0 -87 74 -138.5t198 -51.5q136 0 220.5 61.5t84.5 159.5q0 144 -211 150z" />
    <glyph glyph-name="Gbreve" unicode="&#x11e;" horiz-adv-x="1396" 
d="M772 1511q-129 0 -208 74t-79 195h142q0 -67 39.5 -105.5t105.5 -38.5q67 0 105 38t38 106h144q0 -121 -79 -195t-208 -74zM1034 662h187v-617q-79 -31 -195.5 -51.5t-216.5 -20.5q-317 0 -499.5 196.5t-182.5 541.5q0 176 54 315.5t147.5 227t216 133t264.5 45.5
q192 0 393 -62l-45 -164q-192 56 -338 56q-228 0 -362.5 -141t-134.5 -412q0 -141 39.5 -251t108.5 -177t156.5 -101.5t188.5 -34.5q97 0 219 29v488z" />
    <glyph glyph-name="gbreve" unicode="&#x11f;" horiz-adv-x="1048" 
d="M502 1133q-131 0 -211 77t-80 203h141q0 -73 40.5 -114.5t109.5 -41.5q71 0 110 40.5t39 115.5h144q0 -126 -81 -203t-212 -77zM1006 840h-101q-40 0 -92 10q61 -89 61 -201q0 -149 -105 -244.5t-271 -95.5q-68 0 -133 19q-64 -55 -64 -113q0 -43 32.5 -68t96.5 -26
l219 -6q162 -5 248 -74t86 -197q0 -165 -131 -273t-350 -108q-189 0 -306.5 86.5t-117.5 225.5q0 142 135 262q-74 55 -74 147q0 100 97 209q-59 45 -92 112t-33 146q0 151 109.5 250.5t273.5 99.5q80 0 147 -24h365v-137zM494 449q99 0 161 56t62 146q0 91 -62 149t-161 58
t-161.5 -58t-62.5 -149q0 -90 62.5 -146t161.5 -56zM606 -20l-225 6q-19 0 -29 2q-112 -82 -112 -189q0 -87 74 -138.5t198 -51.5q136 0 220.5 61.5t84.5 159.5q0 144 -211 150z" />
    <glyph glyph-name="Gdotaccent" unicode="&#x120;" horiz-adv-x="1396" 
d="M772 1542q-46 0 -78 33t-32 80q0 44 32 76t78 32q44 0 76.5 -32t32.5 -76q0 -47 -32 -80t-77 -33zM1034 662h187v-617q-79 -31 -195.5 -51.5t-216.5 -20.5q-317 0 -499.5 196.5t-182.5 541.5q0 176 54 315.5t147.5 227t216 133t264.5 45.5q192 0 393 -62l-45 -164
q-192 56 -338 56q-228 0 -362.5 -141t-134.5 -412q0 -141 39.5 -251t108.5 -177t156.5 -101.5t188.5 -34.5q97 0 219 29v488z" />
    <glyph glyph-name="gdotaccent" unicode="&#x121;" horiz-adv-x="1048" 
d="M502 1163q-48 0 -82.5 35t-34.5 84t34.5 84t82.5 35q47 0 81.5 -35t34.5 -84t-34.5 -84t-81.5 -35zM1006 840h-101q-40 0 -92 10q61 -89 61 -201q0 -149 -105 -244.5t-271 -95.5q-68 0 -133 19q-64 -55 -64 -113q0 -43 32.5 -68t96.5 -26l219 -6q162 -5 248 -74t86 -197
q0 -165 -131 -273t-350 -108q-189 0 -306.5 86.5t-117.5 225.5q0 142 135 262q-74 55 -74 147q0 100 97 209q-59 45 -92 112t-33 146q0 151 109.5 250.5t273.5 99.5q80 0 147 -24h365v-137zM494 449q99 0 161 56t62 146q0 91 -62 149t-161 58t-161.5 -58t-62.5 -149
q0 -90 62.5 -146t161.5 -56zM606 -20l-225 6q-19 0 -29 2q-112 -82 -112 -189q0 -87 74 -138.5t198 -51.5q136 0 220.5 61.5t84.5 159.5q0 144 -211 150z" />
    <glyph glyph-name="uni0122" unicode="&#x122;" horiz-adv-x="1396" 
d="M1034 662h187v-617q-79 -31 -195.5 -51.5t-216.5 -20.5q-317 0 -499.5 196.5t-182.5 541.5q0 176 54 315.5t147.5 227t216 133t264.5 45.5q192 0 393 -62l-45 -164q-192 56 -338 56q-228 0 -362.5 -141t-134.5 -412q0 -141 39.5 -251t108.5 -177t156.5 -101.5
t188.5 -34.5q97 0 219 29v488zM645 -481l80 346h174l-106 -346h-148z" />
    <glyph glyph-name="uni0123" unicode="&#x123;" horiz-adv-x="1048" 
d="M664 1417l-74 -305h-172l98 305h148zM1006 840h-101q-40 0 -92 10q61 -89 61 -201q0 -149 -105 -244.5t-271 -95.5q-68 0 -133 19q-64 -55 -64 -113q0 -43 32.5 -68t96.5 -26l219 -6q162 -5 248 -74t86 -197q0 -165 -131 -273t-350 -108q-189 0 -306.5 86.5t-117.5 225.5
q0 142 135 262q-74 55 -74 147q0 100 97 209q-59 45 -92 112t-33 146q0 151 109.5 250.5t273.5 99.5q80 0 147 -24h365v-137zM494 449q99 0 161 56t62 146q0 91 -62 149t-161 58t-161.5 -58t-62.5 -149q0 -90 62.5 -146t161.5 -56zM606 -20l-225 6q-19 0 -29 2
q-112 -82 -112 -189q0 -87 74 -138.5t198 -51.5q136 0 220.5 61.5t84.5 159.5q0 144 -211 150z" />
    <glyph glyph-name="Hcircumflex" unicode="&#x124;" horiz-adv-x="1464" 
d="M733 1683l-264 -178l-74 109l338 229l338 -227l-74 -111zM1081 1407h187v-1407h-187v641h-698v-641h-186v1407h186v-598h698v598z" />
    <glyph glyph-name="hcircumflex" unicode="&#x125;" horiz-adv-x="1167" 
d="M487 1561l-225 163l-225 -163l-70 100l297 233l295 -233zM709 1001q61 0 109.5 -16t79 -39t52.5 -60t32.5 -66.5t16.5 -72t6.5 -63.5t0.5 -53v-631h-181v602q0 26 -0.5 40.5t-4 42.5t-9.5 45t-19.5 39t-32 34.5t-48 21.5t-66.5 9q-163 0 -293 -164v-670h-178v1536h178
v-700q156 165 357 165z" />
    <glyph glyph-name="Hbar" unicode="&#x126;" horiz-adv-x="1464" 
d="M1378 1171v-141h-110v-1030h-187v641h-698v-641h-186v1030h-111v141h111v236h186v-236h698v236h187v-236h110zM1081 809v221h-698v-221h698z" />
    <glyph glyph-name="hbar" unicode="&#x127;" horiz-adv-x="1167" 
d="M709 1001q61 0 109.5 -16t79 -39t52.5 -60t32.5 -66.5t16.5 -72t6.5 -63.5t0.5 -53v-631h-181v602q0 26 -0.5 40.5t-4 42.5t-9.5 45t-19.5 39t-32 34.5t-48 21.5t-66.5 9q-163 0 -293 -164v-670h-178v1206h-123v117h123v213h178v-213h312v-117h-312v-370q156 165 357 165
z" />
    <glyph glyph-name="Itilde" unicode="&#x128;" horiz-adv-x="579" 
d="M33 1556l-62 99q46 46 104.5 73t114.5 27q55 0 125 -37t107 -37q60 0 139 64l62 -98q-102 -99 -215 -99q-52 0 -123 37t-109 37q-62 0 -143 -66zM383 1407v-1407h-186v1407h186z" />
    <glyph glyph-name="itilde" unicode="&#x129;" horiz-adv-x="526" 
d="M-2 1176l-61 98q106 100 213 100q56 0 128 -37t111 -37q62 0 137 66l62 -100q-110 -99 -207 -99q-57 0 -127.5 37t-114.5 37q-63 0 -141 -65zM354 977v-977h-180v977h180z" />
    <glyph glyph-name="Imacron" unicode="&#x12a;" horiz-adv-x="579" 
d="M547 1720v-129h-514v129h514zM383 1407v-1407h-186v1407h186z" />
    <glyph glyph-name="imacron" unicode="&#x12b;" horiz-adv-x="526" 
d="M520 1339v-129h-514v129h514zM354 977v-977h-180v977h180z" />
    <glyph glyph-name="Iogonek" unicode="&#x12e;" horiz-adv-x="579" 
d="M401 -397l29 -111q-64 -29 -141 -29q-102 0 -162.5 59t-60.5 161q0 77 41.5 159.5t121.5 157.5h-32v1407h186v-1407q-78 -69 -124 -146.5t-46 -144.5q0 -58 28.5 -90.5t80.5 -32.5q30 0 79 17z" />
    <glyph glyph-name="iogonek" unicode="&#x12f;" horiz-adv-x="526" 
d="M264 1163q-48 0 -82.5 35t-34.5 84t34.5 84t82.5 35t82.5 -35t34.5 -84t-34.5 -84t-82.5 -35zM371 -397l28 -111q-64 -29 -141 -29q-102 0 -162.5 59t-60.5 161q0 77 42 159.5t122 157.5h-25v977h180v-977h-2q-78 -69 -124 -146.5t-46 -144.5q0 -58 28.5 -90.5
t80.5 -32.5q31 0 80 17z" />
    <glyph glyph-name="Idotaccent" unicode="&#x130;" horiz-adv-x="579" 
d="M291 1542q-46 0 -78.5 33t-32.5 80q0 44 32.5 76t78.5 32q44 0 76 -32t32 -76q0 -47 -32 -80t-76 -33zM383 1407v-1407h-186v1407h186z" />
    <glyph glyph-name="dotlessi" unicode="&#x131;" horiz-adv-x="526" 
d="M354 977v-977h-180v977h180z" />
    <glyph glyph-name="IJ" unicode="&#x132;" horiz-adv-x="1191" 
d="M383 1407v-1407h-186v1407h186zM1016 1407v-1401q0 -461 -465 -461v168q130 0 202 76t72 205v1413h191z" />
    <glyph glyph-name="ij" unicode="&#x133;" horiz-adv-x="1052" 
d="M264 1401q48 0 82.5 -35t34.5 -84t-34.5 -84t-82.5 -35t-82.5 35t-34.5 84t34.5 84t82.5 35zM799 1401q47 0 81.5 -35t34.5 -84t-34.5 -84t-81.5 -35q-49 0 -83 34.5t-34 84.5t34 84.5t83 34.5zM354 977v-977h-180v977h180zM881 977v-1137q0 -30 -0.5 -47.5t-3 -52.5
t-7.5 -57.5t-15.5 -55t-25 -54t-37.5 -45.5t-52 -38t-69.5 -23.5t-88.5 -9.5q-72 0 -152 17l33 159q62 -10 94 -10q41 0 69.5 13.5t42.5 31t21.5 52.5t8.5 58t1 68v1131h181z" />
    <glyph glyph-name="Jcircumflex" unicode="&#x134;" horiz-adv-x="745" 
d="M463 1843l338 -227l-74 -111l-264 178l-264 -178l-74 109zM383 350v1057h186v-1077q0 -22 -0.5 -35.5t-3 -44t-8 -52t-17 -52.5t-27 -52.5t-41 -45.5t-57 -39t-76 -24.5t-97.5 -9.5q-109 0 -219 29l32 168q86 -22 170 -22q45 0 77 15t47 33.5t23.5 51t9.5 51t1 49.5z" />
    <glyph glyph-name="jcircumflex" unicode="&#x135;" horiz-adv-x="526" 
d="M264 1462l295 -233l-72 -101l-225 164l-225 -164l-70 101zM174 -154v1131h180v-1137q0 -30 -0.5 -47.5t-3 -52.5t-7.5 -57.5t-15.5 -55t-25 -54t-37.5 -45.5t-52 -38t-69.5 -23.5t-88.5 -9.5q-71 0 -151 17l33 159q63 -10 94 -10q41 0 69.5 13.5t42.5 31t21.5 52.5
t8.5 58t1 68z" />
    <glyph glyph-name="uni0136" unicode="&#x136;" horiz-adv-x="1167" 
d="M592 727l555 -727h-223l-541 713v-713h-186v1407h186v-690l500 690h207zM463 -481l80 346h174l-107 -346h-147z" />
    <glyph glyph-name="uni0137" unicode="&#x137;" horiz-adv-x="991" 
d="M174 1536h178v-1536h-178v1536zM555 541l428 -541h-207l-424 530l365 447h203zM395 -440l74 305h172l-98 -305h-148z" />
    <glyph glyph-name="Lacute" unicode="&#x139;" horiz-adv-x="952" 
d="M555 1726l-330 -227l-67 96l321 246zM383 168h516v-168h-702v1407h186v-1239z" />
    <glyph glyph-name="lacute" unicode="&#x13a;" horiz-adv-x="526" 
d="M508 1835l-326 -233l-78 102l316 254zM354 1536v-1536h-180v1536h180z" />
    <glyph glyph-name="uni013B" unicode="&#x13b;" horiz-adv-x="952" 
d="M383 168h516v-168h-702v1407h186v-1239zM371 -481l80 346h174l-107 -346h-147z" />
    <glyph glyph-name="uni013C" unicode="&#x13c;" horiz-adv-x="526" 
d="M354 1536v-1536h-180v1536h180zM348 -135l-98 -305h-148l74 305h172z" />
    <glyph glyph-name="Lcaron" unicode="&#x13d;" horiz-adv-x="952" 
d="M383 168h516v-168h-702v1407h186v-1239zM643 1405l-20 -430h-115v430h135z" />
    <glyph glyph-name="lcaron" unicode="&#x13e;" horiz-adv-x="526" 
d="M354 1536v-1536h-180v1536h180zM573 1536l-20 -430h-115v430h135z" />
    <glyph glyph-name="Ldot" unicode="&#x13f;" horiz-adv-x="956" 
d="M383 168h516v-168h-702v1407h186v-1239zM760 651q-50 0 -86.5 36t-36.5 87t36.5 87t86.5 36q51 0 87 -36t36 -87t-36 -87t-87 -36z" />
    <glyph glyph-name="ldot" unicode="&#x140;" horiz-adv-x="667" 
d="M354 1536v-1536h-180v1536h180zM596 889q51 0 87 -36t36 -87t-36 -87t-87 -36t-87 36t-36 87t36 87t87 36z" />
    <glyph glyph-name="Lslash" unicode="&#x141;" horiz-adv-x="952" 
d="M383 168h516v-168h-702v588l-138 -60l-57 134l195 83v662h186v-582l270 117l60 -133l-330 -141v-500z" />
    <glyph glyph-name="lslash" unicode="&#x142;" horiz-adv-x="661" 
d="M639 836l-217 -99v-737h-180v666l-152 -68l-55 133l207 90v715h180v-641l162 74z" />
    <glyph glyph-name="Nacute" unicode="&#x143;" horiz-adv-x="1552" 
d="M1038 1726l-329 -227l-68 96l322 246zM1174 1407h182v-1407h-207l-770 1155v-1155h-182v1407h233l744 -1114v1114z" />
    <glyph glyph-name="nacute" unicode="&#x144;" horiz-adv-x="1167" 
d="M838 1350l-326 -234l-78 103l316 254zM711 1001q61 0 109 -16t78.5 -39t52.5 -60.5t32 -67.5t16 -74t6.5 -66t0.5 -57v-621h-181v596q0 27 -0.5 42t-4 44t-10 46.5t-19.5 39.5t-32 35t-48.5 22t-67.5 9q-163 0 -289 -162v-672h-180v977h180v-141q155 165 357 165z" />
    <glyph glyph-name="uni0145" unicode="&#x145;" horiz-adv-x="1552" 
d="M1174 1407h182v-1407h-207l-770 1155v-1155h-182v1407h233l744 -1114v1114zM594 -481l80 346h174l-107 -346h-147z" />
    <glyph glyph-name="uni0146" unicode="&#x146;" horiz-adv-x="1167" 
d="M711 1001q61 0 109 -16t78.5 -39t52.5 -60.5t32 -67.5t16 -74t6.5 -66t0.5 -57v-621h-181v596q0 27 -0.5 42t-4 44t-10 46.5t-19.5 39.5t-32 35t-48.5 22t-67.5 9q-163 0 -289 -162v-672h-180v977h180v-141q155 165 357 165zM428 -440l74 305h172l-99 -305h-147z" />
    <glyph glyph-name="Ncaron" unicode="&#x147;" horiz-adv-x="1552" 
d="M1090 1724l-322 -229l-322 229l78 107l244 -182l244 184zM1174 1407h182v-1407h-207l-770 1155v-1155h-182v1407h233l744 -1114v1114z" />
    <glyph glyph-name="ncaron" unicode="&#x148;" horiz-adv-x="1167" 
d="M879 1362l-285 -252l-279 252l84 98l197 -184l197 182zM711 1001q61 0 109 -16t78.5 -39t52.5 -60.5t32 -67.5t16 -74t6.5 -66t0.5 -57v-621h-181v596q0 27 -0.5 42t-4 44t-10 46.5t-19.5 39.5t-32 35t-48.5 22t-67.5 9q-163 0 -289 -162v-672h-180v977h180v-141
q155 165 357 165z" />
    <glyph glyph-name="Eng" unicode="&#x14a;" horiz-adv-x="1552" 
d="M1174 1407h182v-1479q0 -178 -74.5 -280.5t-237.5 -102.5q-69 0 -139 19l25 145q45 -10 104 -10q84 0 114 60.5t30 197.5v43h-29l-770 1155v-1155h-182v1407h233l744 -1114v1114z" />
    <glyph glyph-name="eng" unicode="&#x14b;" horiz-adv-x="1167" 
d="M713 1001q293 0 293 -352v-856q0 -156 -71.5 -246t-227.5 -90q-72 0 -152 17l33 159q62 -10 94 -10q87 0 115 49t28 164v785q0 110 -42.5 161.5t-133.5 51.5q-169 0 -295 -162v-672h-180v977h180v-141q155 165 359 165z" />
    <glyph glyph-name="Omacron" unicode="&#x14c;" horiz-adv-x="1599" 
d="M1063 1720v-129h-514v129h514zM807 1432q201 0 354.5 -91t237.5 -256t84 -378t-84 -379.5t-238.5 -259.5t-355.5 -93t-358 93t-243.5 259t-86.5 378q0 210 86 375.5t243.5 258.5t360.5 93zM803 1262q-219 0 -354.5 -157t-135.5 -396q0 -159 60.5 -287t173 -202.5
t256.5 -74.5q217 0 350 160t133 404q0 157 -57.5 282t-168.5 198t-257 73z" />
    <glyph glyph-name="omacron" unicode="&#x14d;" horiz-adv-x="1132" 
d="M823 1339v-129h-514v129h514zM565 -25q-215 0 -342 139.5t-127 374.5q0 236 127 375.5t342 139.5q217 0 344 -139.5t127 -375.5q0 -235 -127.5 -374.5t-343.5 -139.5zM565 135q131 0 209 96.5t78 257.5q0 162 -78 258.5t-209 96.5q-130 0 -207 -96t-77 -259
q0 -162 77 -258t207 -96z" />
    <glyph glyph-name="Ohungarumlaut" unicode="&#x150;" horiz-adv-x="1599" 
d="M918 1718l-322 -209l-70 86l312 230zM1266 1704l-332 -188l-66 88l324 208zM807 1432q201 0 354.5 -91t237.5 -256t84 -378t-84 -379.5t-238.5 -259.5t-355.5 -93t-358 93t-243.5 259t-86.5 378q0 210 86 375.5t243.5 258.5t360.5 93zM803 1262q-219 0 -354.5 -157
t-135.5 -396q0 -159 60.5 -287t173 -202.5t256.5 -74.5q217 0 350 160t133 404q0 157 -57.5 282t-168.5 198t-257 73z" />
    <glyph glyph-name="ohungarumlaut" unicode="&#x151;" horiz-adv-x="1132" 
d="M666 1403l-263 -289l-86 76l248 307zM1004 1391l-281 -273l-82 82l268 291zM565 -25q-215 0 -342 139.5t-127 374.5q0 236 127 375.5t342 139.5q217 0 344 -139.5t127 -375.5q0 -235 -127.5 -374.5t-343.5 -139.5zM565 135q131 0 209 96.5t78 257.5q0 162 -78 258.5
t-209 96.5q-130 0 -207 -96t-77 -259q0 -162 77 -258t207 -96z" />
    <glyph glyph-name="OE" unicode="&#x152;" horiz-adv-x="1816" 
d="M1165 168h533v-168h-658q-109 -25 -221 -25q-211 0 -370.5 91t-245.5 257t-86 384q0 159 51 293.5t142 229.5t221.5 148.5t283.5 53.5q100 0 225 -25h623v-168h-498v-426h445v-168h-445v-477zM311 707q0 -253 140.5 -407.5t373.5 -154.5q77 0 158 17v1081q-90 19 -166 19
q-227 0 -366.5 -153t-139.5 -402z" />
    <glyph glyph-name="oe" unicode="&#x153;" horiz-adv-x="1746" 
d="M1270 999q413 0 379 -555h-648q15 -315 304 -315q136 0 272 68l49 -140q-168 -84 -340 -84q-137 0 -235 62.5t-140 181.5q-103 -242 -364 -242q-92 0 -168 29t-128 78.5t-87.5 115.5t-51.5 138.5t-16 150.5q0 98 27 187.5t80 164.5t142.5 120t203.5 45q261 0 362 -244
q95 239 359 239zM1266 852q-108 0 -172.5 -68t-83.5 -192h469q-6 260 -213 260zM551 129q73 0 128 32t85.5 85.5t45.5 114.5t15 128t-15 128t-45.5 115t-85.5 86t-128 32t-128 -32t-86 -86t-46 -115t-15 -128t15 -128t46 -114.5t86 -85.5t128 -32z" />
    <glyph glyph-name="Racute" unicode="&#x154;" horiz-adv-x="1189" 
d="M815 1726l-330 -227l-67 96l321 246zM1180 0h-228l-358 557q-44 -6 -88 -6h-123v-551h-186v1407q151 8 284 8q254 0 380 -104t126 -301q0 -134 -57 -236t-160 -160zM383 711h141q129 0 202 76t73 208q0 130 -75 192t-226 62q-38 0 -115 -6v-532z" />
    <glyph glyph-name="racute" unicode="&#x155;" horiz-adv-x="741" 
d="M662 1350l-326 -234l-78 103l315 254zM696 1001h21l-17 -174q-113 0 -197 -37t-151 -118v-672h-178v977h178v-129q141 153 344 153z" />
    <glyph glyph-name="uni0156" unicode="&#x156;" horiz-adv-x="1189" 
d="M770 614l410 -614h-228l-358 557q-44 -6 -88 -6h-123v-551h-186v1407q151 8 284 8q254 0 380 -104t126 -301q0 -134 -57 -236t-160 -160zM383 711h141q129 0 202 76t73 208q0 130 -75 192t-226 62q-38 0 -115 -6v-532zM489 -481l80 346h174l-106 -346h-148z" />
    <glyph glyph-name="uni0157" unicode="&#x157;" horiz-adv-x="741" 
d="M696 1001h21l-17 -174q-113 0 -197 -37t-151 -118v-672h-178v977h178v-129q141 153 344 153zM100 -440l74 305h172l-98 -305h-148z" />
    <glyph glyph-name="Rcaron" unicode="&#x158;" horiz-adv-x="1189" 
d="M866 1724l-321 -229l-322 229l78 107l244 -182l243 184zM1180 0h-228l-358 557q-44 -6 -88 -6h-123v-551h-186v1407q151 8 284 8q254 0 380 -104t126 -301q0 -134 -57 -236t-160 -160zM383 711h141q129 0 202 76t73 208q0 130 -75 192t-226 62q-38 0 -115 -6v-532z" />
    <glyph glyph-name="rcaron" unicode="&#x159;" horiz-adv-x="741" 
d="M700 1362l-284 -252l-279 252l84 98l197 -184l196 182zM696 1001h21l-17 -174q-113 0 -197 -37t-151 -118v-672h-178v977h178v-129q141 153 344 153z" />
    <glyph glyph-name="Sacute" unicode="&#x15a;" horiz-adv-x="962" 
d="M774 1726l-330 -227l-67 96l321 246zM559 1432q143 0 266 -37l-41 -166q-118 35 -227 35q-117 0 -185.5 -56t-68.5 -143q0 -56 31.5 -104.5t82 -85t111 -72.5t121.5 -77.5t111.5 -89t82 -117t31.5 -152.5q0 -172 -121.5 -282t-316.5 -110q-178 0 -340 78l60 160
q142 -68 276 -68q109 0 181.5 60t72.5 155q0 59 -31.5 109t-82 87.5t-111.5 74t-121.5 77.5t-111 87.5t-82 113.5t-31.5 148q0 167 123 271t321 104z" />
    <glyph glyph-name="sacute" unicode="&#x15b;" horiz-adv-x="794" 
d="M647 1350l-325 -234l-78 103l315 254zM356 -23q-140 0 -266 52l43 151q126 -47 217 -47q76 0 126 36t50 97q0 39 -23.5 70t-61 53t-83 42.5t-91 45.5t-83 56t-61 80.5t-23.5 111.5q0 132 92.5 203t247.5 71q120 0 226 -34l-37 -148q-109 31 -180 31q-78 0 -124 -32
t-46 -85q0 -35 23.5 -64.5t61.5 -51.5t83.5 -44t91 -49t83.5 -60t61.5 -83.5t23.5 -112.5q0 -129 -94.5 -209t-256.5 -80z" />
    <glyph glyph-name="Scircumflex" unicode="&#x15c;" horiz-adv-x="962" 
d="M504 1683l-264 -178l-74 109l338 229l338 -227l-74 -111zM303 1065q0 -56 31.5 -104.5t82 -85t111 -72.5t121.5 -77.5t111.5 -89t82 -117t31.5 -152.5q0 -172 -121.5 -282t-316.5 -110q-178 0 -340 78l60 160q142 -68 276 -68q109 0 181.5 60t72.5 155q0 59 -31.5 109
t-82 87.5t-111.5 74t-121.5 77.5t-111 87.5t-82 113.5t-31.5 148q0 167 123 271t321 104q143 0 266 -37l-41 -166q-118 35 -227 35q-117 0 -185.5 -56t-68.5 -143z" />
    <glyph glyph-name="scircumflex" unicode="&#x15d;" horiz-adv-x="794" 
d="M399 1292l-225 -164l-70 101l297 233l295 -233l-71 -101zM279 731q0 -35 23.5 -64.5t61.5 -51.5t83.5 -44t91 -49t83.5 -60t61.5 -83.5t23.5 -112.5q0 -129 -94.5 -209t-256.5 -80q-140 0 -266 52l43 151q126 -47 217 -47q76 0 126 36t50 97q0 39 -23.5 70t-61 53
t-83 42.5t-91 45.5t-83 56t-61 80.5t-23.5 111.5q0 132 92.5 203t247.5 71q120 0 226 -34l-37 -148q-109 31 -180 31q-78 0 -124 -32t-46 -85z" />
    <glyph glyph-name="Scedilla" unicode="&#x15e;" horiz-adv-x="962" 
d="M874 367q0 -144 -87.5 -247t-235.5 -134q41 -94 41 -187q0 -115 -79.5 -177t-229.5 -62v131q161 0 161 135q0 73 -36 149q-166 7 -312 78l60 160q142 -68 276 -68q109 0 181.5 60t72.5 155q0 59 -31.5 109t-82 87.5t-111.5 74t-121.5 77.5t-111 87.5t-82 113.5t-31.5 148
q0 167 123 271t321 104q143 0 266 -37l-41 -166q-118 35 -227 35q-117 0 -185.5 -56t-68.5 -143q0 -56 31.5 -104.5t82 -85t111 -72.5t121.5 -77.5t111.5 -89t82 -117t31.5 -152.5z" />
    <glyph glyph-name="scedilla" unicode="&#x15f;" horiz-adv-x="794" 
d="M707 266q0 -105 -63.5 -178t-176.5 -98q43 -95 43 -191q0 -115 -79.5 -177t-229.5 -62v131q161 0 161 135q0 70 -38 151q-124 6 -234 52l43 151q126 -47 217 -47q76 0 126 36t50 97q0 39 -23.5 70t-61 53t-83 42.5t-91 45.5t-83 56t-61 80.5t-23.5 111.5q0 132 92.5 203
t247.5 71q120 0 226 -34l-37 -148q-109 31 -180 31q-78 0 -124 -32t-46 -85q0 -35 23.5 -64.5t61.5 -51.5t83.5 -44t91 -49t83.5 -60t61.5 -83.5t23.5 -112.5z" />
    <glyph glyph-name="Scaron" unicode="&#x160;" horiz-adv-x="962" 
d="M825 1724l-321 -229l-322 229l78 107l244 -182l244 184zM303 1065q0 -56 31.5 -104.5t82 -85t111 -72.5t121.5 -77.5t111.5 -89t82 -117t31.5 -152.5q0 -172 -121.5 -282t-316.5 -110q-178 0 -340 78l60 160q142 -68 276 -68q109 0 181.5 60t72.5 155q0 59 -31.5 109
t-82 87.5t-111.5 74t-121.5 77.5t-111 87.5t-82 113.5t-31.5 148q0 167 123 271t321 104q143 0 266 -37l-41 -166q-118 35 -227 35q-117 0 -185.5 -56t-68.5 -143z" />
    <glyph glyph-name="scaron" unicode="&#x161;" horiz-adv-x="794" 
d="M686 1362l-285 -252l-278 252l84 98l196 -184l197 182zM279 731q0 -35 23.5 -64.5t61.5 -51.5t83.5 -44t91 -49t83.5 -60t61.5 -83.5t23.5 -112.5q0 -129 -94.5 -209t-256.5 -80q-140 0 -266 52l43 151q126 -47 217 -47q76 0 126 36t50 97q0 39 -23.5 70t-61 53t-83 42.5
t-91 45.5t-83 56t-61 80.5t-23.5 111.5q0 132 92.5 203t247.5 71q120 0 226 -34l-37 -148q-109 31 -180 31q-78 0 -124 -32t-46 -85z" />
    <glyph glyph-name="uni0162" unicode="&#x162;" horiz-adv-x="1130" 
d="M651 1239v-1239h-10q35 -115 35 -174q0 -248 -314 -248v131q70 0 114 36t44 93q0 65 -41 162h-14v1239h-432v168h1065v-168h-447z" />
    <glyph glyph-name="uni0163" unicode="&#x163;" horiz-adv-x="753" 
d="M711 33q-69 -33 -164 -47q41 -94 41 -187q0 -115 -79.5 -177t-229.5 -62v131q161 0 161 135q0 71 -41 158q-213 31 -213 274v565h-149v47l287 295h43v-188h307v-154h-307v-508q0 -87 27 -129.5t106 -42.5q71 0 162 39z" />
    <glyph glyph-name="Tcaron" unicode="&#x164;" horiz-adv-x="1130" 
d="M877 1724l-322 -229l-322 229l78 107l244 -182l244 184zM1098 1407v-168h-447v-1239h-186v1239h-432v168h1065z" />
    <glyph glyph-name="tcaron" unicode="&#x165;" horiz-adv-x="753" 
d="M662 1536l-21 -430h-115v430h136zM461 -20q-275 0 -275 278v565h-149v47l287 295h43v-188h307v-154h-307v-508q0 -87 27 -129.5t106 -42.5q71 0 162 39l49 -149q-111 -53 -250 -53z" />
    <glyph glyph-name="Tbar" unicode="&#x166;" horiz-adv-x="1130" 
d="M1098 1239h-447v-483h230v-148h-230v-608h-186v608h-236v148h236v483h-432v168h1065v-168z" />
    <glyph glyph-name="tbar" unicode="&#x167;" horiz-adv-x="753" 
d="M662 182l49 -149q-111 -53 -250 -53q-275 0 -275 278v234h-106v110h106v221h-149v47l287 295h43v-188h307v-154h-307v-221h290v-110h-290v-177q0 -87 27 -129.5t106 -42.5q71 0 162 39z" />
    <glyph glyph-name="Utilde" unicode="&#x168;" horiz-adv-x="1404" 
d="M444 1556l-61 99q46 46 104.5 73t114.5 27q55 0 125 -37t107 -37q60 0 139 64l61 -98q-102 -99 -215 -99q-53 0 -123 37t-108 37q-63 0 -144 -66zM365 1407v-936q0 -21 0.5 -34t3.5 -42t8.5 -49t17 -48.5t27.5 -48.5t42 -42.5t58.5 -36t78 -22.5t99.5 -9q70 0 125 14.5
t90 35.5t60 54.5t36.5 60t18 64.5t7.5 56.5t1 46.5v936h187v-934q0 -28 -0.5 -47.5t-5.5 -61t-13.5 -73t-27 -75t-44 -75.5t-66 -66t-91 -56t-121.5 -36t-156 -14q-84 0 -154.5 14t-121 36t-90.5 56t-65 66t-43 75.5t-26.5 74.5t-13.5 72.5t-5.5 60.5t-0.5 47v936h185z" />
    <glyph glyph-name="utilde" unicode="&#x169;" horiz-adv-x="1163" 
d="M451 1241q-64 0 -142 -65l-61 98q106 100 213 100q56 0 128 -37t111 -37q63 0 138 66l61 -100q-110 -99 -207 -99q-57 0 -127 37t-114 37zM809 977h180v-977h-180v139q-143 -164 -348 -164q-48 0 -89 9t-69.5 23t-51.5 36.5t-37.5 43.5t-25 50t-15.5 49.5t-7.5 49
t-3 41.5t-0.5 34v666h180v-637q0 -197 168 -197q154 0 299 168v666z" />
    <glyph glyph-name="Umacron" unicode="&#x16a;" horiz-adv-x="1404" 
d="M958 1720v-129h-514v129h514zM365 1407v-936q0 -21 0.5 -34t3.5 -42t8.5 -49t17 -48.5t27.5 -48.5t42 -42.5t58.5 -36t78 -22.5t99.5 -9q70 0 125 14.5t90 35.5t60 54.5t36.5 60t18 64.5t7.5 56.5t1 46.5v936h187v-934q0 -28 -0.5 -47.5t-5.5 -61t-13.5 -73t-27 -75
t-44 -75.5t-66 -66t-91 -56t-121.5 -36t-156 -14q-84 0 -154.5 14t-121 36t-90.5 56t-65 66t-43 75.5t-26.5 74.5t-13.5 72.5t-5.5 60.5t-0.5 47v936h185z" />
    <glyph glyph-name="umacron" unicode="&#x16b;" horiz-adv-x="1163" 
d="M831 1339v-129h-514v129h514zM809 977h180v-977h-180v139q-143 -164 -348 -164q-48 0 -89 9t-69.5 23t-51.5 36.5t-37.5 43.5t-25 50t-15.5 49.5t-7.5 49t-3 41.5t-0.5 34v666h180v-637q0 -197 168 -197q154 0 299 168v666z" />
    <glyph glyph-name="Ubreve" unicode="&#x16c;" horiz-adv-x="1404" 
d="M989 1780q0 -121 -79 -195t-208 -74t-207.5 74t-78.5 195h141q0 -67 39.5 -105.5t105.5 -38.5q68 0 106 38t38 106h143zM365 1407v-936q0 -21 0.5 -34t3.5 -42t8.5 -49t17 -48.5t27.5 -48.5t42 -42.5t58.5 -36t78 -22.5t99.5 -9q70 0 125 14.5t90 35.5t60 54.5t36.5 60
t18 64.5t7.5 56.5t1 46.5v936h187v-934q0 -28 -0.5 -47.5t-5.5 -61t-13.5 -73t-27 -75t-44 -75.5t-66 -66t-91 -56t-121.5 -36t-156 -14q-84 0 -154.5 14t-121 36t-90.5 56t-65 66t-43 75.5t-26.5 74.5t-13.5 72.5t-5.5 60.5t-0.5 47v936h185z" />
    <glyph glyph-name="ubreve" unicode="&#x16d;" horiz-adv-x="1163" 
d="M575 1133q-131 0 -210.5 77t-79.5 203h141q0 -73 40 -114.5t109 -41.5q71 0 110.5 40.5t39.5 115.5h143q0 -126 -81 -203t-212 -77zM809 977h180v-977h-180v139q-143 -164 -348 -164q-48 0 -89 9t-69.5 23t-51.5 36.5t-37.5 43.5t-25 50t-15.5 49.5t-7.5 49t-3 41.5
t-0.5 34v666h180v-637q0 -197 168 -197q154 0 299 168v666z" />
    <glyph glyph-name="Uring" unicode="&#x16e;" horiz-adv-x="1404" 
d="M903 1667q0 -85 -59 -135.5t-144 -50.5q-82 0 -139 50.5t-57 135.5q0 82 57.5 132t138.5 50q85 0 144 -50t59 -132zM797 1667q0 43 -28 67.5t-69 24.5q-40 0 -66 -24.5t-26 -67.5t26.5 -68.5t65.5 -25.5q41 0 69 25.5t28 68.5zM365 1407v-936q0 -21 0.5 -34t3.5 -42
t8.5 -49t17 -48.5t27.5 -48.5t42 -42.5t58.5 -36t78 -22.5t99.5 -9q70 0 125 14.5t90 35.5t60 54.5t36.5 60t18 64.5t7.5 56.5t1 46.5v936h187v-934q0 -28 -0.5 -47.5t-5.5 -61t-13.5 -73t-27 -75t-44 -75.5t-66 -66t-91 -56t-121.5 -36t-156 -14q-84 0 -154.5 14t-121 36
t-90.5 56t-65 66t-43 75.5t-26.5 74.5t-13.5 72.5t-5.5 60.5t-0.5 47v936h185z" />
    <glyph glyph-name="uring" unicode="&#x16f;" horiz-adv-x="1163" 
d="M575 1100q-78 0 -137 49t-59 137q0 84 59.5 132t136.5 48q80 0 141.5 -48t61.5 -132q0 -88 -61 -137t-142 -49zM575 1370q-34 0 -58.5 -23t-24.5 -61q0 -42 24 -65t59 -23q38 0 64.5 23t26.5 65q0 38 -27 61t-64 23zM809 977h180v-977h-180v139q-143 -164 -348 -164
q-48 0 -89 9t-69.5 23t-51.5 36.5t-37.5 43.5t-25 50t-15.5 49.5t-7.5 49t-3 41.5t-0.5 34v666h180v-637q0 -197 168 -197q154 0 299 168v666z" />
    <glyph glyph-name="Uhungarumlaut" unicode="&#x170;" horiz-adv-x="1404" 
d="M813 1718l-321 -209l-70 86l311 230zM1161 1704l-332 -188l-65 88l323 208zM365 1407v-936q0 -21 0.5 -34t3.5 -42t8.5 -49t17 -48.5t27.5 -48.5t42 -42.5t58.5 -36t78 -22.5t99.5 -9q70 0 125 14.5t90 35.5t60 54.5t36.5 60t18 64.5t7.5 56.5t1 46.5v936h187v-934
q0 -28 -0.5 -47.5t-5.5 -61t-13.5 -73t-27 -75t-44 -75.5t-66 -66t-91 -56t-121.5 -36t-156 -14q-84 0 -154.5 14t-121 36t-90.5 56t-65 66t-43 75.5t-26.5 74.5t-13.5 72.5t-5.5 60.5t-0.5 47v936h185z" />
    <glyph glyph-name="uhungarumlaut" unicode="&#x171;" horiz-adv-x="1163" 
d="M674 1403l-262 -289l-86 76l247 307zM731 1118l-82 82l269 291l94 -100zM809 311v666h180v-977h-180v139q-143 -164 -348 -164q-48 0 -89 9t-69.5 23t-51.5 36.5t-37.5 43.5t-25 50t-15.5 49.5t-7.5 49t-3 41.5t-0.5 34v666h180v-637q0 -197 168 -197q154 0 299 168z" />
    <glyph glyph-name="Uogonek" unicode="&#x172;" horiz-adv-x="1404" 
d="M1038 1407h187v-934q0 -447 -414 -498q-66 -63 -104.5 -134t-38.5 -132q0 -58 28 -90.5t80 -32.5q31 0 80 17l29 -111q-64 -29 -142 -29q-102 0 -162.5 59t-60.5 161q0 144 135 288q-77 3 -141.5 19.5t-110 39t-82.5 57t-60 66t-39.5 73.5t-24 72t-12 70t-5 58t-0.5 45
v936h185v-936q0 -21 0.5 -34t3.5 -42t8.5 -49t17 -48.5t27.5 -48.5t42 -42.5t58.5 -36t78 -22.5t99.5 -9q70 0 125 14.5t90 35.5t60 54.5t36.5 60t18 64.5t7.5 56.5t1 46.5v936z" />
    <glyph glyph-name="uogonek" unicode="&#x173;" horiz-adv-x="1163" 
d="M971 -397l28 -111q-64 -29 -141 -29q-102 0 -162.5 59t-60.5 161q0 78 44.5 163t129.5 162v131q-143 -164 -348 -164q-48 0 -89 9t-69.5 23t-51.5 36.5t-37.5 43.5t-25 50t-15.5 49.5t-7.5 49t-3 41.5t-0.5 34v666h180v-637q0 -197 168 -197q154 0 299 168v666h180v-977
h-37q-78 -69 -124 -146.5t-46 -144.5q0 -58 28.5 -90.5t80.5 -32.5q31 0 80 17z" />
    <glyph glyph-name="Wcircumflex" unicode="&#x174;" horiz-adv-x="1959" 
d="M977 1683l-264 -178l-74 109l338 229l338 -227l-74 -111zM1712 1407h193l-377 -1407h-172l-371 1026l-348 -1026h-168l-414 1407h195l315 -1118l381 1118h80l412 -1124z" />
    <glyph glyph-name="wcircumflex" unicode="&#x175;" horiz-adv-x="1499" 
d="M752 1292l-226 -164l-69 101l297 233l295 -233l-72 -101zM1290 977h176l-288 -977h-170l-258 655l-248 -655h-168l-299 977h180l219 -746l281 746h78l290 -746z" />
    <glyph glyph-name="Ycircumflex" unicode="&#x176;" horiz-adv-x="1132" 
d="M567 1683l-264 -178l-74 109l338 229l338 -227l-74 -111zM897 1407h201l-432 -840v-567h-187v567l-444 840h205l335 -668z" />
    <glyph glyph-name="ycircumflex" unicode="&#x177;" horiz-adv-x="999" 
d="M496 1292l-226 -164l-69 101l297 233l295 -233l-72 -101zM784 977h191l-590 -1489h-195l226 541l-391 948h194l287 -746z" />
    <glyph glyph-name="Ydieresis" unicode="&#x178;" horiz-adv-x="1132" 
d="M393 1542q-46 0 -78 33t-32 80q0 44 32 76t78 32q44 0 76.5 -32t32.5 -76q0 -47 -32 -80t-77 -33zM748 1542q-46 0 -78.5 33t-32.5 80q0 44 32.5 76t78.5 32q43 0 74.5 -32t31.5 -76q0 -47 -31.5 -80t-74.5 -33zM897 1407h201l-432 -840v-567h-187v567l-444 840h205
l335 -668z" />
    <glyph glyph-name="Zacute" unicode="&#x179;" horiz-adv-x="1126" 
d="M862 1726l-330 -227l-67 96l321 246zM1079 1407v-76l-729 -1163h727v-168h-999v74l731 1165h-703v168h973z" />
    <glyph glyph-name="zacute" unicode="&#x17a;" horiz-adv-x="917" 
d="M709 1350l-326 -234l-78 103l316 254zM336 154h498v-154h-748v70l483 753h-467v154h719v-70z" />
    <glyph glyph-name="Zdotaccent" unicode="&#x17b;" horiz-adv-x="1126" 
d="M594 1542q-46 0 -78.5 33t-32.5 80q0 44 32.5 76t78.5 32q44 0 76 -32t32 -76q0 -47 -32 -80t-76 -33zM1079 1407v-76l-729 -1163h727v-168h-999v74l731 1165h-703v168h973z" />
    <glyph glyph-name="zdotaccent" unicode="&#x17c;" horiz-adv-x="917" 
d="M465 1163q-48 0 -82.5 35t-34.5 84t34.5 84t82.5 35t82.5 -35t34.5 -84t-34.5 -84t-82.5 -35zM336 154h498v-154h-748v70l483 753h-467v154h719v-70z" />
    <glyph glyph-name="Zcaron" unicode="&#x17d;" horiz-adv-x="1126" 
d="M913 1724l-321 -229l-322 229l78 107l244 -182l244 184zM1079 1407v-76l-729 -1163h727v-168h-999v74l731 1165h-703v168h973z" />
    <glyph glyph-name="zcaron" unicode="&#x17e;" horiz-adv-x="917" 
d="M750 1362l-285 -252l-279 252l84 98l197 -184l197 182zM336 154h498v-154h-748v70l483 753h-467v154h719v-70z" />
    <glyph glyph-name="uni0191" unicode="&#x191;" horiz-adv-x="759" 
d="M645 1300q-100 0 -156 -54t-65 -156l-10 -113h313l-12 -150h-314l-73 -860q-14 -167 -110 -243t-241 -76q-98 0 -196 28l31 138q73 -21 143 -21q101 0 153.5 51.5t61.5 155.5l72 827h-164l12 150h166l12 149q12 152 114 237t263 85q73 0 182 -31l-36 -141q-79 24 -146 24
z" />
    <glyph glyph-name="florin" unicode="&#x192;" horiz-adv-x="759" 
d="M645 1300q-100 0 -156 -54t-65 -156l-10 -113h313l-12 -150h-314l-73 -860q-14 -167 -110 -243t-241 -76q-98 0 -196 28l31 138q73 -21 143 -21q101 0 153.5 51.5t61.5 155.5l72 827h-164l12 150h166l12 149q12 152 114 237t263 85q73 0 182 -31l-36 -141q-79 24 -146 24
z" />
    <glyph glyph-name="Ohorn" unicode="&#x1a0;" horiz-adv-x="1599" 
d="M1540 1491q0 -154 -41.5 -241.5t-128.5 -116.5q113 -180 113 -426q0 -213 -84 -379.5t-238.5 -259.5t-355.5 -93t-358 93t-243.5 259t-86.5 378q0 210 86 375.5t243.5 258.5t360.5 93q308 0 496 -207q66 7 94 69t28 197h115zM803 145q217 0 350 160t133 404
q0 157 -57.5 282t-168.5 198t-257 73q-219 0 -354.5 -157t-135.5 -396q0 -159 60.5 -287t173 -202.5t256.5 -74.5z" />
    <glyph glyph-name="ohorn" unicode="&#x1a1;" horiz-adv-x="1132" 
d="M1161 1061q0 -150 -38.5 -236.5t-121.5 -117.5q35 -96 35 -218q0 -235 -127.5 -374.5t-343.5 -139.5q-215 0 -342 139.5t-127 374.5q0 236 127 375.5t342 139.5q130 0 230 -52t161 -149q47 19 69 80t22 178h114zM565 135q131 0 209 96.5t78 257.5q0 162 -78 258.5
t-209 96.5q-130 0 -207 -96t-77 -259q0 -162 77 -258t207 -96z" />
    <glyph glyph-name="Uhorn" unicode="&#x1af;" horiz-adv-x="1404" 
d="M1460 1491q0 -181 -57 -271.5t-178 -97.5v-649q0 -28 -0.5 -47.5t-5.5 -61t-13.5 -73t-27 -75t-44 -75.5t-66 -66t-91 -56t-121.5 -36t-156 -14q-84 0 -154.5 14t-121 36t-90.5 56t-65 66t-43 75.5t-26.5 74.5t-13.5 72.5t-5.5 60.5t-0.5 47v936h185v-936q0 -21 0.5 -34
t3.5 -42t8.5 -49t17 -48.5t27.5 -48.5t42 -42.5t58.5 -36t78 -22.5t99.5 -9q70 0 125 14.5t90 35.5t60 54.5t36.5 60t18 64.5t7.5 56.5t1 46.5v936h187v-182q66 9 93.5 70.5t27.5 195.5h114z" />
    <glyph glyph-name="uhorn" unicode="&#x1b0;" horiz-adv-x="1163" 
d="M1231 1061q0 -183 -59 -273.5t-183 -97.5v-690h-180v139q-143 -164 -348 -164q-48 0 -89 9t-69.5 23t-51.5 36.5t-37.5 43.5t-25 50t-15.5 49.5t-7.5 49t-3 41.5t-0.5 34v666h180v-637q0 -197 168 -197q154 0 299 168v666h180v-182q69 6 98 67.5t29 198.5h115z" />
    <glyph glyph-name="uni01CD" unicode="&#x1cd;" horiz-adv-x="1243" 
d="M952 1724l-321 -229l-322 229l78 107l244 -182l243 184zM1014 0l-117 383h-547l-127 -383h-190l491 1407h236l450 -1407h-196zM406 547h442l-211 694z" />
    <glyph glyph-name="uni01CE" unicode="&#x1ce;" horiz-adv-x="978" 
d="M766 1362l-285 -252l-278 252l84 98l196 -184l197 182zM477 1001q99 0 170.5 -29t109 -80t54 -109t16.5 -128v-655h-178v111q-118 -136 -278 -136q-133 0 -210 77.5t-77 205.5q0 168 143 246.5t422 81.5v51q0 32 -2.5 56t-13.5 55t-30 50.5t-56 33.5t-88 14
q-123 0 -266 -70l-56 144q166 81 340 81zM420 133q129 0 229 129v176q-203 -1 -293 -41t-90 -127q0 -62 41 -99.5t113 -37.5z" />
    <glyph glyph-name="uni01CF" unicode="&#x1cf;" horiz-adv-x="579" 
d="M610 1724l-321 -229l-322 229l78 107l244 -182l243 184zM197 0v1407h186v-1407h-186z" />
    <glyph glyph-name="uni01D0" unicode="&#x1d0;" horiz-adv-x="526" 
d="M549 1362l-285 -252l-278 252l84 98l196 -184l197 182zM174 0v977h180v-977h-180z" />
    <glyph glyph-name="uni01D1" unicode="&#x1d1;" horiz-adv-x="1599" 
d="M1126 1724l-321 -229l-322 229l78 107l244 -182l244 184zM807 1432q201 0 354.5 -91t237.5 -256t84 -378t-84 -379.5t-238.5 -259.5t-355.5 -93t-358 93t-243.5 259t-86.5 378q0 210 86 375.5t243.5 258.5t360.5 93zM803 145q217 0 350 160t133 404q0 157 -57.5 282
t-168.5 198t-257 73q-219 0 -354.5 -157t-135.5 -396q0 -159 60.5 -287t173 -202.5t256.5 -74.5z" />
    <glyph glyph-name="uni01D2" unicode="&#x1d2;" horiz-adv-x="1132" 
d="M852 1362l-285 -252l-278 252l84 98l196 -184l197 182zM565 1004q217 0 344 -139.5t127 -375.5q0 -235 -127.5 -374.5t-343.5 -139.5q-215 0 -342 139.5t-127 374.5q0 236 127 375.5t342 139.5zM565 135q131 0 209 96.5t78 257.5q0 162 -78 258.5t-209 96.5
q-130 0 -207 -96t-77 -259q0 -162 77 -258t207 -96z" />
    <glyph glyph-name="uni01D3" unicode="&#x1d3;" horiz-adv-x="1404" 
d="M1022 1724l-322 -229l-321 229l78 107l243 -182l244 184zM1038 1407h187v-934q0 -28 -0.5 -47.5t-5.5 -61t-13.5 -73t-27 -75t-44 -75.5t-66 -66t-91 -56t-121.5 -36t-156 -14q-84 0 -154.5 14t-121 36t-90.5 56t-65 66t-43 75.5t-26.5 74.5t-13.5 72.5t-5.5 60.5
t-0.5 47v936h185v-936q0 -21 0.5 -34t3.5 -42t8.5 -49t17 -48.5t27.5 -48.5t42 -42.5t58.5 -36t78 -22.5t99.5 -9q70 0 125 14.5t90 35.5t60 54.5t36.5 60t18 64.5t7.5 56.5t1 46.5v936z" />
    <glyph glyph-name="uni01D4" unicode="&#x1d4;" horiz-adv-x="1163" 
d="M860 1362l-285 -252l-278 252l84 98l197 -184l196 182zM809 977h180v-977h-180v139q-143 -164 -348 -164q-48 0 -89 9t-69.5 23t-51.5 36.5t-37.5 43.5t-25 50t-15.5 49.5t-7.5 49t-3 41.5t-0.5 34v666h180v-637q0 -197 168 -197q154 0 299 168v666z" />
    <glyph glyph-name="uni01D5" unicode="&#x1d5;" horiz-adv-x="1404" 
d="M958 2011v-129h-514v129h514zM528 1542q-46 0 -78 33t-32 80q0 44 32 76t78 32q44 0 76.5 -32t32.5 -76q0 -47 -32 -80t-77 -33zM883 1542q-46 0 -78.5 33t-32.5 80q0 44 32.5 76t78.5 32q43 0 74.5 -32t31.5 -76q0 -47 -31.5 -80t-74.5 -33zM365 1407v-936
q0 -21 0.5 -34t3.5 -42t8.5 -49t17 -48.5t27.5 -48.5t42 -42.5t58.5 -36t78 -22.5t99.5 -9q70 0 125 14.5t90 35.5t60 54.5t36.5 60t18 64.5t7.5 56.5t1 46.5v936h187v-934q0 -28 -0.5 -47.5t-5.5 -61t-13.5 -73t-27 -75t-44 -75.5t-66 -66t-91 -56t-121.5 -36t-156 -14
q-84 0 -154.5 14t-121 36t-90.5 56t-65 66t-43 75.5t-26.5 74.5t-13.5 72.5t-5.5 60.5t-0.5 47v936h185z" />
    <glyph glyph-name="uni01D6" unicode="&#x1d6;" horiz-adv-x="1163" 
d="M831 1679v-129h-514v129h514zM397 1184q-44 0 -73 30.5t-29 75.5q0 42 29.5 72.5t72.5 30.5q41 0 72 -31t31 -72q0 -44 -30.5 -75t-72.5 -31zM756 1393q41 0 71.5 -31t30.5 -72q0 -44 -30 -75t-72 -31q-44 0 -74.5 31t-30.5 75q0 42 30.5 72.5t74.5 30.5zM809 977h180
v-977h-180v139q-143 -164 -348 -164q-48 0 -89 9t-69.5 23t-51.5 36.5t-37.5 43.5t-25 50t-15.5 49.5t-7.5 49t-3 41.5t-0.5 34v666h180v-637q0 -197 168 -197q154 0 299 168v666z" />
    <glyph glyph-name="uni01D7" unicode="&#x1d7;" horiz-adv-x="1404" 
d="M971 2017l-330 -227l-68 96l322 246zM528 1542q-46 0 -78 33t-32 80q0 44 32 76t78 32q44 0 76.5 -32t32.5 -76q0 -47 -32 -80t-77 -33zM883 1542q-46 0 -78.5 33t-32.5 80q0 44 32.5 76t78.5 32q43 0 74.5 -32t31.5 -76q0 -47 -31.5 -80t-74.5 -33zM365 1407v-936
q0 -21 0.5 -34t3.5 -42t8.5 -49t17 -48.5t27.5 -48.5t42 -42.5t58.5 -36t78 -22.5t99.5 -9q70 0 125 14.5t90 35.5t60 54.5t36.5 60t18 64.5t7.5 56.5t1 46.5v936h187v-934q0 -28 -0.5 -47.5t-5.5 -61t-13.5 -73t-27 -75t-44 -75.5t-66 -66t-91 -56t-121.5 -36t-156 -14
q-84 0 -154.5 14t-121 36t-90.5 56t-65 66t-43 75.5t-26.5 74.5t-13.5 72.5t-5.5 60.5t-0.5 47v936h185z" />
    <glyph glyph-name="uni01D8" unicode="&#x1d8;" horiz-adv-x="1163" 
d="M819 1690l-325 -234l-78 103l315 253zM397 1184q-44 0 -73 30.5t-29 75.5q0 42 29.5 72.5t72.5 30.5q41 0 72 -31t31 -72q0 -44 -30.5 -75t-72.5 -31zM651 1290q0 42 30.5 72.5t74.5 30.5q41 0 71.5 -31t30.5 -72q0 -44 -30 -75t-72 -31q-44 0 -74.5 31t-30.5 75z
M809 977h180v-977h-180v139q-143 -164 -348 -164q-48 0 -89 9t-69.5 23t-51.5 36.5t-37.5 43.5t-25 50t-15.5 49.5t-7.5 49t-3 41.5t-0.5 34v666h180v-637q0 -197 168 -197q154 0 299 168v666z" />
    <glyph glyph-name="uni01D9" unicode="&#x1d9;" horiz-adv-x="1404" 
d="M1022 2015l-322 -229l-321 229l78 107l243 -183l244 185zM418 1655q0 44 32 76t78 32q44 0 76.5 -32t32.5 -76q0 -47 -32 -80t-77 -33q-46 0 -78 33t-32 80zM772 1655q0 44 32.5 76t78.5 32q43 0 74.5 -32t31.5 -76q0 -47 -31.5 -80t-74.5 -33q-46 0 -78.5 33t-32.5 80z
M1038 1407h187v-934q0 -28 -0.5 -47.5t-5.5 -61t-13.5 -73t-27 -75t-44 -75.5t-66 -66t-91 -56t-121.5 -36t-156 -14q-84 0 -154.5 14t-121 36t-90.5 56t-65 66t-43 75.5t-26.5 74.5t-13.5 72.5t-5.5 60.5t-0.5 47v936h185v-936q0 -21 0.5 -34t3.5 -42t8.5 -49t17 -48.5
t27.5 -48.5t42 -42.5t58.5 -36t78 -22.5t99.5 -9q70 0 125 14.5t90 35.5t60 54.5t36.5 60t18 64.5t7.5 56.5t1 46.5v936z" />
    <glyph glyph-name="uni01DA" unicode="&#x1da;" horiz-adv-x="1163" 
d="M860 1702l-285 -252l-278 252l84 98l197 -184l196 182zM397 1184q-44 0 -73 30.5t-29 75.5q0 42 29.5 72.5t72.5 30.5q41 0 72 -31t31 -72q0 -44 -30.5 -75t-72.5 -31zM651 1290q0 42 30.5 72.5t74.5 30.5q41 0 71.5 -31t30.5 -72q0 -44 -30 -75t-72 -31q-44 0 -74.5 31
t-30.5 75zM809 977h180v-977h-180v139q-143 -164 -348 -164q-48 0 -89 9t-69.5 23t-51.5 36.5t-37.5 43.5t-25 50t-15.5 49.5t-7.5 49t-3 41.5t-0.5 34v666h180v-637q0 -197 168 -197q154 0 299 168v666z" />
    <glyph glyph-name="uni01DB" unicode="&#x1db;" horiz-adv-x="1404" 
d="M819 1886l-65 -96l-332 227l78 115zM528 1542q-46 0 -78 33t-32 80q0 44 32 76t78 32q44 0 76.5 -32t32.5 -76q0 -47 -32 -80t-77 -33zM883 1542q-46 0 -78.5 33t-32.5 80q0 44 32.5 76t78.5 32q43 0 74.5 -32t31.5 -76q0 -47 -31.5 -80t-74.5 -33zM365 1407v-936
q0 -21 0.5 -34t3.5 -42t8.5 -49t17 -48.5t27.5 -48.5t42 -42.5t58.5 -36t78 -22.5t99.5 -9q70 0 125 14.5t90 35.5t60 54.5t36.5 60t18 64.5t7.5 56.5t1 46.5v936h187v-934q0 -28 -0.5 -47.5t-5.5 -61t-13.5 -73t-27 -75t-44 -75.5t-66 -66t-91 -56t-121.5 -36t-156 -14
q-84 0 -154.5 14t-121 36t-90.5 56t-65 66t-43 75.5t-26.5 74.5t-13.5 72.5t-5.5 60.5t-0.5 47v936h185z" />
    <glyph glyph-name="uni01DC" unicode="&#x1dc;" horiz-adv-x="1163" 
d="M721 1552l-76 -100l-328 231l89 125zM397 1184q-44 0 -73 30.5t-29 75.5q0 42 29.5 72.5t72.5 30.5q41 0 72 -31t31 -72q0 -44 -30.5 -75t-72.5 -31zM651 1290q0 42 30.5 72.5t74.5 30.5q41 0 71.5 -31t30.5 -72q0 -44 -30 -75t-72 -31q-44 0 -74.5 31t-30.5 75zM809 977
h180v-977h-180v139q-143 -164 -348 -164q-48 0 -89 9t-69.5 23t-51.5 36.5t-37.5 43.5t-25 50t-15.5 49.5t-7.5 49t-3 41.5t-0.5 34v666h180v-637q0 -197 168 -197q154 0 299 168v666z" />
    <glyph glyph-name="uni01F8" unicode="&#x1f8;" horiz-adv-x="1552" 
d="M885 1595l-66 -96l-332 227l78 115zM1174 1407h182v-1407h-207l-770 1155v-1155h-182v1407h233l744 -1114v1114z" />
    <glyph glyph-name="uni01F9" unicode="&#x1f9;" horiz-adv-x="1167" 
d="M739 1212l-75 -100l-328 231l88 125zM711 1001q61 0 109 -16t78.5 -39t52.5 -60.5t32 -67.5t16 -74t6.5 -66t0.5 -57v-621h-181v596q0 27 -0.5 42t-4 44t-10 46.5t-19.5 39.5t-32 35t-48.5 22t-67.5 9q-163 0 -289 -162v-672h-180v977h180v-141q155 165 357 165z" />
    <glyph glyph-name="Oslashacute" unicode="&#x1fe;" horiz-adv-x="1599" 
d="M1075 1726l-330 -227l-67 96l321 246zM1202 1313q133 -95 207 -252t74 -354q0 -213 -84 -379.5t-238.5 -259.5t-355.5 -93q-140 0 -264 48l-105 -205l-145 73l106 209q-132 96 -206 253.5t-74 351.5q0 210 86 375.5t243.5 258.5t360.5 93q137 0 250 -43l102 198l146 -74z
M313 709q0 -134 45 -249t125 -192l494 963q-82 31 -174 31q-219 0 -354.5 -157t-135.5 -396zM803 145q217 0 350 160t133 404q0 135 -44 248t-126 188l-493 -965q81 -35 180 -35z" />
    <glyph glyph-name="oslashacute" unicode="&#x1ff;" horiz-adv-x="1132" 
d="M811 1350l-326 -234l-77 103l315 254zM868 903q81 -67 124.5 -173t43.5 -241q0 -235 -127.5 -374.5t-343.5 -139.5q-112 0 -196 37l-74 -131l-117 62l78 139q-160 141 -160 407q0 236 127 375.5t342 139.5q95 0 189 -33l73 133l119 -62zM281 489q0 -151 67 -243l324 577
q-50 21 -107 21q-130 0 -207 -96t-77 -259zM565 135q131 0 209 96.5t78 257.5q0 158 -74 254l-327 -583q55 -25 114 -25z" />
    <glyph glyph-name="uni0218" unicode="&#x218;" horiz-adv-x="962" 
d="M559 1432q143 0 266 -37l-41 -166q-118 35 -227 35q-117 0 -185.5 -56t-68.5 -143q0 -56 31.5 -104.5t82 -85t111 -72.5t121.5 -77.5t111.5 -89t82 -117t31.5 -152.5q0 -172 -121.5 -282t-316.5 -110q-178 0 -340 78l60 160q142 -68 276 -68q109 0 181.5 60t72.5 155
q0 59 -31.5 109t-82 87.5t-111.5 74t-121.5 77.5t-111 87.5t-82 113.5t-31.5 148q0 167 123 271t321 104zM547 -135l-107 -346h-147l80 346h174z" />
    <glyph glyph-name="uni0219" unicode="&#x219;" horiz-adv-x="794" 
d="M356 -23q-140 0 -266 52l43 151q126 -47 217 -47q76 0 126 36t50 97q0 39 -23.5 70t-61 53t-83 42.5t-91 45.5t-83 56t-61 80.5t-23.5 111.5q0 132 92.5 203t247.5 71q120 0 226 -34l-37 -148q-109 31 -180 31q-78 0 -124 -32t-46 -85q0 -35 23.5 -64.5t61.5 -51.5
t83.5 -44t91 -49t83.5 -60t61.5 -83.5t23.5 -112.5q0 -129 -94.5 -209t-256.5 -80zM473 -135l-98 -305h-148l74 305h172z" />
    <glyph glyph-name="uni021A" unicode="&#x21a;" horiz-adv-x="1130" 
d="M1098 1407v-168h-447v-1239h-186v1239h-432v168h1065zM381 -481l80 346h174l-107 -346h-147z" />
    <glyph glyph-name="uni021B" unicode="&#x21b;" horiz-adv-x="753" 
d="M461 -20q-275 0 -275 278v565h-149v47l287 295h43v-188h307v-154h-307v-508q0 -87 27 -129.5t106 -42.5q71 0 162 39l49 -149q-111 -53 -250 -53zM551 -135l-98 -305h-148l74 305h172z" />
    <glyph glyph-name="uni0237" unicode="&#x237;" horiz-adv-x="526" 
d="M354 977v-1137q0 -30 -0.5 -47.5t-3 -52.5t-7.5 -57.5t-15.5 -55t-25 -54t-37.5 -45.5t-52 -38t-69.5 -23.5t-88.5 -9.5q-71 0 -151 17l33 159q63 -10 94 -10q41 0 69.5 13.5t42.5 31t21.5 52.5t8.5 58t1 68v1131h180z" />
    <glyph glyph-name="circumflex" unicode="&#x2c6;" horiz-adv-x="755" 
d="M674 1229l-72 -101l-225 164l-225 -164l-70 101l297 233z" />
    <glyph glyph-name="caron" unicode="&#x2c7;" horiz-adv-x="727" 
d="M559 1458l86 -96l-285 -252l-278 252l84 98l196 -184z" />
    <glyph glyph-name="breve" unicode="&#x2d8;" horiz-adv-x="747" 
d="M666 1413q0 -126 -81 -203t-212 -77t-211 77t-80 203h141q0 -73 40.5 -114.5t109.5 -41.5q71 0 110 40.5t39 115.5h144z" />
    <glyph glyph-name="dotaccent" unicode="&#x2d9;" horiz-adv-x="382" 
d="M199 1401q47 0 81.5 -35t34.5 -84t-34.5 -84t-81.5 -35q-48 0 -82.5 35t-34.5 84t34.5 84t82.5 35z" />
    <glyph glyph-name="ring" unicode="&#x2da;" horiz-adv-x="563" 
d="M481 1286q0 -88 -60.5 -137t-141.5 -49q-78 0 -137.5 49t-59.5 137q0 84 60 132t137 48q80 0 141 -48t61 -132zM369 1286q0 38 -26.5 61t-63.5 23q-34 0 -59 -23t-25 -61q0 -42 24.5 -65t59.5 -23q38 0 64 23t26 65z" />
    <glyph glyph-name="ogonek" unicode="&#x2db;" horiz-adv-x="528" 
d="M311 55l88 -55q-78 -69 -124 -146.5t-46 -144.5q0 -58 28.5 -90.5t80.5 -32.5q31 0 80 17l28 -111q-64 -29 -141 -29q-102 0 -162.5 59t-60.5 161q0 91 58.5 188.5t170.5 183.5z" />
    <glyph glyph-name="tilde" unicode="&#x2dc;" horiz-adv-x="815" 
d="M143 1176l-61 98q106 100 213 100q56 0 128.5 -37t111.5 -37q62 0 137 66l61 -100q-110 -99 -207 -99q-57 0 -127 37t-114 37q-64 0 -142 -65z" />
    <glyph glyph-name="hungarumlaut" unicode="&#x2dd;" horiz-adv-x="849" 
d="M430 1403l-262 -289l-86 76l248 307zM768 1391l-281 -273l-81 82l268 291z" />
    <glyph glyph-name="gravecomb" unicode="&#x300;" 
d="M-82 1212l-76 -100l-327 231l88 125z" />
    <glyph glyph-name="acutecomb" unicode="&#x301;" 
d="M-82 1350l-326 -234l-77 103l315 254z" />
    <glyph glyph-name="uni0302" unicode="&#x302;" 
d="M-82 1229l-72 -101l-225 164l-225 -164l-70 101l297 233z" />
    <glyph glyph-name="tildecomb" unicode="&#x303;" 
d="M-672 1176l-61 98q106 100 213 100q56 0 128 -37t111 -37q63 0 138 66l61 -100q-110 -99 -207 -99q-57 0 -127 37t-114 37q-64 0 -142 -65z" />
    <glyph glyph-name="uni0304" unicode="&#x304;" 
d="M-82 1339v-129h-514v129h514z" />
    <glyph glyph-name="uni0306" unicode="&#x306;" 
d="M-82 1413q0 -126 -81 -203t-212 -77t-211 77t-80 203h142q0 -73 40 -114.5t109 -41.5q71 0 110.5 40.5t39.5 115.5h143z" />
    <glyph glyph-name="uni0307" unicode="&#x307;" 
d="M-199 1401q48 0 82.5 -35t34.5 -84t-34.5 -84t-82.5 -35q-47 0 -81.5 35t-34.5 84t34.5 84t81.5 35z" />
    <glyph glyph-name="uni0308" unicode="&#x308;" 
d="M-543 1393q41 0 72 -31t31 -72q0 -44 -30.5 -75t-72.5 -31q-44 0 -73 30.5t-29 75.5q0 42 29.5 72.5t72.5 30.5zM-184 1393q41 0 71.5 -31t30.5 -72q0 -44 -30 -75t-72 -31q-44 0 -74.5 31t-30.5 75q0 42 30.5 72.5t74.5 30.5z" />
    <glyph glyph-name="hookabovecomb" unicode="&#x309;" 
d="M-352 1395q146 0 208 -31t62 -100q0 -34 -15.5 -60t-34.5 -40t-37 -37t-21 -50h-129q5 35 20.5 60.5t31.5 36.5t29 25.5t13 31.5q0 53 -127 53v111z" />
    <glyph glyph-name="uni030A" unicode="&#x30a;" 
d="M-82 1286q0 -88 -61 -137t-142 -49q-78 0 -137 49t-59 137q0 84 59.5 132t136.5 48q80 0 141.5 -48t61.5 -132zM-195 1286q0 38 -26.5 61t-63.5 23q-34 0 -59 -23t-25 -61q0 -42 24.5 -65t59.5 -23q38 0 64 23t26 65z" />
    <glyph glyph-name="uni030B" unicode="&#x30b;" 
d="M-420 1403l-262 -289l-86 76l248 307zM-82 1391l-280 -273l-82 82l268 291z" />
    <glyph glyph-name="uni030C" unicode="&#x30c;" 
d="M-168 1458l86 -96l-285 -252l-278 252l84 98l196 -184z" />
    <glyph glyph-name="uni031B" unicode="&#x31b;" 
d="M-82 1061q0 -191 -64 -281t-200 -90v103q82 0 115.5 60t33.5 208h115z" />
    <glyph glyph-name="dotbelowcomb" unicode="&#x323;" 
d="M-190 -133q44 0 76 -32.5t32 -76.5q0 -47 -31.5 -79.5t-76.5 -32.5q-46 0 -78.5 32.5t-32.5 79.5q0 44 32.5 76.5t78.5 32.5z" />
    <glyph glyph-name="uni0326" unicode="&#x326;" 
d="M-82 -135l-98 -305h-148l74 305h172z" />
    <glyph glyph-name="uni0327" unicode="&#x327;" 
d="M-137 16q23 -44 39 -104t16 -113q0 -115 -79.5 -177t-229.5 -62v131q162 0 162 135q0 83 -58 190h150z" />
    <glyph glyph-name="uni0328" unicode="&#x328;" 
d="M-217 55l88 -55q-78 -69 -124 -146.5t-46 -144.5q0 -58 28.5 -90.5t80.5 -32.5q30 0 79 17l29 -111q-64 -29 -141 -29q-102 0 -162.5 59t-60.5 161q0 91 58.5 188.5t170.5 183.5z" />
    <glyph glyph-name="uni0394" unicode="&#x394;" horiz-adv-x="1210" 
d="M719 1407l493 -1407h-1214l518 1407h203zM616 1204l-362 -1040h704z" />
    <glyph glyph-name="uni03A9" unicode="&#x3a9;" horiz-adv-x="1562" 
d="M1481 774q0 -188 -90.5 -343.5t-257.5 -258.5h311v-172h-551v172q175 82 286 230.5t111 351.5q0 229 -141.5 372.5t-368.5 143.5q-229 0 -371.5 -143.5t-142.5 -372.5q0 -203 112 -352t290 -230v-172h-553v172h311q-167 104 -258.5 259t-91.5 341q0 135 52.5 257
t144.5 212t224 143.5t283 53.5q150 0 281.5 -53t223 -143t144 -212t52.5 -256z" />
    <glyph glyph-name="uni03BC" unicode="&#x3bc;" horiz-adv-x="1173" 
d="M819 977h180v-977h-180v168q-60 -104 -130.5 -148.5t-162.5 -44.5q-103 0 -172 56v-543h-180v1489h180v-633q0 -21 0.5 -33t3.5 -36t9.5 -39t19 -34.5t30 -31t45.5 -19.5t64 -8q178 0 293 209v625z" />
    <glyph glyph-name="pi" unicode="&#x3c0;" horiz-adv-x="1224" 
d="M1174 977v-154h-160v-823h-183v823h-436v-823h-180v823h-164v154h1123z" />
    <glyph glyph-name="Wgrave" unicode="&#x1e80;" horiz-adv-x="1959" 
d="M1094 1595l-66 -96l-332 227l78 115zM1712 1407h193l-377 -1407h-172l-371 1026l-348 -1026h-168l-414 1407h195l315 -1118l381 1118h80l412 -1124z" />
    <glyph glyph-name="wgrave" unicode="&#x1e81;" horiz-adv-x="1499" 
d="M899 1212l-76 -100l-327 231l88 125zM1290 977h176l-288 -977h-170l-258 655l-248 -655h-168l-299 977h180l219 -746l281 746h78l290 -746z" />
    <glyph glyph-name="Wacute" unicode="&#x1e82;" horiz-adv-x="1959" 
d="M1247 1726l-329 -227l-68 96l321 246zM1712 1407h193l-377 -1407h-172l-371 1026l-348 -1026h-168l-414 1407h195l315 -1118l381 1118h80l412 -1124z" />
    <glyph glyph-name="wacute" unicode="&#x1e83;" horiz-adv-x="1499" 
d="M997 1350l-325 -234l-78 103l315 254zM1290 977h176l-288 -977h-170l-258 655l-248 -655h-168l-299 977h180l219 -746l281 746h78l290 -746z" />
    <glyph glyph-name="Wdieresis" unicode="&#x1e84;" horiz-adv-x="1959" 
d="M803 1542q-46 0 -78.5 33t-32.5 80q0 44 32.5 76t78.5 32q44 0 76 -32t32 -76q0 -47 -32 -80t-76 -33zM1157 1542q-46 0 -78 33t-32 80q0 44 32 76t78 32q43 0 75 -32t32 -76q0 -47 -32 -80t-75 -33zM1712 1407h193l-377 -1407h-172l-371 1026l-348 -1026h-168l-414 1407
h195l315 -1118l381 1118h80l412 -1124z" />
    <glyph glyph-name="wdieresis" unicode="&#x1e85;" horiz-adv-x="1499" 
d="M573 1184q-44 0 -73 30.5t-29 75.5q0 42 29.5 72.5t72.5 30.5q41 0 72 -31t31 -72q0 -44 -30.5 -75t-72.5 -31zM932 1184q-44 0 -74.5 31t-30.5 75q0 42 30.5 72.5t74.5 30.5q41 0 71.5 -31t30.5 -72q0 -44 -30 -75t-72 -31zM1290 977h176l-288 -977h-170l-258 655
l-248 -655h-168l-299 977h180l219 -746l281 746h78l290 -746z" />
    <glyph glyph-name="uni1E9E" unicode="&#x1e9e;" horiz-adv-x="1308" 
d="M842 784q221 -141 300 -235t79 -211q0 -166 -116 -264.5t-312 -98.5q-124 0 -252 41l32 166q115 -35 222 -35q109 0 173 52.5t64 140.5q0 72 -79.5 145.5t-317.5 221.5v69l256 463h-508v-1239h-186v1407h948v-76z" />
    <glyph glyph-name="uni1EA0" unicode="&#x1ea0;" horiz-adv-x="1243" 
d="M1210 0h-196l-117 383h-547l-127 -383h-190l491 1407h236zM406 547h442l-211 694zM621 -133q44 0 76 -32.5t32 -76.5q0 -47 -31.5 -79.5t-76.5 -32.5q-46 0 -78.5 32.5t-32.5 79.5q0 44 32.5 76.5t78.5 32.5z" />
    <glyph glyph-name="uni1EA1" unicode="&#x1ea1;" horiz-adv-x="978" 
d="M477 1001q99 0 170.5 -29t109 -80t54 -109t16.5 -128v-655h-178v111q-118 -136 -278 -136q-133 0 -210 77.5t-77 205.5q0 168 143 246.5t422 81.5v51q0 32 -2.5 56t-13.5 55t-30 50.5t-56 33.5t-88 14q-123 0 -266 -70l-56 144q166 81 340 81zM420 133q129 0 229 129v176
q-203 -1 -293 -41t-90 -127q0 -62 41 -99.5t113 -37.5zM461 -133q44 0 76 -32.5t32 -76.5q0 -47 -31.5 -79.5t-76.5 -32.5q-46 0 -78.5 32.5t-32.5 79.5q0 44 32.5 76.5t78.5 32.5z" />
    <glyph glyph-name="uni1EA2" unicode="&#x1ea2;" horiz-adv-x="1243" 
d="M662 1661q0 53 -127 53v111q146 0 208 -31t62 -100q0 -28 -10 -49.5t-25.5 -36t-31 -28.5t-27.5 -32.5t-15 -40.5h-129q5 35 21 60.5t32 36.5t29 25.5t13 31.5zM1014 0l-117 383h-547l-127 -383h-190l491 1407h236l450 -1407h-196zM406 547h442l-211 694z" />
    <glyph glyph-name="uni1EA3" unicode="&#x1ea3;" horiz-adv-x="978" 
d="M510 1231q0 53 -127 53v111q146 0 208 -31t62 -100q0 -34 -15.5 -60t-34.5 -40t-37 -37t-21 -50h-129q5 35 20.5 60.5t31.5 36.5t29 25.5t13 31.5zM477 1001q99 0 170.5 -29t109 -80t54 -109t16.5 -128v-655h-178v111q-118 -136 -278 -136q-133 0 -210 77.5t-77 205.5
q0 168 143 246.5t422 81.5v51q0 32 -2.5 56t-13.5 55t-30 50.5t-56 33.5t-88 14q-123 0 -266 -70l-56 144q166 81 340 81zM420 133q129 0 229 129v176q-203 -1 -293 -41t-90 -127q0 -62 41 -99.5t113 -37.5z" />
    <glyph glyph-name="uni1EA4" unicode="&#x1ea4;" horiz-adv-x="1243" 
d="M1194 1987l-330 -228l-67 96l321 246zM633 1683l-264 -178l-74 109l338 229l338 -227l-74 -111zM1014 0l-117 383h-547l-127 -383h-190l491 1407h236l450 -1407h-196zM406 547h442l-211 694z" />
    <glyph glyph-name="uni1EA5" unicode="&#x1ea5;" horiz-adv-x="978" 
d="M973 1642l-326 -233l-78 102l316 254zM479 1292l-225 -164l-70 101l297 233l295 -233l-71 -101zM477 1001q99 0 170.5 -29t109 -80t54 -109t16.5 -128v-655h-178v111q-118 -136 -278 -136q-133 0 -210 77.5t-77 205.5q0 168 143 246.5t422 81.5v51q0 32 -2.5 56t-13.5 55
t-30 50.5t-56 33.5t-88 14q-123 0 -266 -70l-56 144q166 81 340 81zM420 133q129 0 229 129v176q-203 -1 -293 -41t-90 -127q0 -62 41 -99.5t113 -37.5z" />
    <glyph glyph-name="uni1EA6" unicode="&#x1ea6;" horiz-adv-x="1243" 
d="M1040 1855l-65 -96l-332 228l78 114zM633 1683l-264 -178l-74 109l338 229l338 -227l-74 -111zM1014 0l-117 383h-547l-127 -383h-190l491 1407h236l450 -1407h-196zM406 547h442l-211 694z" />
    <glyph glyph-name="uni1EA7" unicode="&#x1ea7;" horiz-adv-x="978" 
d="M874 1505l-75 -100l-328 231l88 125zM479 1292l-225 -164l-70 101l297 233l295 -233l-71 -101zM477 1001q99 0 170.5 -29t109 -80t54 -109t16.5 -128v-655h-178v111q-118 -136 -278 -136q-133 0 -210 77.5t-77 205.5q0 168 143 246.5t422 81.5v51q0 32 -2.5 56t-13.5 55
t-30 50.5t-56 33.5t-88 14q-123 0 -266 -70l-56 144q166 81 340 81zM420 133q129 0 229 129v176q-203 -1 -293 -41t-90 -127q0 -62 41 -99.5t113 -37.5z" />
    <glyph glyph-name="uni1EA8" unicode="&#x1ea8;" horiz-adv-x="1243" 
d="M952 1921q0 53 -127 53v111q146 0 208.5 -31t62.5 -100q0 -28 -10 -49.5t-25.5 -36t-31 -28.5t-27.5 -32.5t-15 -40.5h-129q5 35 20.5 60.5t31.5 36.5t29 25.5t13 31.5zM633 1683l-264 -178l-74 109l338 229l338 -227l-74 -111zM1014 0l-117 383h-547l-127 -383h-190
l491 1407h236l450 -1407h-196zM406 547h442l-211 694z" />
    <glyph glyph-name="uni1EA9" unicode="&#x1ea9;" horiz-adv-x="978" 
d="M631 1688q145 0 207.5 -31.5t62.5 -100.5q0 -28 -10 -49.5t-25 -36t-30.5 -28t-27.5 -32t-15 -40.5h-129q5 35 20.5 60.5t31.5 36.5t29 25.5t13 31.5q0 53 -127 53v111zM479 1292l-225 -164l-70 101l297 233l295 -233l-71 -101zM477 1001q99 0 170.5 -29t109 -80t54 -109
t16.5 -128v-655h-178v111q-118 -136 -278 -136q-133 0 -210 77.5t-77 205.5q0 168 143 246.5t422 81.5v51q0 32 -2.5 56t-13.5 55t-30 50.5t-56 33.5t-88 14q-123 0 -266 -70l-56 144q166 81 340 81zM420 133q129 0 229 129v176q-203 -1 -293 -41t-90 -127q0 -62 41 -99.5
t113 -37.5z" />
    <glyph glyph-name="uni1EAA" unicode="&#x1eaa;" horiz-adv-x="1243" 
d="M518 1976q-64 0 -143 -65l-62 98q46 46 104.5 73t114.5 27q55 0 125 -36.5t107 -36.5q61 0 139 63l62 -98q-101 -98 -215 -98q-52 0 -123 36.5t-109 36.5zM633 1683l-264 -178l-74 109l338 229l338 -227l-74 -111zM1014 0l-117 383h-547l-127 -383h-190l491 1407h236
l450 -1407h-196zM406 547h442l-211 694z" />
    <glyph glyph-name="uni1EAB" unicode="&#x1eab;" horiz-adv-x="978" 
d="M356 1595q-63 0 -141 -65l-61 98q107 101 213 101q56 0 128 -37t111 -37q63 0 137 65l62 -100q-109 -98 -207 -98q-57 0 -127.5 36.5t-114.5 36.5zM184 1229l297 233l295 -233l-71 -101l-226 164l-225 -164zM477 1001q99 0 170.5 -29t109 -80t54 -109t16.5 -128v-655
h-178v111q-118 -136 -278 -136q-133 0 -210 77.5t-77 205.5q0 168 143 246.5t422 81.5v51q0 32 -2.5 56t-13.5 55t-30 50.5t-56 33.5t-88 14q-123 0 -266 -70l-56 144q166 81 340 81zM420 133q129 0 229 129v176q-203 -1 -293 -41t-90 -127q0 -62 41 -99.5t113 -37.5z" />
    <glyph glyph-name="uni1EAC" unicode="&#x1eac;" horiz-adv-x="1243" 
d="M633 1683l-264 -178l-74 109l338 229l338 -227l-74 -111zM1210 0h-196l-117 383h-547l-127 -383h-190l491 1407h236zM406 547h442l-211 694zM621 -133q44 0 76 -32.5t32 -76.5q0 -47 -31.5 -79.5t-76.5 -32.5q-46 0 -78.5 32.5t-32.5 79.5q0 44 32.5 76.5t78.5 32.5z" />
    <glyph glyph-name="uni1EAD" unicode="&#x1ead;" horiz-adv-x="978" 
d="M479 1292l-225 -164l-70 101l297 233l295 -233l-71 -101zM477 1001q99 0 170.5 -29t109 -80t54 -109t16.5 -128v-655h-178v111q-118 -136 -278 -136q-133 0 -210 77.5t-77 205.5q0 168 143 246.5t422 81.5v51q0 32 -2.5 56t-13.5 55t-30 50.5t-56 33.5t-88 14
q-123 0 -266 -70l-56 144q166 81 340 81zM420 133q129 0 229 129v176q-203 -1 -293 -41t-90 -127q0 -62 41 -99.5t113 -37.5zM461 -133q44 0 76 -32.5t32 -76.5q0 -47 -31.5 -79.5t-76.5 -32.5q-46 0 -78.5 32.5t-32.5 79.5q0 44 32.5 76.5t78.5 32.5z" />
    <glyph glyph-name="uni1EAE" unicode="&#x1eae;" horiz-adv-x="1243" 
d="M897 1999l-330 -227l-67 96l321 246zM633 1511q-129 0 -208 74t-79 195h141q0 -67 39.5 -105.5t106.5 -38.5t105 38t38 106h144q0 -121 -79 -195t-208 -74zM1014 0l-117 383h-547l-127 -383h-190l491 1407h236l450 -1407h-196zM406 547h442l-211 694z" />
    <glyph glyph-name="uni1EAF" unicode="&#x1eaf;" horiz-adv-x="978" 
d="M725 1696l-326 -234l-77 103l315 254zM481 1133q-131 0 -211 77t-80 203h142q0 -73 40 -114.5t109 -41.5q71 0 110.5 40.5t39.5 115.5h143q0 -126 -81 -203t-212 -77zM477 1001q99 0 170.5 -29t109 -80t54 -109t16.5 -128v-655h-178v111q-118 -136 -278 -136
q-133 0 -210 77.5t-77 205.5q0 168 143 246.5t422 81.5v51q0 32 -2.5 56t-13.5 55t-30 50.5t-56 33.5t-88 14q-123 0 -266 -70l-56 144q166 81 340 81zM420 133q129 0 229 129v176q-203 -1 -293 -41t-90 -127q0 -62 41 -99.5t113 -37.5z" />
    <glyph glyph-name="uni1EB0" unicode="&#x1eb0;" horiz-adv-x="1243" 
d="M745 1868l-65 -96l-332 227l78 115zM633 1511q-129 0 -208 74t-79 195h141q0 -67 39.5 -105.5t106.5 -38.5t105 38t38 106h144q0 -121 -79 -195t-208 -74zM1014 0l-117 383h-547l-127 -383h-190l491 1407h236l450 -1407h-196zM406 547h442l-211 694z" />
    <glyph glyph-name="uni1EB1" unicode="&#x1eb1;" horiz-adv-x="978" 
d="M627 1559l-76 -101l-328 232l88 125zM481 1133q-131 0 -211 77t-80 203h142q0 -73 40 -114.5t109 -41.5q71 0 110.5 40.5t39.5 115.5h143q0 -126 -81 -203t-212 -77zM477 1001q99 0 170.5 -29t109 -80t54 -109t16.5 -128v-655h-178v111q-118 -136 -278 -136
q-133 0 -210 77.5t-77 205.5q0 168 143 246.5t422 81.5v51q0 32 -2.5 56t-13.5 55t-30 50.5t-56 33.5t-88 14q-123 0 -266 -70l-56 144q166 81 340 81zM420 133q129 0 229 129v176q-203 -1 -293 -41t-90 -127q0 -62 41 -99.5t113 -37.5z" />
    <glyph glyph-name="uni1EB2" unicode="&#x1eb2;" horiz-adv-x="1243" 
d="M657 1933q0 54 -127 54v110q146 0 208.5 -31t62.5 -100q0 -28 -10 -49.5t-25.5 -36t-31 -28t-27.5 -32t-15 -40.5h-129q4 29 15 50.5t24 34t25.5 22.5t21 21t8.5 25zM633 1511q-129 0 -208 74t-79 195h141q0 -67 39.5 -105.5t106.5 -38.5t105 38t38 106h144
q0 -121 -79 -195t-208 -74zM1014 0l-117 383h-547l-127 -383h-190l491 1407h236l450 -1407h-196zM406 547h442l-211 694z" />
    <glyph glyph-name="uni1EB3" unicode="&#x1eb3;" horiz-adv-x="978" 
d="M510 1577q0 53 -127 53v111q146 0 208 -31t62 -100q0 -34 -15.5 -60t-34.5 -40t-37 -37t-21 -50h-129q5 35 20.5 60.5t31.5 36.5t29 25.5t13 31.5zM481 1133q-131 0 -211 77t-80 203h142q0 -73 40 -114.5t109 -41.5q71 0 110.5 40.5t39.5 115.5h143q0 -126 -81 -203
t-212 -77zM477 1001q99 0 170.5 -29t109 -80t54 -109t16.5 -128v-655h-178v111q-118 -136 -278 -136q-133 0 -210 77.5t-77 205.5q0 168 143 246.5t422 81.5v51q0 32 -2.5 56t-13.5 55t-30 50.5t-56 33.5t-88 14q-123 0 -266 -70l-56 144q166 81 340 81zM420 133
q129 0 229 129v176q-203 -1 -293 -41t-90 -127q0 -62 41 -99.5t113 -37.5z" />
    <glyph glyph-name="uni1EB4" unicode="&#x1eb4;" horiz-adv-x="1243" 
d="M518 1913q-62 0 -143 -66l-62 99q46 46 104.5 73t114.5 27q55 0 125 -37t107 -37q60 0 139 64l62 -99q-101 -98 -215 -98q-52 0 -123 37t-109 37zM633 1636q67 0 105 38t38 106h144q0 -121 -79 -195t-208 -74t-208 74t-79 195h141q0 -67 39.5 -105.5t106.5 -38.5zM1014 0
l-117 383h-547l-127 -383h-190l491 1407h236l450 -1407h-196zM406 547h442l-211 694z" />
    <glyph glyph-name="uni1EB5" unicode="&#x1eb5;" horiz-adv-x="978" 
d="M356 1587q-63 0 -141 -65l-61 98q106 100 213 100q56 0 128 -36.5t111 -36.5q63 0 137 65l62 -100q-110 -99 -207 -99q-57 0 -127.5 37t-114.5 37zM481 1257q71 0 110.5 40.5t39.5 115.5h143q0 -126 -81 -203t-212 -77t-211 77t-80 203h142q0 -73 40 -114.5t109 -41.5z
M477 1001q99 0 170.5 -29t109 -80t54 -109t16.5 -128v-655h-178v111q-118 -136 -278 -136q-133 0 -210 77.5t-77 205.5q0 168 143 246.5t422 81.5v51q0 32 -2.5 56t-13.5 55t-30 50.5t-56 33.5t-88 14q-123 0 -266 -70l-56 144q166 81 340 81zM420 133q129 0 229 129v176
q-203 -1 -293 -41t-90 -127q0 -62 41 -99.5t113 -37.5z" />
    <glyph glyph-name="uni1EB6" unicode="&#x1eb6;" horiz-adv-x="1243" 
d="M633 1511q-129 0 -208 74t-79 195h141q0 -67 39.5 -105.5t106.5 -38.5t105 38t38 106h144q0 -121 -79 -195t-208 -74zM1210 0h-196l-117 383h-547l-127 -383h-190l491 1407h236zM406 547h442l-211 694zM621 -133q44 0 76 -32.5t32 -76.5q0 -47 -31.5 -79.5t-76.5 -32.5
q-46 0 -78.5 32.5t-32.5 79.5q0 44 32.5 76.5t78.5 32.5z" />
    <glyph glyph-name="uni1EB7" unicode="&#x1eb7;" horiz-adv-x="978" 
d="M481 1133q-131 0 -211 77t-80 203h142q0 -73 40 -114.5t109 -41.5q71 0 110.5 40.5t39.5 115.5h143q0 -126 -81 -203t-212 -77zM477 1001q99 0 170.5 -29t109 -80t54 -109t16.5 -128v-655h-178v111q-118 -136 -278 -136q-133 0 -210 77.5t-77 205.5q0 168 143 246.5
t422 81.5v51q0 32 -2.5 56t-13.5 55t-30 50.5t-56 33.5t-88 14q-123 0 -266 -70l-56 144q166 81 340 81zM420 133q129 0 229 129v176q-203 -1 -293 -41t-90 -127q0 -62 41 -99.5t113 -37.5zM461 -133q44 0 76 -32.5t32 -76.5q0 -47 -31.5 -79.5t-76.5 -32.5
q-46 0 -78.5 32.5t-32.5 79.5q0 44 32.5 76.5t78.5 32.5z" />
    <glyph glyph-name="uni1EB8" unicode="&#x1eb8;" horiz-adv-x="1042" 
d="M383 168h541v-168h-727v1407h692v-168h-506v-426h451v-168h-451v-477zM553 -133q44 0 76.5 -32.5t32.5 -76.5q0 -47 -32 -79.5t-77 -32.5q-46 0 -78.5 32.5t-32.5 79.5q0 44 32.5 76.5t78.5 32.5z" />
    <glyph glyph-name="uni1EB9" unicode="&#x1eb9;" horiz-adv-x="1030" 
d="M547 999q112 0 193 -41.5t125 -117t60 -174.5t5 -222h-654q9 -158 83.5 -236.5t222.5 -78.5q133 0 272 68l59 -140q-164 -82 -352 -82q-226 0 -345.5 129.5t-119.5 370.5q0 242 118 383t333 141zM539 852q-223 0 -258 -258h475q-5 132 -57.5 195t-159.5 63zM567 -133
q44 0 76.5 -32.5t32.5 -76.5q0 -47 -32 -79.5t-77 -32.5q-46 0 -78 32.5t-32 79.5q0 44 32.5 76.5t77.5 32.5z" />
    <glyph glyph-name="uni1EBA" unicode="&#x1eba;" horiz-adv-x="1042" 
d="M573 1661q0 53 -127 53v111q146 0 208.5 -31t62.5 -100q0 -28 -10 -49.5t-25.5 -36t-31 -28.5t-27.5 -32.5t-15 -40.5h-129q5 35 20.5 60.5t31.5 36.5t29 25.5t13 31.5zM383 168h541v-168h-727v1407h692v-168h-506v-426h451v-168h-451v-477z" />
    <glyph glyph-name="uni1EBB" unicode="&#x1ebb;" horiz-adv-x="1030" 
d="M578 1231q0 53 -127 53v111q146 0 208 -31t62 -100q0 -28 -10 -49.5t-25.5 -36t-31 -28.5t-27.5 -32.5t-15 -40.5h-129q5 35 21 60.5t32 36.5t29 25.5t13 31.5zM547 999q112 0 193 -41.5t125 -117t60 -174.5t5 -222h-654q9 -158 83.5 -236.5t222.5 -78.5q133 0 272 68
l59 -140q-164 -82 -352 -82q-226 0 -345.5 129.5t-119.5 370.5q0 242 118 383t333 141zM539 852q-223 0 -258 -258h475q-5 132 -57.5 195t-159.5 63z" />
    <glyph glyph-name="uni1EBC" unicode="&#x1ebc;" horiz-adv-x="1042" 
d="M430 1622q-62 0 -143 -66l-62 99q46 46 104.5 73t114.5 27q55 0 125 -37t107 -37q60 0 139 64l62 -98q-102 -99 -215 -99q-52 0 -123 37t-109 37zM383 168h541v-168h-727v1407h692v-168h-506v-426h451v-168h-451v-477z" />
    <glyph glyph-name="uni1EBD" unicode="&#x1ebd;" horiz-adv-x="1030" 
d="M422 1241q-63 0 -141 -65l-62 98q106 100 213 100q56 0 128.5 -37t111.5 -37q62 0 137 66l61 -100q-110 -99 -206 -99q-57 0 -127.5 37t-114.5 37zM547 999q112 0 193 -41.5t125 -117t60 -174.5t5 -222h-654q9 -158 83.5 -236.5t222.5 -78.5q133 0 272 68l59 -140
q-164 -82 -352 -82q-226 0 -345.5 129.5t-119.5 370.5q0 242 118 383t333 141zM539 852q-223 0 -258 -258h475q-5 132 -57.5 195t-159.5 63z" />
    <glyph glyph-name="uni1EBE" unicode="&#x1ebe;" horiz-adv-x="1042" 
d="M1106 1987l-330 -228l-67 96l321 246zM545 1683l-264 -178l-74 109l338 229l338 -227l-74 -111zM383 645v-477h541v-168h-727v1407h692v-168h-506v-426h451v-168h-451z" />
    <glyph glyph-name="uni1EBF" unicode="&#x1ebf;" horiz-adv-x="1030" 
d="M1040 1642l-325 -233l-78 102l315 254zM547 1292l-225 -164l-70 101l297 233l295 -233l-72 -101zM547 999q112 0 193 -41.5t125 -117t60 -174.5t5 -222h-654q9 -158 83.5 -236.5t222.5 -78.5q133 0 272 68l59 -140q-164 -82 -352 -82q-226 0 -345.5 129.5t-119.5 370.5
q0 242 118 383t333 141zM539 852q-223 0 -258 -258h475q-5 132 -57.5 195t-159.5 63z" />
    <glyph glyph-name="uni1EC0" unicode="&#x1ec0;" horiz-adv-x="1042" 
d="M952 1855l-65 -96l-332 228l78 114zM545 1683l-264 -178l-74 109l338 229l338 -227l-74 -111zM383 645v-477h541v-168h-727v1407h692v-168h-506v-426h451v-168h-451z" />
    <glyph glyph-name="uni1EC1" unicode="&#x1ec1;" horiz-adv-x="1030" 
d="M942 1505l-76 -100l-327 231l88 125zM547 1292l-225 -164l-70 101l297 233l295 -233l-72 -101zM547 999q112 0 193 -41.5t125 -117t60 -174.5t5 -222h-654q9 -158 83.5 -236.5t222.5 -78.5q133 0 272 68l59 -140q-164 -82 -352 -82q-226 0 -345.5 129.5t-119.5 370.5
q0 242 118 383t333 141zM539 852q-223 0 -258 -258h475q-5 132 -57.5 195t-159.5 63z" />
    <glyph glyph-name="uni1EC2" unicode="&#x1ec2;" horiz-adv-x="1042" 
d="M737 2085q146 0 208.5 -31t62.5 -100q0 -28 -10 -49.5t-25.5 -36t-31 -28.5t-27.5 -32.5t-15 -40.5h-129q5 35 20.5 60.5t31.5 36.5t29 25.5t13 31.5q0 53 -127 53v111zM545 1683l-264 -178l-74 109l338 229l338 -227l-74 -111zM383 645v-477h541v-168h-727v1407h692
v-168h-506v-426h451v-168h-451z" />
    <glyph glyph-name="uni1EC3" unicode="&#x1ec3;" horiz-adv-x="1030" 
d="M825 1524q0 53 -127 53v111q145 0 208 -31.5t63 -100.5q0 -28 -10 -49.5t-25.5 -36t-31 -28t-27.5 -32t-15 -40.5h-129q5 35 20.5 60.5t31.5 36.5t29 25.5t13 31.5zM547 1292l-225 -164l-70 101l297 233l295 -233l-72 -101zM547 999q112 0 193 -41.5t125 -117t60 -174.5
t5 -222h-654q9 -158 83.5 -236.5t222.5 -78.5q133 0 272 68l59 -140q-164 -82 -352 -82q-226 0 -345.5 129.5t-119.5 370.5q0 242 118 383t333 141zM539 852q-223 0 -258 -258h475q-5 132 -57.5 195t-159.5 63z" />
    <glyph glyph-name="uni1EC4" unicode="&#x1ec4;" horiz-adv-x="1042" 
d="M430 1976q-64 0 -143 -65l-62 98q46 46 104.5 73t114.5 27q55 0 125 -36.5t107 -36.5q61 0 139 63l62 -98q-101 -98 -215 -98q-52 0 -123 36.5t-109 36.5zM545 1683l-264 -178l-74 109l338 229l338 -227l-74 -111zM383 168h541v-168h-727v1407h692v-168h-506v-426h451
v-168h-451v-477z" />
    <glyph glyph-name="uni1EC5" unicode="&#x1ec5;" horiz-adv-x="1030" 
d="M422 1595q-63 0 -141 -65l-62 98q107 101 213 101q56 0 128.5 -37t111.5 -37q63 0 137 65l61 -100q-109 -98 -206 -98q-57 0 -127.5 36.5t-114.5 36.5zM252 1229l297 233l295 -233l-72 -101l-225 164l-225 -164zM547 999q112 0 193 -41.5t125 -117t60 -174.5t5 -222h-654
q9 -158 83.5 -236.5t222.5 -78.5q133 0 272 68l59 -140q-164 -82 -352 -82q-226 0 -345.5 129.5t-119.5 370.5q0 242 118 383t333 141zM539 852q-223 0 -258 -258h475q-5 132 -57.5 195t-159.5 63z" />
    <glyph glyph-name="uni1EC6" unicode="&#x1ec6;" horiz-adv-x="1042" 
d="M545 1683l-264 -178l-74 109l338 229l338 -227l-74 -111zM383 168h541v-168h-727v1407h692v-168h-506v-426h451v-168h-451v-477zM553 -133q44 0 76.5 -32.5t32.5 -76.5q0 -47 -32 -79.5t-77 -32.5q-46 0 -78.5 32.5t-32.5 79.5q0 44 32.5 76.5t78.5 32.5z" />
    <glyph glyph-name="uni1EC7" unicode="&#x1ec7;" horiz-adv-x="1030" 
d="M547 1292l-225 -164l-70 101l297 233l295 -233l-72 -101zM547 999q112 0 193 -41.5t125 -117t60 -174.5t5 -222h-654q9 -158 83.5 -236.5t222.5 -78.5q133 0 272 68l59 -140q-164 -82 -352 -82q-226 0 -345.5 129.5t-119.5 370.5q0 242 118 383t333 141zM539 852
q-223 0 -258 -258h475q-5 132 -57.5 195t-159.5 63zM567 -133q44 0 76.5 -32.5t32.5 -76.5q0 -47 -32 -79.5t-77 -32.5q-46 0 -78 32.5t-32 79.5q0 44 32.5 76.5t77.5 32.5z" />
    <glyph glyph-name="uni1EC8" unicode="&#x1ec8;" horiz-adv-x="579" 
d="M193 1825q146 0 208 -31t62 -100q0 -28 -10 -49.5t-25.5 -36t-31 -28.5t-27.5 -32.5t-15 -40.5h-129q5 35 20.5 60.5t31.5 36.5t29 25.5t13 31.5q0 53 -126 53v111zM383 1407v-1407h-186v1407h186z" />
    <glyph glyph-name="uni1EC9" unicode="&#x1ec9;" horiz-adv-x="526" 
d="M166 1395q146 0 208 -31t62 -100q0 -34 -15.5 -60t-34.5 -40t-37 -37t-21 -50h-129q5 35 20.5 60.5t31.5 36.5t29 25.5t13 31.5q0 53 -127 53v111zM354 977v-977h-180v977h180z" />
    <glyph glyph-name="uni1ECA" unicode="&#x1eca;" horiz-adv-x="579" 
d="M383 1407v-1407h-186v1407h186zM291 -133q44 0 76 -32.5t32 -76.5q0 -47 -31.5 -79.5t-76.5 -32.5q-46 0 -78.5 32.5t-32.5 79.5q0 44 32.5 76.5t78.5 32.5z" />
    <glyph glyph-name="uni1ECB" unicode="&#x1ecb;" horiz-adv-x="526" 
d="M264 1401q48 0 82.5 -35t34.5 -84t-34.5 -84t-82.5 -35t-82.5 35t-34.5 84t34.5 84t82.5 35zM354 977v-977h-180v977h180zM260 -133q44 0 76.5 -32.5t32.5 -76.5q0 -47 -32 -79.5t-77 -32.5q-46 0 -78 32.5t-32 79.5q0 44 32 76.5t78 32.5z" />
    <glyph glyph-name="uni1ECC" unicode="&#x1ecc;" horiz-adv-x="1599" 
d="M807 1432q201 0 354.5 -91t237.5 -256t84 -378t-84 -379.5t-238.5 -259.5t-355.5 -93t-358 93t-243.5 259t-86.5 378q0 210 86 375.5t243.5 258.5t360.5 93zM803 1262q-219 0 -354.5 -157t-135.5 -396q0 -159 60.5 -287t173 -202.5t256.5 -74.5q217 0 350 160t133 404
q0 157 -57.5 282t-168.5 198t-257 73zM805 -133q44 0 76 -32.5t32 -76.5q0 -47 -31.5 -79.5t-76.5 -32.5q-46 0 -78.5 32.5t-32.5 79.5q0 44 32.5 76.5t78.5 32.5z" />
    <glyph glyph-name="uni1ECD" unicode="&#x1ecd;" horiz-adv-x="1132" 
d="M565 -25q-215 0 -342 139.5t-127 374.5q0 236 127 375.5t342 139.5q217 0 344 -139.5t127 -375.5q0 -235 -127.5 -374.5t-343.5 -139.5zM565 135q131 0 209 96.5t78 257.5q0 162 -78 258.5t-209 96.5q-130 0 -207 -96t-77 -259q0 -162 77 -258t207 -96zM569 -133
q44 0 76.5 -32.5t32.5 -76.5q0 -47 -32 -79.5t-77 -32.5q-46 0 -78 32.5t-32 79.5q0 44 32.5 76.5t77.5 32.5z" />
    <glyph glyph-name="uni1ECE" unicode="&#x1ece;" horiz-adv-x="1599" 
d="M709 1825q146 0 208 -31t62 -100q0 -28 -10 -49.5t-25.5 -36t-31 -28.5t-27.5 -32.5t-15 -40.5h-129q5 35 21 60.5t32 36.5t29 25.5t13 31.5q0 53 -127 53v111zM807 1432q201 0 354.5 -91t237.5 -256t84 -378t-84 -379.5t-238.5 -259.5t-355.5 -93t-358 93t-243.5 259
t-86.5 378q0 210 86 375.5t243.5 258.5t360.5 93zM803 1262q-219 0 -354.5 -157t-135.5 -396q0 -159 60.5 -287t173 -202.5t256.5 -74.5q217 0 350 160t133 404q0 157 -57.5 282t-168.5 198t-257 73z" />
    <glyph glyph-name="uni1ECF" unicode="&#x1ecf;" horiz-adv-x="1132" 
d="M469 1395q146 0 208 -31t62 -100q0 -34 -15.5 -60t-34.5 -40t-37 -37t-21 -50h-129q5 35 20.5 60.5t31.5 36.5t29 25.5t13 31.5q0 53 -127 53v111zM565 -25q-215 0 -342 139.5t-127 374.5q0 236 127 375.5t342 139.5q217 0 344 -139.5t127 -375.5q0 -235 -127.5 -374.5
t-343.5 -139.5zM565 135q131 0 209 96.5t78 257.5q0 162 -78 258.5t-209 96.5q-130 0 -207 -96t-77 -259q0 -162 77 -258t207 -96z" />
    <glyph glyph-name="uni1ED0" unicode="&#x1ed0;" horiz-adv-x="1599" 
d="M1366 1987l-330 -228l-67 96l321 246zM805 1683l-264 -178l-74 109l338 229l338 -227l-74 -111zM807 1432q201 0 354.5 -91t237.5 -256t84 -378t-84 -379.5t-238.5 -259.5t-355.5 -93t-358 93t-243.5 259t-86.5 378q0 210 86 375.5t243.5 258.5t360.5 93zM803 145
q217 0 350 160t133 404q0 157 -57.5 282t-168.5 198t-257 73q-219 0 -354.5 -157t-135.5 -396q0 -159 60.5 -287t173 -202.5t256.5 -74.5z" />
    <glyph glyph-name="uni1ED1" unicode="&#x1ed1;" horiz-adv-x="1132" 
d="M1059 1642l-326 -233l-78 102l316 254zM565 1292l-225 -164l-70 101l297 233l295 -233l-71 -101zM565 1004q217 0 344 -139.5t127 -375.5q0 -235 -127.5 -374.5t-343.5 -139.5q-215 0 -342 139.5t-127 374.5q0 236 127 375.5t342 139.5zM565 135q131 0 209 96.5t78 257.5
q0 162 -78 258.5t-209 96.5q-130 0 -207 -96t-77 -259q0 -162 77 -258t207 -96z" />
    <glyph glyph-name="uni1ED2" unicode="&#x1ed2;" horiz-adv-x="1599" 
d="M1212 1855l-65 -96l-332 228l78 114zM805 1683l-264 -178l-74 109l338 229l338 -227l-74 -111zM807 1432q201 0 354.5 -91t237.5 -256t84 -378t-84 -379.5t-238.5 -259.5t-355.5 -93t-358 93t-243.5 259t-86.5 378q0 210 86 375.5t243.5 258.5t360.5 93zM803 145
q217 0 350 160t133 404q0 157 -57.5 282t-168.5 198t-257 73q-219 0 -354.5 -157t-135.5 -396q0 -159 60.5 -287t173 -202.5t256.5 -74.5z" />
    <glyph glyph-name="uni1ED3" unicode="&#x1ed3;" horiz-adv-x="1132" 
d="M961 1505l-76 -100l-328 231l88 125zM565 1292l-225 -164l-70 101l297 233l295 -233l-71 -101zM565 1004q217 0 344 -139.5t127 -375.5q0 -235 -127.5 -374.5t-343.5 -139.5q-215 0 -342 139.5t-127 374.5q0 236 127 375.5t342 139.5zM565 135q131 0 209 96.5t78 257.5
q0 162 -78 258.5t-209 96.5q-130 0 -207 -96t-77 -259q0 -162 77 -258t207 -96z" />
    <glyph glyph-name="uni1ED4" unicode="&#x1ed4;" horiz-adv-x="1599" 
d="M1126 1921q0 53 -127 53v111q146 0 208.5 -31t62.5 -100q0 -28 -10 -49.5t-25.5 -36t-31 -28.5t-27.5 -32.5t-15 -40.5h-129q5 35 20.5 60.5t31.5 36.5t29 25.5t13 31.5zM805 1683l-264 -178l-74 109l338 229l338 -227l-74 -111zM807 1432q201 0 354.5 -91t237.5 -256
t84 -378t-84 -379.5t-238.5 -259.5t-355.5 -93t-358 93t-243.5 259t-86.5 378q0 210 86 375.5t243.5 258.5t360.5 93zM803 145q217 0 350 160t133 404q0 157 -57.5 282t-168.5 198t-257 73q-219 0 -354.5 -157t-135.5 -396q0 -159 60.5 -287t173 -202.5t256.5 -74.5z" />
    <glyph glyph-name="uni1ED5" unicode="&#x1ed5;" horiz-adv-x="1132" 
d="M844 1524q0 53 -127 53v111q145 0 207.5 -31.5t62.5 -100.5q0 -28 -10 -49.5t-25 -36t-30.5 -28t-27.5 -32t-15 -40.5h-129q5 35 20.5 60.5t31.5 36.5t29 25.5t13 31.5zM565 1292l-225 -164l-70 101l297 233l295 -233l-71 -101zM565 1004q217 0 344 -139.5t127 -375.5
q0 -235 -127.5 -374.5t-343.5 -139.5q-215 0 -342 139.5t-127 374.5q0 236 127 375.5t342 139.5zM565 135q131 0 209 96.5t78 257.5q0 162 -78 258.5t-209 96.5q-130 0 -207 -96t-77 -259q0 -162 77 -258t207 -96z" />
    <glyph glyph-name="uni1ED6" unicode="&#x1ed6;" horiz-adv-x="1599" 
d="M692 1976q-64 0 -143 -65l-62 98q46 46 105 73t115 27q55 0 124.5 -36.5t106.5 -36.5q61 0 139 63l62 -98q-101 -98 -215 -98q-52 0 -123 36.5t-109 36.5zM805 1683l-264 -178l-74 109l338 229l338 -227l-74 -111zM807 1432q201 0 354.5 -91t237.5 -256t84 -378
t-84 -379.5t-238.5 -259.5t-355.5 -93t-358 93t-243.5 259t-86.5 378q0 210 86 375.5t243.5 258.5t360.5 93zM803 145q217 0 350 160t133 404q0 157 -57.5 282t-168.5 198t-257 73q-219 0 -354.5 -157t-135.5 -396q0 -159 60.5 -287t173 -202.5t256.5 -74.5z" />
    <glyph glyph-name="uni1ED7" unicode="&#x1ed7;" horiz-adv-x="1132" 
d="M442 1595q-63 0 -141 -65l-61 98q107 101 213 101q56 0 128 -37t111 -37q63 0 137 65l62 -100q-109 -98 -207 -98q-57 0 -127.5 36.5t-114.5 36.5zM270 1229l297 233l295 -233l-71 -101l-226 164l-225 -164zM565 1004q217 0 344 -139.5t127 -375.5q0 -235 -127.5 -374.5
t-343.5 -139.5q-215 0 -342 139.5t-127 374.5q0 236 127 375.5t342 139.5zM565 135q131 0 209 96.5t78 257.5q0 162 -78 258.5t-209 96.5q-130 0 -207 -96t-77 -259q0 -162 77 -258t207 -96z" />
    <glyph glyph-name="uni1ED8" unicode="&#x1ed8;" horiz-adv-x="1599" 
d="M805 1683l-264 -178l-74 109l338 229l338 -227l-74 -111zM807 1432q201 0 354.5 -91t237.5 -256t84 -378t-84 -379.5t-238.5 -259.5t-355.5 -93t-358 93t-243.5 259t-86.5 378q0 210 86 375.5t243.5 258.5t360.5 93zM803 145q217 0 350 160t133 404q0 157 -57.5 282
t-168.5 198t-257 73q-219 0 -354.5 -157t-135.5 -396q0 -159 60.5 -287t173 -202.5t256.5 -74.5zM805 -133q44 0 76 -32.5t32 -76.5q0 -47 -31.5 -79.5t-76.5 -32.5q-46 0 -78.5 32.5t-32.5 79.5q0 44 32.5 76.5t78.5 32.5z" />
    <glyph glyph-name="uni1ED9" unicode="&#x1ed9;" horiz-adv-x="1132" 
d="M565 1292l-225 -164l-70 101l297 233l295 -233l-71 -101zM565 1004q217 0 344 -139.5t127 -375.5q0 -235 -127.5 -374.5t-343.5 -139.5q-215 0 -342 139.5t-127 374.5q0 236 127 375.5t342 139.5zM565 135q131 0 209 96.5t78 257.5q0 162 -78 258.5t-209 96.5
q-130 0 -207 -96t-77 -259q0 -162 77 -258t207 -96zM569 -133q44 0 76.5 -32.5t32.5 -76.5q0 -47 -32 -79.5t-77 -32.5q-46 0 -78 32.5t-32 79.5q0 44 32.5 76.5t77.5 32.5z" />
    <glyph glyph-name="uni1EDA" unicode="&#x1eda;" horiz-adv-x="1599" 
d="M1075 1726l-330 -227l-67 96l321 246zM1540 1491q0 -154 -41.5 -241.5t-128.5 -116.5q113 -180 113 -426q0 -213 -84 -379.5t-238.5 -259.5t-355.5 -93t-358 93t-243.5 259t-86.5 378q0 210 86 375.5t243.5 258.5t360.5 93q308 0 496 -207q66 7 94 69t28 197h115z
M803 145q217 0 350 160t133 404q0 157 -57.5 282t-168.5 198t-257 73q-219 0 -354.5 -157t-135.5 -396q0 -159 60.5 -287t173 -202.5t256.5 -74.5z" />
    <glyph glyph-name="uni1EDB" unicode="&#x1edb;" horiz-adv-x="1132" 
d="M811 1350l-326 -234l-77 103l315 254zM1161 1061q0 -150 -38.5 -236.5t-121.5 -117.5q35 -96 35 -218q0 -235 -127.5 -374.5t-343.5 -139.5q-215 0 -342 139.5t-127 374.5q0 236 127 375.5t342 139.5q130 0 230 -52t161 -149q47 19 69 80t22 178h114zM565 135
q131 0 209 96.5t78 257.5q0 162 -78 258.5t-209 96.5q-130 0 -207 -96t-77 -259q0 -162 77 -258t207 -96z" />
    <glyph glyph-name="uni1EDC" unicode="&#x1edc;" horiz-adv-x="1599" 
d="M922 1595l-66 -96l-332 227l78 115zM1540 1491q0 -154 -41.5 -241.5t-128.5 -116.5q113 -180 113 -426q0 -213 -84 -379.5t-238.5 -259.5t-355.5 -93t-358 93t-243.5 259t-86.5 378q0 210 86 375.5t243.5 258.5t360.5 93q308 0 496 -207q66 7 94 69t28 197h115zM803 145
q217 0 350 160t133 404q0 157 -57.5 282t-168.5 198t-257 73q-219 0 -354.5 -157t-135.5 -396q0 -159 60.5 -287t173 -202.5t256.5 -74.5z" />
    <glyph glyph-name="uni1EDD" unicode="&#x1edd;" horiz-adv-x="1132" 
d="M713 1212l-76 -100l-328 231l88 125zM1161 1061q0 -150 -38.5 -236.5t-121.5 -117.5q35 -96 35 -218q0 -235 -127.5 -374.5t-343.5 -139.5q-215 0 -342 139.5t-127 374.5q0 236 127 375.5t342 139.5q130 0 230 -52t161 -149q47 19 69 80t22 178h114zM565 135
q131 0 209 96.5t78 257.5q0 162 -78 258.5t-209 96.5q-130 0 -207 -96t-77 -259q0 -162 77 -258t207 -96z" />
    <glyph glyph-name="uni1EDE" unicode="&#x1ede;" horiz-adv-x="1599" 
d="M836 1661q0 53 -127 53v111q146 0 208 -31t62 -100q0 -28 -10 -49.5t-25.5 -36t-31 -28.5t-27.5 -32.5t-15 -40.5h-129q5 35 21 60.5t32 36.5t29 25.5t13 31.5zM1540 1491q0 -154 -41.5 -241.5t-128.5 -116.5q113 -180 113 -426q0 -213 -84 -379.5t-238.5 -259.5
t-355.5 -93t-358 93t-243.5 259t-86.5 378q0 210 86 375.5t243.5 258.5t360.5 93q308 0 496 -207q66 7 94 69t28 197h115zM803 145q217 0 350 160t133 404q0 157 -57.5 282t-168.5 198t-257 73q-219 0 -354.5 -157t-135.5 -396q0 -159 60.5 -287t173 -202.5t256.5 -74.5z
" />
    <glyph glyph-name="uni1EDF" unicode="&#x1edf;" horiz-adv-x="1132" 
d="M596 1231q0 53 -127 53v111q146 0 208 -31t62 -100q0 -34 -15.5 -60t-34.5 -40t-37 -37t-21 -50h-129q5 35 20.5 60.5t31.5 36.5t29 25.5t13 31.5zM1161 1061q0 -150 -38.5 -236.5t-121.5 -117.5q35 -96 35 -218q0 -235 -127.5 -374.5t-343.5 -139.5q-215 0 -342 139.5
t-127 374.5q0 236 127 375.5t342 139.5q130 0 230 -52t161 -149q47 19 69 80t22 178h114zM565 135q131 0 209 96.5t78 257.5q0 162 -78 258.5t-209 96.5q-130 0 -207 -96t-77 -259q0 -162 77 -258t207 -96z" />
    <glyph glyph-name="uni1EE0" unicode="&#x1ee0;" horiz-adv-x="1599" 
d="M692 1622q-62 0 -143 -66l-62 99q46 46 105 73t115 27q55 0 124.5 -37t106.5 -37q60 0 139 64l62 -98q-102 -99 -215 -99q-52 0 -123 37t-109 37zM1540 1491q0 -154 -41.5 -241.5t-128.5 -116.5q113 -180 113 -426q0 -213 -84 -379.5t-238.5 -259.5t-355.5 -93t-358 93
t-243.5 259t-86.5 378q0 210 86 375.5t243.5 258.5t360.5 93q308 0 496 -207q66 7 94 69t28 197h115zM803 145q217 0 350 160t133 404q0 157 -57.5 282t-168.5 198t-257 73q-219 0 -354.5 -157t-135.5 -396q0 -159 60.5 -287t173 -202.5t256.5 -74.5z" />
    <glyph glyph-name="uni1EE1" unicode="&#x1ee1;" horiz-adv-x="1132" 
d="M442 1241q-63 0 -141 -65l-61 98q106 100 213 100q56 0 128 -37t111 -37q62 0 137 66l62 -100q-110 -99 -207 -99q-57 0 -127.5 37t-114.5 37zM1161 1061q0 -150 -38.5 -236.5t-121.5 -117.5q35 -96 35 -218q0 -235 -127.5 -374.5t-343.5 -139.5q-215 0 -342 139.5
t-127 374.5q0 236 127 375.5t342 139.5q130 0 230 -52t161 -149q47 19 69 80t22 178h114zM565 135q131 0 209 96.5t78 257.5q0 162 -78 258.5t-209 96.5q-130 0 -207 -96t-77 -259q0 -162 77 -258t207 -96z" />
    <glyph glyph-name="uni1EE2" unicode="&#x1ee2;" horiz-adv-x="1599" 
d="M1540 1491q0 -154 -41.5 -241.5t-128.5 -116.5q113 -180 113 -426q0 -213 -84 -379.5t-238.5 -259.5t-355.5 -93t-358 93t-243.5 259t-86.5 378q0 210 86 375.5t243.5 258.5t360.5 93q308 0 496 -207q66 7 94 69t28 197h115zM803 145q217 0 350 160t133 404
q0 157 -57.5 282t-168.5 198t-257 73q-219 0 -354.5 -157t-135.5 -396q0 -159 60.5 -287t173 -202.5t256.5 -74.5zM805 -133q44 0 76 -32.5t32 -76.5q0 -47 -31.5 -79.5t-76.5 -32.5q-46 0 -78.5 32.5t-32.5 79.5q0 44 32.5 76.5t78.5 32.5z" />
    <glyph glyph-name="uni1EE3" unicode="&#x1ee3;" horiz-adv-x="1132" 
d="M1161 1061q0 -150 -38.5 -236.5t-121.5 -117.5q35 -96 35 -218q0 -235 -127.5 -374.5t-343.5 -139.5q-215 0 -342 139.5t-127 374.5q0 236 127 375.5t342 139.5q130 0 230 -52t161 -149q47 19 69 80t22 178h114zM565 135q131 0 209 96.5t78 257.5q0 162 -78 258.5
t-209 96.5q-130 0 -207 -96t-77 -259q0 -162 77 -258t207 -96zM569 -133q44 0 76.5 -32.5t32.5 -76.5q0 -47 -32 -79.5t-77 -32.5q-46 0 -78 32.5t-32 79.5q0 44 32.5 76.5t77.5 32.5z" />
    <glyph glyph-name="uni1EE4" unicode="&#x1ee4;" horiz-adv-x="1404" 
d="M365 1407v-936q0 -21 0.5 -34t3.5 -42t8.5 -49t17 -48.5t27.5 -48.5t42 -42.5t58.5 -36t78 -22.5t99.5 -9q70 0 125 14.5t90 35.5t60 54.5t36.5 60t18 64.5t7.5 56.5t1 46.5v936h187v-934q0 -28 -0.5 -47.5t-5.5 -61t-13.5 -73t-27 -75t-44 -75.5t-66 -66t-91 -56
t-121.5 -36t-156 -14q-84 0 -154.5 14t-121 36t-90.5 56t-65 66t-43 75.5t-26.5 74.5t-13.5 72.5t-5.5 60.5t-0.5 47v936h185zM702 -133q44 0 76.5 -32.5t32.5 -76.5q0 -47 -32 -79.5t-77 -32.5q-46 0 -78 32.5t-32 79.5q0 44 32 76.5t78 32.5z" />
    <glyph glyph-name="uni1EE5" unicode="&#x1ee5;" horiz-adv-x="1163" 
d="M809 977h180v-977h-180v139q-143 -164 -348 -164q-48 0 -89 9t-69.5 23t-51.5 36.5t-37.5 43.5t-25 50t-15.5 49.5t-7.5 49t-3 41.5t-0.5 34v666h180v-637q0 -197 168 -197q154 0 299 168v666zM571 -133q44 0 76.5 -32.5t32.5 -76.5q0 -47 -32 -79.5t-77 -32.5
q-46 0 -78 32.5t-32 79.5q0 44 32.5 76.5t77.5 32.5z" />
    <glyph glyph-name="uni1EE6" unicode="&#x1ee6;" horiz-adv-x="1404" 
d="M604 1825q146 0 208 -31t62 -100q0 -34 -15.5 -60t-34.5 -40t-37 -37t-21 -50h-129q5 35 20.5 60.5t31.5 36.5t29 25.5t13 31.5q0 53 -127 53v111zM365 1407v-936q0 -21 0.5 -34t3.5 -42t8.5 -49t17 -48.5t27.5 -48.5t42 -42.5t58.5 -36t78 -22.5t99.5 -9q70 0 125 14.5
t90 35.5t60 54.5t36.5 60t18 64.5t7.5 56.5t1 46.5v936h187v-934q0 -28 -0.5 -47.5t-5.5 -61t-13.5 -73t-27 -75t-44 -75.5t-66 -66t-91 -56t-121.5 -36t-156 -14q-84 0 -154.5 14t-121 36t-90.5 56t-65 66t-43 75.5t-26.5 74.5t-13.5 72.5t-5.5 60.5t-0.5 47v936h185z" />
    <glyph glyph-name="uni1EE7" unicode="&#x1ee7;" horiz-adv-x="1163" 
d="M604 1231q0 53 -127 53v111q146 0 208.5 -31t62.5 -100q0 -28 -10 -49.5t-25.5 -36t-31 -28.5t-27.5 -32.5t-15 -40.5h-129q5 35 20.5 60.5t31.5 36.5t29 25.5t13 31.5zM809 977h180v-977h-180v139q-143 -164 -348 -164q-48 0 -89 9t-69.5 23t-51.5 36.5t-37.5 43.5
t-25 50t-15.5 49.5t-7.5 49t-3 41.5t-0.5 34v666h180v-637q0 -197 168 -197q154 0 299 168v666z" />
    <glyph glyph-name="uni1EE8" unicode="&#x1ee8;" horiz-adv-x="1404" 
d="M971 1726l-330 -227l-68 96l322 246zM1460 1491q0 -181 -57 -271.5t-178 -97.5v-649q0 -28 -0.5 -47.5t-5.5 -61t-13.5 -73t-27 -75t-44 -75.5t-66 -66t-91 -56t-121.5 -36t-156 -14q-84 0 -154.5 14t-121 36t-90.5 56t-65 66t-43 75.5t-26.5 74.5t-13.5 72.5t-5.5 60.5
t-0.5 47v936h185v-936q0 -21 0.5 -34t3.5 -42t8.5 -49t17 -48.5t27.5 -48.5t42 -42.5t58.5 -36t78 -22.5t99.5 -9q70 0 125 14.5t90 35.5t60 54.5t36.5 60t18 64.5t7.5 56.5t1 46.5v936h187v-182q66 9 93.5 70.5t27.5 195.5h114z" />
    <glyph glyph-name="uni1EE9" unicode="&#x1ee9;" horiz-adv-x="1163" 
d="M819 1350l-325 -234l-78 103l315 254zM1231 1061q0 -183 -59 -273.5t-183 -97.5v-690h-180v139q-143 -164 -348 -164q-48 0 -89 9t-69.5 23t-51.5 36.5t-37.5 43.5t-25 50t-15.5 49.5t-7.5 49t-3 41.5t-0.5 34v666h180v-637q0 -197 168 -197q154 0 299 168v666h180v-182
q69 6 98 67.5t29 198.5h115z" />
    <glyph glyph-name="uni1EEA" unicode="&#x1eea;" horiz-adv-x="1404" 
d="M819 1595l-65 -96l-332 227l78 115zM1460 1491q0 -181 -57 -271.5t-178 -97.5v-649q0 -28 -0.5 -47.5t-5.5 -61t-13.5 -73t-27 -75t-44 -75.5t-66 -66t-91 -56t-121.5 -36t-156 -14q-84 0 -154.5 14t-121 36t-90.5 56t-65 66t-43 75.5t-26.5 74.5t-13.5 72.5t-5.5 60.5
t-0.5 47v936h185v-936q0 -21 0.5 -34t3.5 -42t8.5 -49t17 -48.5t27.5 -48.5t42 -42.5t58.5 -36t78 -22.5t99.5 -9q70 0 125 14.5t90 35.5t60 54.5t36.5 60t18 64.5t7.5 56.5t1 46.5v936h187v-182q66 9 93.5 70.5t27.5 195.5h114z" />
    <glyph glyph-name="uni1EEB" unicode="&#x1eeb;" horiz-adv-x="1163" 
d="M721 1212l-76 -100l-328 231l89 125zM1231 1061q0 -183 -59 -273.5t-183 -97.5v-690h-180v139q-143 -164 -348 -164q-48 0 -89 9t-69.5 23t-51.5 36.5t-37.5 43.5t-25 50t-15.5 49.5t-7.5 49t-3 41.5t-0.5 34v666h180v-637q0 -197 168 -197q154 0 299 168v666h180v-182
q69 6 98 67.5t29 198.5h115z" />
    <glyph glyph-name="uni1EEC" unicode="&#x1eec;" horiz-adv-x="1404" 
d="M731 1661q0 53 -127 53v111q146 0 208 -31t62 -100q0 -34 -15.5 -60t-34.5 -40t-37 -37t-21 -50h-129q5 35 20.5 60.5t31.5 36.5t29 25.5t13 31.5zM1460 1491q0 -181 -57 -271.5t-178 -97.5v-649q0 -28 -0.5 -47.5t-5.5 -61t-13.5 -73t-27 -75t-44 -75.5t-66 -66t-91 -56
t-121.5 -36t-156 -14q-84 0 -154.5 14t-121 36t-90.5 56t-65 66t-43 75.5t-26.5 74.5t-13.5 72.5t-5.5 60.5t-0.5 47v936h185v-936q0 -21 0.5 -34t3.5 -42t8.5 -49t17 -48.5t27.5 -48.5t42 -42.5t58.5 -36t78 -22.5t99.5 -9q70 0 125 14.5t90 35.5t60 54.5t36.5 60t18 64.5
t7.5 56.5t1 46.5v936h187v-182q66 9 93.5 70.5t27.5 195.5h114z" />
    <glyph glyph-name="uni1EED" unicode="&#x1eed;" horiz-adv-x="1163" 
d="M604 1231q0 53 -127 53v111q146 0 208.5 -31t62.5 -100q0 -28 -10 -49.5t-25.5 -36t-31 -28.5t-27.5 -32.5t-15 -40.5h-129q5 35 20.5 60.5t31.5 36.5t29 25.5t13 31.5zM1231 1061q0 -183 -59 -273.5t-183 -97.5v-690h-180v139q-143 -164 -348 -164q-48 0 -89 9t-69.5 23
t-51.5 36.5t-37.5 43.5t-25 50t-15.5 49.5t-7.5 49t-3 41.5t-0.5 34v666h180v-637q0 -197 168 -197q154 0 299 168v666h180v-182q69 6 98 67.5t29 198.5h115z" />
    <glyph glyph-name="uni1EEE" unicode="&#x1eee;" horiz-adv-x="1404" 
d="M588 1622q-63 0 -144 -66l-61 99q46 46 104.5 73t114.5 27q55 0 125 -37t107 -37q60 0 139 64l61 -98q-102 -99 -215 -99q-53 0 -123 37t-108 37zM1460 1491q0 -181 -57 -271.5t-178 -97.5v-649q0 -28 -0.5 -47.5t-5.5 -61t-13.5 -73t-27 -75t-44 -75.5t-66 -66t-91 -56
t-121.5 -36t-156 -14q-84 0 -154.5 14t-121 36t-90.5 56t-65 66t-43 75.5t-26.5 74.5t-13.5 72.5t-5.5 60.5t-0.5 47v936h185v-936q0 -21 0.5 -34t3.5 -42t8.5 -49t17 -48.5t27.5 -48.5t42 -42.5t58.5 -36t78 -22.5t99.5 -9q70 0 125 14.5t90 35.5t60 54.5t36.5 60t18 64.5
t7.5 56.5t1 46.5v936h187v-182q66 9 93.5 70.5t27.5 195.5h114z" />
    <glyph glyph-name="uni1EEF" unicode="&#x1eef;" horiz-adv-x="1163" 
d="M451 1241q-64 0 -142 -65l-61 98q106 100 213 100q56 0 128 -37t111 -37q63 0 138 66l61 -100q-110 -99 -207 -99q-57 0 -127 37t-114 37zM1231 1061q0 -183 -59 -273.5t-183 -97.5v-690h-180v139q-143 -164 -348 -164q-48 0 -89 9t-69.5 23t-51.5 36.5t-37.5 43.5
t-25 50t-15.5 49.5t-7.5 49t-3 41.5t-0.5 34v666h180v-637q0 -197 168 -197q154 0 299 168v666h180v-182q69 6 98 67.5t29 198.5h115z" />
    <glyph glyph-name="uni1EF0" unicode="&#x1ef0;" horiz-adv-x="1404" 
d="M1460 1491q0 -181 -57 -271.5t-178 -97.5v-649q0 -28 -0.5 -47.5t-5.5 -61t-13.5 -73t-27 -75t-44 -75.5t-66 -66t-91 -56t-121.5 -36t-156 -14q-84 0 -154.5 14t-121 36t-90.5 56t-65 66t-43 75.5t-26.5 74.5t-13.5 72.5t-5.5 60.5t-0.5 47v936h185v-936q0 -21 0.5 -34
t3.5 -42t8.5 -49t17 -48.5t27.5 -48.5t42 -42.5t58.5 -36t78 -22.5t99.5 -9q70 0 125 14.5t90 35.5t60 54.5t36.5 60t18 64.5t7.5 56.5t1 46.5v936h187v-182q66 9 93.5 70.5t27.5 195.5h114zM702 -133q44 0 76.5 -32.5t32.5 -76.5q0 -47 -32 -79.5t-77 -32.5q-46 0 -78 32.5
t-32 79.5q0 44 32 76.5t78 32.5z" />
    <glyph glyph-name="uni1EF1" unicode="&#x1ef1;" horiz-adv-x="1163" 
d="M1231 1061q0 -183 -59 -273.5t-183 -97.5v-690h-180v139q-143 -164 -348 -164q-48 0 -89 9t-69.5 23t-51.5 36.5t-37.5 43.5t-25 50t-15.5 49.5t-7.5 49t-3 41.5t-0.5 34v666h180v-637q0 -197 168 -197q154 0 299 168v666h180v-182q69 6 98 67.5t29 198.5h115zM571 -133
q44 0 76.5 -32.5t32.5 -76.5q0 -47 -32 -79.5t-77 -32.5q-46 0 -78 32.5t-32 79.5q0 44 32.5 76.5t77.5 32.5z" />
    <glyph glyph-name="Ygrave" unicode="&#x1ef2;" horiz-adv-x="1132" 
d="M684 1595l-66 -96l-331 227l78 115zM897 1407h201l-432 -840v-567h-187v567l-444 840h205l335 -668z" />
    <glyph glyph-name="ygrave" unicode="&#x1ef3;" horiz-adv-x="999" 
d="M645 1212l-76 -100l-327 231l88 125zM784 977h191l-590 -1489h-195l226 541l-391 948h194l287 -746z" />
    <glyph glyph-name="uni1EF4" unicode="&#x1ef4;" horiz-adv-x="1132" 
d="M479 0v567l-444 840h205l335 -668l322 668h201l-432 -840v-567h-187zM573 -133q44 0 76.5 -32.5t32.5 -76.5q0 -47 -32 -79.5t-77 -32.5q-46 0 -78 32.5t-32 79.5q0 44 32.5 76.5t77.5 32.5z" />
    <glyph glyph-name="uni1EF5" unicode="&#x1ef5;" horiz-adv-x="999" 
d="M784 977h191l-590 -1489h-195l226 541l-391 948h194l287 -746zM737 -133q44 0 76.5 -32.5t32.5 -76.5q0 -47 -32 -79.5t-77 -32.5q-46 0 -78 32.5t-32 79.5q0 44 32.5 76.5t77.5 32.5z" />
    <glyph glyph-name="uni1EF6" unicode="&#x1ef6;" horiz-adv-x="1132" 
d="M596 1661q0 53 -127 53v111q146 0 208 -31t62 -100q0 -34 -15.5 -60t-34.5 -40t-37 -37t-21 -50h-129q5 35 20.5 60.5t31.5 36.5t29 25.5t13 31.5zM897 1407h201l-432 -840v-567h-187v567l-444 840h205l335 -668z" />
    <glyph glyph-name="uni1EF7" unicode="&#x1ef7;" horiz-adv-x="999" 
d="M528 1231q0 53 -127 53v111q146 0 208.5 -31t62.5 -100q0 -28 -10 -49.5t-25.5 -36t-31 -28.5t-27.5 -32.5t-15 -40.5h-129q5 35 20.5 60.5t31.5 36.5t29 25.5t13 31.5zM784 977h191l-590 -1489h-195l226 541l-391 948h194l287 -746z" />
    <glyph glyph-name="uni1EF8" unicode="&#x1ef8;" horiz-adv-x="1132" 
d="M453 1622q-63 0 -144 -66l-61 99q46 46 104.5 73t114.5 27q55 0 124.5 -37t106.5 -37q61 0 140 64l61 -98q-102 -99 -215 -99q-52 0 -123 37t-108 37zM897 1407h201l-432 -840v-567h-187v567l-444 840h205l335 -668z" />
    <glyph glyph-name="uni1EF9" unicode="&#x1ef9;" horiz-adv-x="999" 
d="M373 1241q-64 0 -142 -65l-61 98q106 100 213 100q56 0 128.5 -37t111.5 -37q62 0 137 66l61 -100q-110 -99 -207 -99q-57 0 -127 37t-114 37zM784 977h191l-590 -1489h-195l226 541l-391 948h194l287 -746z" />
    <glyph glyph-name="uni2000" unicode="&#x2000;" horiz-adv-x="1024" 
 />
    <glyph glyph-name="uni2001" unicode="&#x2001;" horiz-adv-x="2048" 
 />
    <glyph glyph-name="uni2002" unicode="&#x2002;" horiz-adv-x="1024" 
 />
    <glyph glyph-name="uni2003" unicode="&#x2003;" horiz-adv-x="2048" 
 />
    <glyph glyph-name="uni2004" unicode="&#x2004;" horiz-adv-x="681" 
 />
    <glyph glyph-name="uni2005" unicode="&#x2005;" horiz-adv-x="512" 
 />
    <glyph glyph-name="uni2006" unicode="&#x2006;" horiz-adv-x="339" 
 />
    <glyph glyph-name="uni2007" unicode="&#x2007;" horiz-adv-x="1187" 
 />
    <glyph glyph-name="uni2008" unicode="&#x2008;" horiz-adv-x="458" 
 />
    <glyph glyph-name="uni2009" unicode="&#x2009;" horiz-adv-x="286" 
 />
    <glyph glyph-name="uni200A" unicode="&#x200a;" horiz-adv-x="143" 
 />
    <glyph glyph-name="uni200B" unicode="&#x200b;" 
 />
    <glyph glyph-name="endash" unicode="&#x2013;" horiz-adv-x="1126" 
d="M1065 618v-149h-1004v149h1004z" />
    <glyph glyph-name="emdash" unicode="&#x2014;" horiz-adv-x="2048" 
d="M1987 618v-149h-1926v149h1926z" />
    <glyph glyph-name="quoteleft" unicode="&#x2018;" horiz-adv-x="397" 
d="M55 1083l140 451h143l-109 -451h-174z" />
    <glyph glyph-name="quoteright" unicode="&#x2019;" horiz-adv-x="397" 
d="M342 1536l-137 -451h-144l107 451h174z" />
    <glyph glyph-name="quotesinglbase" unicode="&#x201a;" horiz-adv-x="397" 
d="M342 193l-137 -451h-144l107 451h174z" />
    <glyph glyph-name="quotedblleft" unicode="&#x201c;" horiz-adv-x="745" 
d="M55 1083l140 451h143l-109 -451h-174zM403 1083l140 451h143l-108 -451h-175z" />
    <glyph glyph-name="quotedblright" unicode="&#x201d;" horiz-adv-x="745" 
d="M342 1536l-137 -451h-144l107 451h174zM690 1536l-137 -451h-143l106 451h174z" />
    <glyph glyph-name="quotedblbase" unicode="&#x201e;" horiz-adv-x="745" 
d="M342 193l-137 -451h-144l107 451h174zM690 193l-137 -451h-143l106 451h174z" />
    <glyph glyph-name="dagger" unicode="&#x2020;" horiz-adv-x="1026" 
d="M950 903v-143h-364v-1137h-166v1137h-352v143h352v504h166v-504h364z" />
    <glyph glyph-name="daggerdbl" unicode="&#x2021;" horiz-adv-x="1026" 
d="M950 760h-364v-488h364v-145h-364v-504h-166v504h-352v145h352v488h-352v143h352v504h166v-504h364v-143z" />
    <glyph glyph-name="bullet" unicode="&#x2022;" horiz-adv-x="1017" 
d="M510 424q-106 0 -180 72.5t-74 175.5q0 104 74 176t180 72q105 0 178.5 -72t73.5 -176q0 -103 -74 -175.5t-178 -72.5z" />
    <glyph glyph-name="ellipsis" unicode="&#x2026;" horiz-adv-x="1269" 
d="M328 88q0 -47 -33 -80t-78 -33q-46 0 -78.5 33t-32.5 80q0 46 32.5 78.5t78.5 32.5q45 0 78 -33t33 -78zM743 88q0 -47 -32.5 -80t-77.5 -33q-46 0 -78.5 33t-32.5 80q0 46 32.5 78.5t78.5 32.5q45 0 77.5 -32.5t32.5 -78.5zM1163 88q0 -47 -32 -80t-78 -33t-78.5 33
t-32.5 80q0 46 32.5 78.5t78.5 32.5t78 -32.5t32 -78.5z" />
    <glyph glyph-name="uni202F" unicode="&#x202f;" horiz-adv-x="100" 
 />
    <glyph glyph-name="perthousand" unicode="&#x2030;" horiz-adv-x="2652" 
d="M1358 1456l98 -67l-954 -1455l-101 70zM465 1425q149 0 243.5 -103t94.5 -249q0 -145 -94.5 -246.5t-243.5 -101.5q-150 0 -244 101.5t-94 246.5q0 147 94 249.5t244 102.5zM465 1300q-87 0 -142 -64.5t-55 -160.5q0 -94 55.5 -158.5t141.5 -64.5t141.5 64.5t55.5 158.5
q0 96 -55 160.5t-142 64.5zM1413 684q149 0 243.5 -103t94.5 -249q0 -145 -94.5 -246.5t-243.5 -101.5q-150 0 -244 101.5t-94 246.5q0 147 94 249.5t244 102.5zM2187 684q149 0 243.5 -103t94.5 -249q0 -145 -94.5 -246.5t-243.5 -101.5q-150 0 -244 101.5t-94 246.5
q0 147 94 249.5t244 102.5zM1413 559q-87 0 -141.5 -64t-54.5 -161q0 -94 55 -158.5t141 -64.5t141.5 64.5t55.5 158.5q0 96 -55 160.5t-142 64.5zM2187 559q-87 0 -141.5 -64t-54.5 -161q0 -94 55 -158.5t141 -64.5t141.5 64.5t55.5 158.5q0 96 -55 160.5t-142 64.5z" />
    <glyph glyph-name="guilsinglleft" unicode="&#x2039;" horiz-adv-x="587" 
d="M475 834l-199 -347l197 -344l-123 -71l-235 415l239 426z" />
    <glyph glyph-name="guilsinglright" unicode="&#x203a;" horiz-adv-x="587" 
d="M473 487l-235 -415l-123 71l196 344l-196 347l121 79z" />
    <glyph glyph-name="fraction" unicode="&#x2044;" horiz-adv-x="331" 
d="M584 1456l98 -67l-954 -1455l-101 70z" />
    <glyph glyph-name="uni205F" unicode="&#x205f;" horiz-adv-x="454" 
 />
    <glyph glyph-name="uni2070" unicode="&#x2070;" horiz-adv-x="727" 
d="M362 786q-77 0 -136 31t-94 85.5t-53 124.5t-18 153t17.5 151.5t53.5 121.5t94.5 82.5t135.5 29.5q152 0 228 -106.5t76 -278.5q0 -83 -18 -153t-54 -124.5t-95.5 -85.5t-136.5 -31zM362 895q62 0 103 42.5t56.5 103.5t15.5 139t-15.5 137t-56.5 99t-103 40
q-61 0 -100 -40t-54 -99t-15 -137q0 -57 9 -106t27.5 -90.5t52.5 -65t80 -23.5z" />
    <glyph glyph-name="uni2074" unicode="&#x2074;" horiz-adv-x="624" 
d="M618 1071v-102h-118v-170h-125v170h-350v73l319 502h156v-473h118zM381 1415l-219 -344h213z" />
    <glyph glyph-name="uni2075" unicode="&#x2075;" horiz-adv-x="593" 
d="M317 1262q102 0 163 -58t61 -160q0 -122 -81.5 -190t-207.5 -68q-107 0 -201 43l35 103q84 -33 156 -33q73 0 121.5 37t48.5 102q0 60 -42.5 91.5t-115.5 31.5q-62 0 -135 -22l-35 24v381h416v-112h-295v-189q55 19 112 19z" />
    <glyph glyph-name="uni2076" unicode="&#x2076;" horiz-adv-x="641" 
d="M379 1278q102 0 161.5 -62t59.5 -165q0 -115 -74.5 -190t-193.5 -75q-127 0 -201 92.5t-74 266.5q0 202 93 311t251 109q63 0 140 -17l-23 -112q-57 14 -115 14q-202 0 -217 -260q68 88 193 88zM332 893q64 0 101.5 42t37.5 112q0 64 -32 98.5t-91 34.5q-50 0 -92.5 -24
t-67.5 -66q7 -101 42.5 -149t101.5 -48z" />
    <glyph glyph-name="uni2077" unicode="&#x2077;" horiz-adv-x="540" 
d="M31 1544h514v-51l-361 -694h-135l332 635h-350v110z" />
    <glyph glyph-name="uni2078" unicode="&#x2078;" horiz-adv-x="649" 
d="M453 1202q149 -74 149 -192q0 -104 -77 -164t-195 -60q-120 0 -196.5 56.5t-76.5 158.5q0 128 160 205q-119 68 -119 172q0 82 66.5 134.5t171.5 52.5q106 0 167.5 -50t61.5 -133q0 -54 -28.5 -101.5t-83.5 -78.5zM336 1470q-54 0 -85.5 -26.5t-31.5 -69.5
q0 -39 34.5 -70t96.5 -59q46 23 73.5 59t27.5 72q0 40 -28.5 67t-86.5 27zM330 889q63 0 103 36.5t40 90.5q0 46 -38.5 77.5t-123.5 69.5q-129 -56 -129 -147q0 -58 41.5 -92.5t106.5 -34.5z" />
    <glyph glyph-name="uni2079" unicode="&#x2079;" horiz-adv-x="641" 
d="M305 1565q129 0 204 -93t75 -272q0 -198 -91.5 -306t-250.5 -108q-77 0 -154 25l23 107q71 -19 129 -19q196 0 211 252q-74 -68 -185 -68q-100 0 -162.5 62.5t-62.5 165.5q0 113 72.5 183.5t191.5 70.5zM295 1186q45 0 87.5 20t68.5 51q-12 201 -146 201
q-64 0 -99.5 -37.5t-35.5 -103.5q0 -63 32 -97t93 -34z" />
    <glyph glyph-name="uni2080" unicode="&#x2080;" horiz-adv-x="727" 
d="M362 -258q-102 0 -171 54.5t-99.5 140.5t-30.5 198q0 83 17.5 151.5t53.5 121.5t94.5 82.5t135.5 29.5q152 0 228 -106.5t76 -278.5q0 -112 -30.5 -198t-100.5 -140.5t-173 -54.5zM362 -150q62 0 103 42.5t56.5 103.5t15.5 139q0 57 -9 105t-29 87.5t-55 62t-82 22.5
q-46 0 -79.5 -22.5t-52.5 -62t-28 -87.5t-9 -105t9 -106t27.5 -90.5t52.5 -65t80 -23.5z" />
    <glyph glyph-name="uni2081" unicode="&#x2081;" horiz-adv-x="462" 
d="M297 496h59v-742h-125v588l-170 -76l-49 92z" />
    <glyph glyph-name="uni2082" unicode="&#x2082;" horiz-adv-x="636" 
d="M240 -127h335v-119h-512v90l230 238q117 120 117 203q0 51 -35.5 79.5t-102.5 28.5q-82 0 -172 -43l-41 109q97 51 226 51q120 0 190 -58.5t70 -158.5q0 -38 -8.5 -70t-31.5 -65.5t-33.5 -45.5t-44.5 -47q-7 -8 -11 -12z" />
    <glyph glyph-name="uni2083" unicode="&#x2083;" horiz-adv-x="585" 
d="M266 514q113 0 178.5 -50.5t65.5 -137.5q0 -41 -15.5 -73.5t-40 -51.5t-48.5 -30t-48 -15q67 -11 119.5 -58.5t52.5 -134.5q0 -100 -72 -160.5t-196 -60.5q-105 0 -205 41l33 108q78 -30 164 -30q67 0 106 29.5t39 80.5q0 60 -58.5 92.5t-162.5 32.5v94q79 0 139 30
t60 87q0 43 -32.5 66.5t-92.5 23.5q-75 0 -154 -28l-30 106q97 39 198 39z" />
    <glyph glyph-name="uni2084" unicode="&#x2084;" horiz-adv-x="624" 
d="M618 27v-103h-118v-170h-125v170h-350v74l319 502h156v-473h118zM381 371l-219 -344h213z" />
    <glyph glyph-name="uni2085" unicode="&#x2085;" horiz-adv-x="593" 
d="M317 217q102 0 163 -57.5t61 -159.5q0 -122 -81.5 -190t-207.5 -68q-107 0 -201 43l35 102q82 -32 156 -32q73 0 121.5 37t48.5 102q0 60 -42.5 91.5t-115.5 31.5q-59 0 -135 -23l-35 25v381h416v-113h-295v-188q53 18 112 18z" />
    <glyph glyph-name="uni2086" unicode="&#x2086;" horiz-adv-x="641" 
d="M379 233q102 0 161.5 -62t59.5 -165q0 -115 -74.5 -189.5t-193.5 -74.5q-127 0 -201 92.5t-74 265.5q0 202 93 311t251 109q68 0 140 -16l-23 -113q-61 15 -115 15q-202 0 -217 -261q68 88 193 88zM332 -152q64 0 101.5 42t37.5 112q0 64 -32 98.5t-91 34.5
q-50 0 -92.5 -24t-67.5 -66q7 -101 42.5 -149t101.5 -48z" />
    <glyph glyph-name="uni2087" unicode="&#x2087;" horiz-adv-x="540" 
d="M31 500h514v-51l-361 -695h-135l332 635h-350v111z" />
    <glyph glyph-name="uni2088" unicode="&#x2088;" horiz-adv-x="649" 
d="M453 158q149 -74 149 -193q0 -104 -77 -163.5t-195 -59.5q-120 0 -196.5 56.5t-76.5 158.5q0 128 160 205q-119 68 -119 172q0 82 66.5 134t171.5 52q106 0 167.5 -49.5t61.5 -132.5q0 -54 -28.5 -101.5t-83.5 -78.5zM336 426q-54 0 -85.5 -26.5t-31.5 -69.5
q0 -39 34.5 -70t96.5 -59q46 23 73.5 59t27.5 72q0 40 -28.5 67t-86.5 27zM330 -156q63 0 103 36.5t40 90.5q0 46 -38.5 78.5t-123.5 69.5q-129 -56 -129 -148q0 -58 41.5 -92.5t106.5 -34.5z" />
    <glyph glyph-name="uni2089" unicode="&#x2089;" horiz-adv-x="641" 
d="M305 520q130 0 204.5 -92.5t74.5 -271.5q0 -198 -91.5 -306t-250.5 -108q-77 0 -154 25l23 106q67 -18 129 -18q196 0 211 251q-73 -67 -185 -67q-101 0 -163 62t-62 165q0 113 72.5 183.5t191.5 70.5zM295 141q45 0 87.5 20.5t68.5 51.5q-12 201 -146 201
q-64 0 -99.5 -38t-35.5 -104q0 -63 32 -97t93 -34z" />
    <glyph glyph-name="Euro" unicode="&#x20ac;" horiz-adv-x="1368" 
d="M954 147q124 0 267 46l53 -162q-160 -56 -330 -56q-258 0 -426 137.5t-219 383.5h-186v112h170q-4 62 -4 97q0 34 4 96h-170v112h186q24 111 74 201t113.5 148.5t140.5 97.5t152 55.5t151 16.5q173 0 350 -60l-49 -160q-143 52 -301 52q-67 0 -131.5 -20t-125 -60.5
t-108.5 -110t-73 -160.5h632l-34 -112h-619q-4 -58 -4 -90q0 -53 6 -103h549l-37 -112h-491q47 -167 167.5 -258t292.5 -91z" />
    <glyph glyph-name="uni2113" unicode="&#x2113;" horiz-adv-x="960" 
d="M772 416l166 -29q-33 -206 -123 -306.5t-252 -100.5q-317 0 -317 376v111l-172 -150l-86 140l258 229v475q0 183 84.5 284t238.5 101q138 0 215.5 -76t77.5 -208q0 -162 -108.5 -317.5t-331.5 -323.5v-213q0 -140 35 -203.5t118 -63.5q76 0 123 64t74 211zM565 1386
q-69 0 -106 -56.5t-37 -162.5v-327q134 119 198 217.5t64 197.5q0 60 -31.5 95.5t-87.5 35.5z" />
    <glyph glyph-name="uni2116" unicode="&#x2116;" horiz-adv-x="2414" 
d="M1954 645q-183 0 -282 109.5t-99 277.5q0 169 99 278t282 109t282 -108.5t99 -278.5q0 -168 -99 -277.5t-282 -109.5zM1169 299v1108h187v-1407h-207l-766 1149v-1149h-186v1407h233zM1954 1296q-110 0 -163.5 -75t-53.5 -189t53.5 -187t163.5 -73t164.5 73.5t54.5 186.5
q0 114 -54.5 189t-164.5 75zM1599 338v123h707v-123h-707z" />
    <glyph glyph-name="trademark" unicode="&#x2122;" horiz-adv-x="1648" 
d="M70 1290v117h571v-117h-221v-624h-133v624h-217zM1534 666h-135l-4 501l-230 -501h-55l-223 495l-4 -495h-133l22 741h131l242 -535l235 535h133z" />
    <glyph glyph-name="estimated" unicode="&#x212e;" horiz-adv-x="1734" 
d="M866 0q-228 0 -406 87.5t-278 250.5t-100 377q0 213 100 377.5t278 254t406 89.5q353 0 562.5 -193t224.5 -547h-1250q-16 0 -24 -6.5t-8 -30.5v-350q0 -29 36.5 -71t98.5 -82.5t158.5 -69.5t201.5 -29q144 0 276.5 63.5t221.5 164.5h147q-142 -156 -284.5 -220.5
t-360.5 -64.5zM403 741h924q21 0 27 6.5t6 26.5v346q0 55 -76.5 117.5t-194 104.5t-225.5 42q-99 0 -195 -30t-158.5 -71t-101 -82t-38.5 -66v-375q0 -19 32 -19z" />
    <glyph glyph-name="oneeighth" unicode="&#x215b;" horiz-adv-x="1464" 
d="M1104 1456l98 -67l-954 -1455l-101 70zM231 664v587l-170 -75l-49 92l285 137h59v-741h-125zM1268 403q149 -75 149 -192q0 -104 -77 -163.5t-195 -59.5q-120 0 -196.5 56.5t-76.5 158.5q0 128 160 205q-119 68 -119 172q0 82 66.5 134t171.5 52q106 0 167.5 -49.5
t61.5 -132.5q0 -54 -28.5 -102t-83.5 -79zM1151 672q-53 0 -85 -27t-32 -70q0 -39 34.5 -70t96.5 -59q46 23 73.5 59.5t27.5 72.5q0 40 -28.5 67t-86.5 27zM1145 90q63 0 103 36.5t40 90.5q0 46 -38.5 78.5t-123.5 69.5q-129 -56 -129 -148q0 -58 41.5 -92.5t106.5 -34.5z
" />
    <glyph glyph-name="threeeighths" unicode="&#x215c;" horiz-adv-x="1542" 
d="M1182 1456l98 -67l-954 -1455l-101 70zM254 770q67 0 106 30t39 81q0 60 -58.5 92.5t-162.5 32.5v94q79 0 139 30t60 87q0 43 -32.5 66.5t-92.5 23.5q-72 0 -154 -29l-30 106q97 39 198 39q113 0 178.5 -50.5t65.5 -137.5q0 -41 -15.5 -73.5t-40 -51.5t-48.5 -30t-48 -15
q67 -11 119.5 -58.5t52.5 -134.5q0 -100 -72 -160.5t-196 -60.5q-105 0 -205 41l33 109q81 -31 164 -31zM1346 403q149 -75 149 -192q0 -104 -77 -163.5t-195 -59.5q-120 0 -196.5 56.5t-76.5 158.5q0 128 160 205q-119 68 -119 172q0 82 66.5 134t171.5 52
q106 0 167.5 -49.5t61.5 -132.5q0 -54 -28.5 -102t-83.5 -79zM1229 672q-53 0 -85 -27t-32 -70q0 -39 34.5 -70t96.5 -59q46 23 73 59.5t27 72.5q0 40 -28 67t-86 27zM1223 90q63 0 103 36.5t40 90.5q0 46 -38.5 78.5t-123.5 69.5q-129 -56 -129 -148q0 -58 41.5 -92.5
t106.5 -34.5z" />
    <glyph glyph-name="fiveeighths" unicode="&#x215d;" horiz-adv-x="1525" 
d="M1165 1456l99 -67l-955 -1455l-100 70zM242 764q73 0 121.5 37t48.5 102q0 60 -42.5 91.5t-115.5 31.5q-62 0 -135 -22l-35 24v381h416v-113h-295v-188q52 18 112 18q102 0 163 -57.5t61 -159.5q0 -122 -81.5 -190t-207.5 -68q-107 0 -201 43l35 103q84 -33 156 -33z
M1329 403q150 -75 150 -192q0 -104 -77.5 -163.5t-195.5 -59.5q-120 0 -196 56.5t-76 158.5q0 128 160 205q-119 68 -119 172q0 82 66 134t171 52q106 0 168 -49.5t62 -132.5q0 -54 -29 -102t-84 -79zM1212 672q-53 0 -84.5 -27t-31.5 -70q0 -39 34.5 -70t96.5 -59
q46 23 73 59.5t27 72.5q0 40 -28.5 67t-86.5 27zM1206 90q63 0 103.5 36.5t40.5 90.5q0 46 -38.5 78.5t-123.5 69.5q-129 -56 -129 -148q0 -58 41 -92.5t106 -34.5z" />
    <glyph glyph-name="seveneighths" unicode="&#x215e;" horiz-adv-x="1411" 
d="M1051 1456l98 -67l-954 -1455l-101 70zM184 664h-135l332 634h-350v111h514v-51zM1214 403q150 -75 150 -192q0 -104 -77 -163.5t-195 -59.5q-120 0 -196.5 56.5t-76.5 158.5q0 128 160 205q-119 68 -119 172q0 82 66.5 134t171.5 52q106 0 167.5 -49.5t61.5 -132.5
q0 -54 -29 -102t-84 -79zM1098 672q-53 0 -85 -27t-32 -70q0 -39 34.5 -70t96.5 -59q46 23 73 59.5t27 72.5q0 40 -28 67t-86 27zM1092 90q63 0 103 36.5t40 90.5q0 46 -38.5 78.5t-123.5 69.5q-129 -56 -129 -148q0 -58 41.5 -92.5t106.5 -34.5z" />
    <glyph glyph-name="arrowleft" unicode="&#x2190;" horiz-adv-x="1878" 
d="M1749 567v-164h-1321l348 -337l-114 -113l-533 532l533 533l114 -113l-348 -338h1321z" />
    <glyph glyph-name="arrowup" unicode="&#x2191;" horiz-adv-x="1531" 
d="M1298 631l-112 -115l-338 348v-1321h-164v1321l-338 -348l-113 115l533 532z" />
    <glyph glyph-name="arrowright" unicode="&#x2192;" horiz-adv-x="1878" 
d="M1217 1018l532 -533l-532 -532l-115 113l350 337h-1323v164h1323l-350 338z" />
    <glyph glyph-name="arrowdown" unicode="&#x2193;" horiz-adv-x="1531" 
d="M1186 455l112 -115l-532 -533l-533 533l113 115l338 -349v1321h164v-1321z" />
    <glyph glyph-name="arrowboth" unicode="&#x2194;" horiz-adv-x="2304" 
d="M129 485l533 533l114 -113l-346 -338h1444l-344 338l112 113l533 -533l-533 -532l-112 113l344 337h-1444l346 -337l-114 -113z" />
    <glyph glyph-name="arrowupdn" unicode="&#x2195;" horiz-adv-x="1531" 
d="M766 1468l532 -532l-112 -113l-338 344v-1355l338 348l112 -115l-532 -534l-533 534l113 115l338 -348v1355l-338 -344l-113 113z" />
    <glyph glyph-name="uni2196" unicode="&#x2196;" horiz-adv-x="1671" 
d="M1438 -111l-117 -116l-934 934l8 -484h-162v754h754v-162l-483 8z" />
    <glyph glyph-name="uni2197" unicode="&#x2197;" horiz-adv-x="1671" 
d="M684 977h754v-754h-162l8 484l-934 -934l-117 116l932 932l-481 -6v162z" />
    <glyph glyph-name="uni2198" unicode="&#x2198;" horiz-adv-x="1671" 
d="M1276 672h162v-754h-754v162l483 -8l-934 934l117 116l934 -934z" />
    <glyph glyph-name="uni2199" unicode="&#x2199;" horiz-adv-x="1671" 
d="M1438 1006l-934 -934l483 8v-162h-754v754h162l-8 -484l934 934z" />
    <glyph glyph-name="uni21A9" unicode="&#x21a9;" horiz-adv-x="2398" 
d="M1749 1331q126 0 232.5 -62.5t168.5 -169t62 -231.5q0 -192 -135.5 -328.5t-327.5 -136.5h-1321l348 -337l-114 -113l-533 532l533 533l114 -113l-348 -338h1321q122 0 210.5 89t88.5 212q0 122 -89 210.5t-210 88.5h-119v164h119z" />
    <glyph glyph-name="uni21AA" unicode="&#x21aa;" horiz-adv-x="2398" 
d="M1737 1018l532 -533l-532 -532l-115 113l348 337h-1321q-192 0 -327.5 136.5t-135.5 328.5q0 125 62 231.5t168.5 169t232.5 62.5h117v-164h-117q-123 0 -211 -88.5t-88 -210.5q0 -123 88 -212t211 -89h1321l-348 338z" />
    <glyph glyph-name="uni21B6" unicode="&#x21b6;" horiz-adv-x="1722" 
d="M1034 1608q225 0 358.5 -138.5t133.5 -353.5v-1442h-166v1442q0 140 -91.5 236t-244.5 96q-149 0 -238.5 -91t-89.5 -241v-321l336 346l115 -113l-533 -534l-534 534l113 113l337 -346v321q0 220 140.5 356t363.5 136z" />
    <glyph glyph-name="uni21B7" unicode="&#x21b7;" horiz-adv-x="1722" 
d="M1530 1141l112 -113l-532 -534l-535 534l115 113l336 -346v321q0 150 -89.5 241t-238.5 91q-153 0 -244.5 -96t-91.5 -236v-1442h-165v1442q0 215 133.5 353.5t357.5 138.5q223 0 363.5 -136t140.5 -356v-321z" />
    <glyph glyph-name="uni21E0" unicode="&#x21e0;" horiz-adv-x="1529" 
d="M567 403h-143l352 -337l-114 -113l-533 532l533 533l114 -113l-352 -338h143v-164zM764 403v164h221v-164h-221zM1180 567h221v-164h-221v164z" />
    <glyph glyph-name="uni21E1" unicode="&#x21e1;" horiz-adv-x="1529" 
d="M1296 631l-112 -115l-338 352v-143h-164v143l-338 -352l-113 115l533 532zM682 307v221h164v-221h-164zM682 -109v222h164v-222h-164z" />
    <glyph glyph-name="uni21E2" unicode="&#x21e2;" horiz-adv-x="1529" 
d="M868 1018l533 -533l-533 -532l-114 113l352 337h-143v164h143l-352 338zM129 403v164h221v-164h-221zM766 567v-164h-221v164h221z" />
    <glyph glyph-name="uni21E3" unicode="&#x21e3;" horiz-adv-x="1529" 
d="M848 1079v-221h-164v221h164zM848 664v-222h-164v222h164zM1186 455l112 -115l-532 -533l-533 533l113 115l338 -353v144h164v-144z" />
    <glyph glyph-name="partialdiff" unicode="&#x2202;" horiz-adv-x="1128" 
d="M461 1468q89 0 166.5 -25t146 -81.5t117.5 -141t77.5 -210.5t28.5 -283q0 -346 -128.5 -543.5t-356.5 -197.5q-189 0 -307.5 132t-118.5 339q0 129 48 233.5t139.5 166t211.5 61.5q98 0 192.5 -41.5t151.5 -122.5q-6 285 -103.5 420t-270.5 135q-67 0 -133 -17l-27 156
q82 20 166 20zM516 141q127 0 206 110t101 320q-58 100 -140.5 143.5t-164.5 43.5q-68 0 -120 -27t-81.5 -72t-44 -96t-14.5 -106q0 -131 70 -223.5t188 -92.5z" />
    <glyph glyph-name="emptyset" unicode="&#x2205;" horiz-adv-x="1802" 
d="M1475 1186q163 -199 163 -475q0 -206 -95 -374t-265.5 -265t-380.5 -97q-269 0 -471 162l-133 -133l-92 94l133 133q-170 204 -170 480q0 208 96.5 377t264.5 264.5t372 95.5q281 0 485 -168l129 129l95 -92zM328 715q0 -216 118 -371l824 823q-150 125 -369 125
q-249 0 -411 -164t-162 -413zM901 131q164 0 295.5 75.5t206 209t74.5 299.5q0 206 -115 358l-821 -821q153 -121 360 -121z" />
    <glyph glyph-name="product" unicode="&#x220f;" horiz-adv-x="1527" 
d="M1466 1407v-166h-229v-1753h-184v1753h-576v-1753h-186v1753h-230v166h1405z" />
    <glyph glyph-name="summation" unicode="&#x2211;" horiz-adv-x="1167" 
d="M311 -346h795v-166h-1045v102l592 867l-587 837v113h1024v-166h-781l551 -782z" />
    <glyph glyph-name="minus" unicode="&#x2212;" horiz-adv-x="1075" 
d="M1010 569v-149h-944v149h944z" />
    <glyph glyph-name="radical" unicode="&#x221a;" horiz-adv-x="1314" 
d="M1061 1536h192l-512 -1536h-137l-295 827h-248v150h385l224 -686z" />
    <glyph glyph-name="infinity" unicode="&#x221e;" horiz-adv-x="1536" 
d="M1153 823q136 0 208.5 -87.5t72.5 -225.5q0 -137 -78 -231.5t-213 -94.5q-95 0 -184 58.5t-195 169.5q-192 -228 -373 -228q-133 0 -211 80.5t-78 227.5q0 149 76 240t209 91q98 0 197 -64.5t178 -158.5q106 114 195.5 168.5t195.5 54.5zM383 682q-64 0 -99.5 -57
t-35.5 -117q0 -20 2.5 -40.5t12 -47.5t24.5 -47.5t43 -34.5t65 -14q71 0 135 46.5t146 137.5q-33 36 -60 61t-65.5 54t-81 44t-86.5 15zM1147 682q-79 0 -143 -42t-152 -134q80 -82 151 -132t142 -50q51 0 85.5 33t46 70.5t11.5 72.5q0 71 -35 126.5t-106 55.5z" />
    <glyph glyph-name="integral" unicode="&#x222b;" horiz-adv-x="786" 
d="M63 -393q48 0 77.5 2.5t60.5 12.5t47.5 28.5t31 51t20 80.5t5.5 116v1153q0 118 30.5 198t89 121.5t130.5 56.5t170 11l-2 -154q-75 -1 -117.5 -11t-73.5 -42.5t-42 -89.5t-11 -154v-1151q0 -73 -11.5 -131t-30.5 -98.5t-50 -70t-64 -46.5t-78.5 -26.5t-87.5 -12.5
t-96 -2z" />
    <glyph glyph-name="approxequal" unicode="&#x2248;" horiz-adv-x="1075" 
d="M365 823q59 0 118.5 -26.5t110.5 -53t90 -26.5q68 0 133 94l109 -88q-37 -65 -99 -110.5t-131 -45.5q-52 0 -109 27.5t-111.5 54.5t-100.5 27q-77 0 -137 -76l-105 84q38 58 97 98.5t135 40.5zM360 489q56 0 115 -26.5t114 -53t101 -26.5q92 0 152 72l100 -97
q-93 -120 -235 -120q-49 0 -98.5 16t-83.5 35t-75 35t-75 16q-42 0 -73.5 -28t-51.5 -62l-111 88q89 151 221 151z" />
    <glyph glyph-name="notequal" unicode="&#x2260;" horiz-adv-x="1075" 
d="M977 625h-309l-115 -199h424v-147h-508l-131 -226l-111 64l92 162h-221v147h308l112 199h-420v147h506l125 219l113 -65l-88 -154h223v-147z" />
    <glyph glyph-name="lessequal" unicode="&#x2264;" horiz-adv-x="1075" 
d="M926 928l-561 -277l561 -276l-72 -137l-707 364v98l707 363zM158 20v144h757v-144h-757z" />
    <glyph glyph-name="greaterequal" unicode="&#x2265;" horiz-adv-x="1075" 
d="M219 1063l709 -363v-98l-709 -364l-69 137l561 276l-561 277zM160 20v144h758v-144h-758z" />
    <glyph glyph-name="filledbox" unicode="&#x25a0;" horiz-adv-x="1826" 
d="M211 1407h1405v-1407h-1405v1407z" />
    <glyph glyph-name="uni25A1" unicode="&#x25a1;" horiz-adv-x="1826" 
d="M211 1407h1405v-1407h-1405v1407zM1432 166v1075h-1037v-1075h1037z" />
    <glyph glyph-name="uni25AA" unicode="&#x25aa;" horiz-adv-x="1396" 
d="M211 977h975v-977h-975v977z" />
    <glyph glyph-name="uni25AB" unicode="&#x25ab;" horiz-adv-x="1421" 
d="M211 977h999v-977h-999v977zM1053 139v701h-682v-701h682z" />
    <glyph glyph-name="uni25B6" unicode="&#x25b6;" horiz-adv-x="538" 
d="M539 479l-539 -536v1075z" />
    <glyph glyph-name="uni25C0" unicode="&#x25c0;" horiz-adv-x="538" 
d="M0 479l539 539v-1075z" />
    <glyph glyph-name="uni25C6" unicode="&#x25c6;" horiz-adv-x="1218" 
d="M72 479l538 539l537 -537l-539 -538z" />
    <glyph glyph-name="lozenge" unicode="&#x25ca;" horiz-adv-x="1189" 
d="M686 1407l414 -700l-414 -707h-182l-414 707l414 700h182zM594 156l324 555l-322 544l-324 -546z" />
    <glyph glyph-name="circle" unicode="&#x25cb;" horiz-adv-x="1372" 
d="M686 999q139 0 257.5 -68t187.5 -186t69 -258q0 -139 -69 -257t-187.5 -186.5t-257.5 -68.5t-257.5 68.5t-187.5 186.5t-69 257q0 140 69 258t187.5 186t257.5 68zM688 836q-144 0 -245 -103t-101 -246t101 -244.5t245 -101.5q141 0 241.5 101.5t100.5 244.5t-100.5 246
t-241.5 103z" />
    <glyph glyph-name="uni25CF" unicode="&#x25cf;" horiz-adv-x="1372" 
d="M686 999q139 0 257.5 -68t187.5 -186t69 -258q0 -139 -69 -257t-187.5 -186.5t-257.5 -68.5t-257.5 68.5t-187.5 186.5t-69 257q0 140 69 258t187.5 186t257.5 68z" />
    <glyph glyph-name="uni25D6" unicode="&#x25d6;" horiz-adv-x="860" 
d="M686 -25q-139 0 -257.5 68.5t-187.5 186.5t-69 257q0 140 69 258t187.5 186t257.5 68v-1024z" />
    <glyph glyph-name="uni25D7" unicode="&#x25d7;" horiz-adv-x="847" 
d="M162 999q139 0 257.5 -68t187.5 -186t69 -258q0 -139 -69 -257t-187.5 -186.5t-257.5 -68.5v1024z" />
    <glyph glyph-name="uni25EF" unicode="&#x25ef;" horiz-adv-x="1789" 
d="M897 -20q-148 0 -282 57t-231 154t-154.5 230.5t-57.5 280.5q0 196 97 362.5t264 263.5t364 97q146 0 279.5 -57.5t230 -154t154 -230.5t57.5 -281q0 -196 -97 -362.5t-263 -263t-361 -96.5zM897 150q110 0 210.5 44.5t173.5 119t116 176.5t43 212q0 147 -72.5 274.5
t-198 203t-272.5 75.5q-148 0 -274 -75.5t-199.5 -203t-73.5 -274.5t73.5 -274.5t199.5 -202.5t274 -75z" />
    <glyph glyph-name="uni2612" unicode="&#x2612;" horiz-adv-x="1421" 
d="M211 977h999v-977h-999v977zM1083 125v729h-743v-729h743zM502 223l-60 56l213 213l-211 210l58 56l211 -209l211 211l57 -60l-211 -211l209 -208l-55 -58l-211 211z" />
    <glyph glyph-name="uni2661" unicode="&#x2661;" horiz-adv-x="1169" 
d="M823 1018q124 0 212.5 -89t88.5 -220q0 -69 -45 -150.5t-157.5 -215t-339.5 -374.5q-217 222 -331 356t-160 220t-46 160q0 134 86.5 223.5t210.5 89.5q142 0 242 -115q89 115 239 115zM119 705q0 -87 94.5 -218.5t368.5 -414.5q195 210 295.5 331t137 187t36.5 119
q0 99 -67.5 169t-160.5 70q-149 0 -235 -162q-59 84 -118 123t-128 39q-92 0 -157.5 -70.5t-65.5 -172.5z" />
    <glyph glyph-name="heart" unicode="&#x2665;" horiz-adv-x="1169" 
d="M1124 709q0 -69 -45 -150.5t-157.5 -215t-339.5 -374.5q-217 222 -331 356t-160 220t-46 160q0 134 86.5 223.5t210.5 89.5q136 0 242 -109q97 109 239 109q124 0 212.5 -89t88.5 -220z" />
    <glyph glyph-name="uni2B24" unicode="&#x2b24;" horiz-adv-x="1789" 
d="M897 -20q-148 0 -282 57t-231 154t-154.5 230.5t-57.5 280.5q0 196 97 362.5t264 263.5t364 97q146 0 279.5 -57.5t230 -154t154 -230.5t57.5 -281q0 -196 -97 -362.5t-263 -263t-361 -96.5z" />
    <glyph glyph-name="uniFFE9" unicode="&#xffe9;" horiz-adv-x="1323" 
d="M1194 567v-164h-766l348 -337l-114 -113l-533 532l533 533l114 -113l-348 -338h766z" />
    <glyph glyph-name="uniFFEB" unicode="&#xffeb;" horiz-adv-x="1323" 
d="M662 1018l532 -533l-532 -532l-113 113l348 337h-768v164h768l-348 338z" />
    <glyph glyph-name="uni00A40301" horiz-adv-x="745" 
d="M733 1726l-330 -227l-67 96l321 246zM569 1407v-1077q0 -22 -0.5 -35.5t-3 -44t-8 -52t-17 -52.5t-27 -52.5t-41 -45.5t-57 -39t-76 -24.5t-97.5 -9.5q-109 0 -219 29l32 168q86 -22 170 -22q45 0 77 15t47 33.5t23.5 51t9.5 51t1 49.5v1057h186z" />
    <glyph glyph-name="Q.alt" horiz-adv-x="1599" 
d="M932 -14q59 -302 446 -340l-24 -162q-528 41 -623 496q-275 25 -444.5 224.5t-169.5 500.5q0 210 86 375.5t243.5 258.5t360.5 93q201 0 354.5 -91t237.5 -256t84 -378q0 -287 -149.5 -482.5t-401.5 -238.5zM313 709q0 -159 60.5 -287t173 -202.5t256.5 -74.5
q217 0 350 160t133 404q0 157 -57.5 282t-168.5 198t-257 73q-219 0 -354.5 -157t-135.5 -396z" />
    <glyph glyph-name="Cacute.loclPLK" horiz-adv-x="1218" 
d="M928 1864l-111 -324l-137 27l80 334zM1077 1198q-158 64 -305 64q-209 0 -335 -153t-126 -407q0 -258 131.5 -406.5t348.5 -148.5q128 0 280 58l57 -162q-176 -68 -348 -68q-305 0 -484 195t-179 526q0 333 179 534.5t468 201.5q174 0 364 -72z" />
    <glyph glyph-name="Iacute.loclPLK" horiz-adv-x="579" 
d="M471 1864l-111 -324l-137 27l80 334zM383 1407v-1407h-186v1407h186z" />
    <glyph glyph-name="Nacute.loclPLK" horiz-adv-x="1552" 
d="M950 1864l-110 -324l-138 27l80 334zM1174 1407h182v-1407h-207l-770 1155v-1155h-182v1407h233l744 -1114v1114z" />
    <glyph glyph-name="Oacute.loclPLK" horiz-adv-x="1599" 
d="M987 1864l-110 -324l-138 27l80 334zM807 1432q201 0 354.5 -91t237.5 -256t84 -378t-84 -379.5t-238.5 -259.5t-355.5 -93t-358 93t-243.5 259t-86.5 378q0 210 86 375.5t243.5 258.5t360.5 93zM803 1262q-219 0 -354.5 -157t-135.5 -396q0 -159 60.5 -287t173 -202.5
t256.5 -74.5q217 0 350 160t133 404q0 157 -57.5 282t-168.5 198t-257 73z" />
    <glyph glyph-name="Sacute.loclPLK" horiz-adv-x="962" 
d="M686 1864l-111 -324l-137 27l80 334zM559 1432q143 0 266 -37l-41 -166q-118 35 -227 35q-117 0 -185.5 -56t-68.5 -143q0 -56 31.5 -104.5t82 -85t111 -72.5t121.5 -77.5t111.5 -89t82 -117t31.5 -152.5q0 -172 -121.5 -282t-316.5 -110q-178 0 -340 78l60 160
q142 -68 276 -68q109 0 181.5 60t72.5 155q0 59 -31.5 109t-82 87.5t-111.5 74t-121.5 77.5t-111 87.5t-82 113.5t-31.5 148q0 167 123 271t321 104z" />
    <glyph glyph-name="Zacute.loclPLK" horiz-adv-x="1126" 
d="M776 1864l-110 -324l-138 27l80 334zM1079 1407v-76l-729 -1163h727v-168h-999v74l731 1165h-703v168h973z" />
    <glyph glyph-name="J.ss05" horiz-adv-x="612" 
d="M436 1407v-1401q0 -461 -465 -461v168q130 0 202.5 76t72.5 205v1413h190z" />
    <glyph glyph-name="uni00A40301.ss05" horiz-adv-x="612" 
d="M612 1726l-329 -227l-68 96l322 246zM436 1407v-1401q0 -461 -465 -461v168q130 0 202.5 76t72.5 205v1413h190z" />
    <glyph glyph-name="Jcircumflex.ss05" horiz-adv-x="612" 
d="M342 1843l338 -227l-74 -111l-264 178l-264 -178l-74 109zM246 -6v1413h190v-1401q0 -461 -465 -461v168q130 0 202.5 76t72.5 205z" />
    <glyph glyph-name="M.ss06" horiz-adv-x="1849" 
d="M1419 1407h234v-1407h-180l2 950q0 66 4 172l-518 -1122h-70l-520 1116q4 -106 4 -166l2 -950h-180v1407h239l498 -1077z" />
    <glyph glyph-name="Q.ss07" horiz-adv-x="1599" 
d="M1483 707q0 -231 -99 -405.5t-274 -260.5l352 -234l-94 -137l-473 310q-73 -5 -90 -5q-201 0 -358 93t-243.5 259t-86.5 378q0 210 86 375.5t243.5 258.5t360.5 93q201 0 354.5 -91t237.5 -256t84 -378zM803 145q217 0 350 160t133 404q0 157 -57.5 282t-168.5 198
t-257 73q-219 0 -354.5 -157t-135.5 -396q0 -159 60.5 -287t173 -202.5t256.5 -74.5z" />
    <glyph glyph-name="Q.titl" horiz-adv-x="1599" 
d="M1249 133q124 14 316 14v-147h-488q-61 0 -108 -6q-81 -19 -164 -19q-201 0 -358 93t-243.5 259t-86.5 378q0 210 86 375.5t243.5 258.5t360.5 93q201 0 354.5 -91t237.5 -256t84 -378q0 -179 -61 -326.5t-173 -247.5zM803 145q217 0 350 160t133 404q0 157 -57.5 282
t-168.5 198t-257 73q-219 0 -354.5 -157t-135.5 -396q0 -159 60.5 -287t173 -202.5t256.5 -74.5z" />
    <glyph glyph-name="i.loclTRK" horiz-adv-x="526" 
d="M264 1401q48 0 82.5 -35t34.5 -84t-34.5 -84t-82.5 -35t-82.5 35t-34.5 84t34.5 84t82.5 35zM354 977v-977h-180v977h180z" />
    <glyph glyph-name="uni006A0301" horiz-adv-x="526" 
d="M508 1350l-326 -234l-78 103l316 254zM354 977v-1137q0 -30 -0.5 -47.5t-3 -52.5t-7.5 -57.5t-15.5 -55t-25 -54t-37.5 -45.5t-52 -38t-69.5 -23.5t-88.5 -9.5q-71 0 -151 17l33 159q63 -10 94 -10q41 0 69.5 13.5t42.5 31t21.5 52.5t8.5 58t1 68v1131h180z" />
    <glyph glyph-name="cacute.loclPLK" horiz-adv-x="929" 
d="M721 1434l-111 -324l-137 27l80 333zM801 786q-126 50 -228 50q-76 0 -134 -27.5t-92 -75.5t-51 -108.5t-17 -130.5q0 -54 9.5 -103t31 -95t54 -79.5t83 -53.5t112.5 -20q119 0 254 64l62 -148q-67 -36 -157.5 -59t-180.5 -23q-148 0 -251.5 67.5t-151.5 179.5t-48 259
q0 229 125.5 373.5t345.5 144.5q150 0 281 -61z" />
    <glyph glyph-name="iacute.loclPLK" horiz-adv-x="526" 
d="M446 1434l-110 -324l-137 27l80 333zM354 977v-977h-180v977h180z" />
    <glyph glyph-name="nacute.loclPLK" horiz-adv-x="1167" 
d="M776 1434l-110 -324l-138 27l80 333zM711 1001q61 0 109 -16t78.5 -39t52.5 -60.5t32 -67.5t16 -74t6.5 -66t0.5 -57v-621h-181v596q0 27 -0.5 42t-4 44t-10 46.5t-19.5 39.5t-32 35t-48.5 22t-67.5 9q-163 0 -289 -162v-672h-180v977h180v-141q155 165 357 165z" />
    <glyph glyph-name="oacute.loclPLK" horiz-adv-x="1132" 
d="M750 1434l-111 -324l-137 27l80 333zM565 -25q-215 0 -342 139.5t-127 374.5q0 236 127 375.5t342 139.5q217 0 344 -139.5t127 -375.5q0 -235 -127.5 -374.5t-343.5 -139.5zM565 135q131 0 209 96.5t78 257.5q0 162 -78 258.5t-209 96.5q-130 0 -207 -96t-77 -259
q0 -162 77 -258t207 -96z" />
    <glyph glyph-name="sacute.loclPLK" horiz-adv-x="794" 
d="M584 1434l-111 -324l-137 27l80 333zM356 -23q-140 0 -266 52l43 151q126 -47 217 -47q76 0 126 36t50 97q0 39 -23.5 70t-61 53t-83 42.5t-91 45.5t-83 56t-61 80.5t-23.5 111.5q0 132 92.5 203t247.5 71q120 0 226 -34l-37 -148q-109 31 -180 31q-78 0 -124 -32
t-46 -85q0 -35 23.5 -64.5t61.5 -51.5t83.5 -44t91 -49t83.5 -60t61.5 -83.5t23.5 -112.5q0 -129 -94.5 -209t-256.5 -80z" />
    <glyph glyph-name="zacute.loclPLK" horiz-adv-x="917" 
d="M647 1434l-110 -324l-138 27l80 333zM336 154h498v-154h-748v70l483 753h-467v154h719v-70z" />
    <glyph glyph-name="a.ss01" horiz-adv-x="1114" 
d="M569 999q93 0 195 -19.5t178 -49.5v-930h-180v123q-139 -143 -313 -143q-167 0 -260 127.5t-93 353.5q0 81 14.5 155t49.5 145t87.5 123t135 83.5t186.5 31.5zM500 143q85 0 154 51.5t108 114.5v500q-122 27 -195 27q-79 0 -136.5 -31t-89 -85t-46 -116t-14.5 -135
q0 -92 21.5 -163t72 -117t125.5 -46z" />
    <glyph glyph-name="aacute.ss01" horiz-adv-x="1114" 
d="M829 1350l-325 -234l-78 103l315 254zM569 999q93 0 195 -19.5t178 -49.5v-930h-180v123q-139 -143 -313 -143q-167 0 -260 127.5t-93 353.5q0 81 14.5 155t49.5 145t87.5 123t135 83.5t186.5 31.5zM500 143q85 0 154 51.5t108 114.5v500q-122 27 -195 27
q-79 0 -136.5 -31t-89 -85t-46 -116t-14.5 -135q0 -92 21.5 -163t72 -117t125.5 -46z" />
    <glyph glyph-name="abreve.ss01" horiz-adv-x="1114" 
d="M584 1133q-131 0 -211 77t-80 203h141q0 -73 40.5 -114.5t109.5 -41.5q71 0 110 40.5t39 115.5h144q0 -126 -81 -203t-212 -77zM569 999q93 0 195 -19.5t178 -49.5v-930h-180v123q-139 -143 -313 -143q-167 0 -260 127.5t-93 353.5q0 81 14.5 155t49.5 145t87.5 123
t135 83.5t186.5 31.5zM500 143q85 0 154 51.5t108 114.5v500q-122 27 -195 27q-79 0 -136.5 -31t-89 -85t-46 -116t-14.5 -135q0 -92 21.5 -163t72 -117t125.5 -46z" />
    <glyph glyph-name="uni1EAF.ss01" horiz-adv-x="1114" 
d="M829 1696l-325 -234l-78 103l315 254zM584 1133q-131 0 -211 77t-80 203h141q0 -73 40.5 -114.5t109.5 -41.5q71 0 110 40.5t39 115.5h144q0 -126 -81 -203t-212 -77zM569 999q93 0 195 -19.5t178 -49.5v-930h-180v123q-139 -143 -313 -143q-167 0 -260 127.5t-93 353.5
q0 81 14.5 155t49.5 145t87.5 123t135 83.5t186.5 31.5zM500 143q85 0 154 51.5t108 114.5v500q-122 27 -195 27q-79 0 -136.5 -31t-89 -85t-46 -116t-14.5 -135q0 -92 21.5 -163t72 -117t125.5 -46z" />
    </font>
</defs>
</svg>
