<?xml version="1.0" encoding="utf-8"?>
<!-- Generator: Adobe Illustrator 27.2.0, SVG Export Plug-In . SVG Version: 6.00 Build 0)  -->
<svg version="1.1" id="Layer_1" xmlns="http://www.w3.org/2000/svg" xmlns:xlink="http://www.w3.org/1999/xlink" x="0px" y="0px"
	 viewBox="0 0 972 1080" style="enable-background:new 0 0 972 1080;" xml:space="preserve">
<style type="text/css">
	.st0{fill:#1D1D1B;}
</style>
<path class="st0" d="M129.4,584.3c1.2-8.7-1-16.7-6.8-23.8c-5.8-7.1-13-10.9-21.7-11.5c-8.7-0.5-17,2.4-24.8,8.7
	c-7.8,6.3-12.4,13.8-13.7,22.4c-1.3,8.6,0.9,16.5,6.7,23.6c5.8,7.1,13.1,11,21.9,11.6c8.8,0.6,17.1-2.2,24.9-8.5
	C123.7,600.5,128.2,593,129.4,584.3"/>
<path class="st0" d="M283.5,147.8c4-8.2,4.4-16.4,1.2-24.5c-3.2-8.1-9.4-14.4-18.4-18.8c-9-4.4-17.7-5.4-26.1-2.9
	c-8.4,2.5-14.6,7.8-18.6,16.1c-4,8.3-4.5,16.5-1.3,24.7c3.2,8.2,9.2,14.6,18.3,19c9,4.4,17.8,5.3,26.2,2.7
	C273.3,161.4,279.5,156,283.5,147.8"/>
<path class="st0" d="M611.3,144.2c5.9-6.6,8.8-14.9,8.6-24.9c-0.2-10-3.3-18.2-9.5-24.6c-6.1-6.3-13.8-9.4-23-9.3
	c-9.2,0.2-16.6,3.5-22.4,10.1c-5.8,6.6-8.6,14.9-8.4,24.9c0.2,10,3.3,18.2,9.2,24.6c6,6.3,13.6,9.4,22.8,9.3
	C597.8,154.1,605.4,150.8,611.3,144.2"/>
<path class="st0" d="M726.8,248.7c5.9-8.4,8.2-17,6.9-26c-1.3-8.9-5.7-16.1-13.4-21.4c-7.7-5.4-15.8-7.1-24.5-5.1
	c-8.7,2-16,7.1-21.8,15.5c-5.9,8.4-8.2,17-7.1,25.8c1.1,8.8,5.5,15.9,13.2,21.3c7.7,5.4,15.9,7.1,24.7,5.3
	C713.6,262.2,720.9,257.1,726.8,248.7"/>
<path class="st0" d="M909.9,541.2c-1.1-29.6-3.8-58.8-11.9-87.6c-8-28.2-17.3-55.8-32.1-81.2c-10.5-17.9-21.3-35.8-33.7-52.3
	c-19.5-26-43.3-48-68.8-68.4l-33.4,46.4c7.8,5.9,32.4,29.8,42.8,41.8c11.3,13.1,22.3,26.7,31.7,41.2c16.6,25.8,27.5,54.2,36.4,83.5
	c7.1,23.3,9.1,47.5,10.6,71.5c2.1,32.9-3.5,65-12.5,96.5c-11.5,40.2-30.9,76.6-57.4,109.1c-28,34.3-62.2,61.2-101,82.3
	c-23.9,13-49.7,21.2-75.9,28c-22.3,5.8-45,8.4-68.1,8.1c-0.3,0-0.5,0-0.8,0v-62.9c0.1,0,0.1,0,0.1,0c6.8-0.1,13.6,0,20.4-0.7
	c24.9-2.5,48.8-8.9,72.1-18.3c37.7-15.2,70.2-37.5,97.2-68c31.2-35.3,50.4-76.1,58.6-122.5c4.8-27.3,3.9-54.5,0-81.8
	c-2.9-20.6-8.8-40.3-17-59.2c-11.4-26.4-26-51-46.4-71.8c-15.8-16-32.3-30.9-51.5-42.8c-23.7-14.7-48.7-26-76.1-31.2
	c-18.4-3.5-37.1-5.5-55.7-8.1c-3.1-0.4-4.9,0.8-4.9,4.1c0.2,15.9,0.4,31.9,0.7,47.8c0.1,3.1,1.4,4.7,4.9,4.9
	c42.3,2.5,81.2,14.7,115,40.9c27.9,21.6,49.1,48.7,62.4,81.4c12.9,31.6,17.6,64.5,13,98.4c-5.4,39.5-21.6,74.1-48.2,103.7
	c-20.8,23.1-46,40.2-74.6,52.3c-22.1,9.4-45.1,13.9-69,14c-0.4,0-0.7,0-1,0V607.2c0.7,0,1.4,0,2.3,0c31.2-0.4,61.1-7.1,89.9-18.7
	c3.2-1.3,4-2.9,2.6-6.2c-7-15.5-13.9-31.1-20.8-46.6c-1.5-3.4-3.4-3.9-6.8-2.1c-3.6,1.9-7.5,3.5-11.4,4.7
	c-27.8,9.1-56.4,10.3-85.1,7.7c-27.6-2.5-53.5-11.8-77.7-25.2c-26-14.4-47.3-34.4-64.6-58.3c-27.3-37.7-39.2-80.2-35.1-126.6
	c1-11.2,4.4-22.3,7.2-33.3c2.6-10.3,5.1-20.9,9-30.7c12-30.1,32-54.6,57.1-74.7c16.9-13.5,35.7-23.9,55.9-31.6
	c18.9-7.2,38.8-10.2,58.7-12.5c8.4-1,8.8-1.4,8.8-10c-0.1-12.9-0.7-25.8-0.5-38.7c0.1-12.4-0.1-12.9-12.4-11.3
	c-0.5,0.1-1.1,0.1-1.6,0.1c-30.4,2.3-59.7,8.9-87.7,21.5c-25.4,11.4-49,25.3-69.2,44.5c-22.2,21.1-42.4,43.7-56.4,71.2
	c-9,17.6-17.4,35.4-21.3,54.9c-3.3,16.7-6.6,33.4-8.3,50.2c-2,18.7-0.1,37.5,3,56.1c3.8,22.2,9.6,44,19,64.2
	c9.6,20.6,21.2,40.3,36.2,57.6c6.4,7.4,13,14.9,20.3,21.4c8.3,7.4,17.5,13.6,26.2,20.5c15.3,12.1,32,21.9,49.9,29.2
	c13.6,5.5,27.8,9.5,41.8,13.9c0.9,0.3,1.7,0.5,2.3,0.7v60.2c-0.2,0-0.3,0-0.5,0c-2-0.2-3.9-0.3-5.8-0.8c-10.8-2.8-21.6-5.2-32.2-8.5
	c-30.4-9.7-58.4-24.6-85-41.9c-23.3-15.2-42.3-35.2-60.8-55.8c-23.7-26.4-40.6-56.8-54.1-89.2c-11.5-27.7-17.4-56.9-20.2-86.6
	c-3.4-36.3,1.2-72.2,9.8-107.5c5.6-22.9,15.6-44.2,26-65.3c1.9-3.9,1.3-5.8-2.4-7.6c-8.4-4.3-16.8-8.8-25.1-13.2
	c-6.7-3.5-13.3-7.1-20-10.4c-1.3-0.6-4-0.3-4.8,0.6c-2.1,2.4-3.8,5.3-5,8.2c-6.5,15.1-13.2,30.1-19.1,45.5
	c-7.1,18.4-12.8,37.3-15.2,56.9c-2.3,18.5-5.5,36.9-6.1,55.5c-1.5,45.3,4.9,89.7,20.3,132.5c10.5,29.3,23.7,57.1,41.4,82.9
	c20.5,30,43.7,57.6,71.9,80.7c12,9.9,24.1,19.8,37,28.5c14.9,10.1,30.9,18.4,47.4,26.1c32.4,15.1,66.1,25.6,101.2,31.9
	c0.5,0.1,1,0.2,1.5,0.3v74.8c-0.3,0-0.6-0.1-0.8-0.1c-12.5-2-25.2-3.8-37.6-6.3c-29.1-5.9-56.9-15.8-84.4-26.7
	c-30.1-12-57.7-28.9-84-47.6c-39.1-27.8-73-61.2-101.5-99.9c-4.3-5.8-5.1-6-10.4-1.4c-9.2,8-18.3,16.1-27.4,24.1
	c-7.2,6.4-7.2,6.4-1.3,14.2c0.4,0.6,0.9,1.1,1.4,1.7c19.1,24.3,39.1,47.6,63.1,67.3c16,13.2,31.8,26.7,48.5,39
	c23.8,17.4,49.6,31.5,76.4,43.6c11.8,5.3,23.2,11.6,35.3,15.8c22.9,7.8,46,15.1,69.4,21c16.9,4.3,34.5,6.4,51.8,9.1
	c0.6,0.1,1,0.2,1.5,0.3v143.4h68.5v-75.4c1.7-0.2,3.8-0.2,6.7-0.2c29.9-0.1,59.1-4.7,88-12.6c28.5-7.8,55.8-18.4,81.7-32.4
	C753.3,852,789,823.5,819,787.8c18-21.5,34.9-43.8,47.6-68.8c15.9-31.2,28.6-63.7,35.3-98.3C907,594.4,910.9,568.1,909.9,541.2"/>
<path class="st0" d="M640.8,518.6c-2.9,8.3-2.3,17.1,1.8,26.3c4.1,9.2,10.2,15.5,18.3,18.9c8.1,3.4,16.4,3.3,24.8-0.4
	c8.4-3.7,13.9-9.7,16.7-18c2.7-8.3,2.1-17-2-26.2c-4.1-9.2-10.1-15.5-18.1-19c-8-3.5-16.2-3.4-24.6,0.3
	C649.3,504.2,643.7,510.3,640.8,518.6"/>
<path class="st0" d="M500.5,344.8c5.9-6.6,8.8-14.9,8.6-24.9c-0.2-10-3.3-18.2-9.5-24.6c-6.1-6.3-13.8-9.4-23-9.3
	c-9.2,0.2-16.6,3.5-22.4,10.1c-5.8,6.6-8.6,14.9-8.4,24.9c0.2,10,3.3,18.2,9.2,24.6c6,6.3,13.6,9.4,22.8,9.3
	C487.1,354.7,494.6,351.4,500.5,344.8"/>
</svg>
