<?xml version="1.0" encoding="utf-8"?>
<!-- Generator: Adobe Illustrator 27.2.0, SVG Export Plug-In . SVG Version: 6.00 Build 0)  -->
<svg version="1.1" id="Layer_1" xmlns="http://www.w3.org/2000/svg" xmlns:xlink="http://www.w3.org/1999/xlink" x="0px" y="0px"
	 viewBox="0 0 972 1080" style="enable-background:new 0 0 972 1080;" xml:space="preserve">
<style type="text/css">
	.st0{fill:#231F20;}
</style>
<g>
	<path class="st0" d="M475.1,515.7c7.6-2,14.6-2.5,21.7-1.8c7.8,1,15.6,3.8,22.7,8.1c7.1,4.5,13.6,10.6,18.4,17.4
		c5.3,7.6,8.8,15.9,10.6,24.9l0.3,1.5c1.5,9.3,1.5,18.4-0.5,27.5c-2,9.8-6.3,19.6-12.3,28.2c-6.3,8.8-14.4,16.4-23.7,22.2
		c-9.6,6-20.4,9.8-32,11.6c-12.1,1.8-24.2,1.3-35.8-1.8c-12.1-3-23.7-8.8-34-16.4c-10.3-8.1-19.4-18.1-25.9-29.5
		c-6.8-11.8-11.1-24.9-12.8-39c-1.8-14.6-0.5-29,3.3-42.6c4-14.1,11.1-28,20.4-39.8c9.6-12.1,21.9-22.4,35.5-29.7
		c14.1-7.8,29.5-12.6,45.8-14.1c16.9-1.8,33.5,0,49.6,4.8c16.4,5,32,13.3,45.6,24.4c13.6,11.3,25.4,25.7,33.7,41.6
		c8.6,16.4,13.9,34.3,15.6,52.9v0.8c1.5,19.1-0.5,37.8-6.3,55.9c-5.8,18.6-15.6,36.3-28.5,51.4c-13.1,15.4-29.5,28.5-47.4,37.5
		c-18.6,9.6-38.8,15.1-59.9,16.9c-21.7,1.8-43.1-1-63.7-7.8c-20.7-6.8-40.5-18.1-57.2-32.5c-17.1-14.6-31.5-33.2-41.6-53.4
		c-10.3-20.7-16.6-43.3-18.1-67c-1.8-24.2,1.5-47.9,9.1-70.5c7.8-22.9,20.4-44.8,36.5-63.2c16.4-18.6,37-34.5,59.4-45.3
		c22.7-11.1,48.4-17.9,73.8-19.6c26.2-1.5,52.9,2,77.6,10.6c25.2,8.6,48.9,22.7,69,40.3c20.4,18.1,37.5,40.5,49.4,65.2
		c12.1,24.9,19.4,52.9,20.9,80.8v0.8c1.5,28.2-2.5,57.4-12.1,84.1c-9.6,27.2-24.9,53.1-44.6,75.1c-19.9,22.2-44.3,40.5-71.3,53.1
		c-26.9,12.8-57.4,20.7-87.9,22.2c-30.7,1.5-62.5-3-91.4-13.3c-29.5-10.6-57.4-27.2-80.8-48.4c-23.7-21.4-43.6-48.1-57.2-77.1
		c-13.9-29.2-22.2-62-23.7-95c-1.5-33.2,3.5-67.2,14.9-98.5c11.3-31.7,29.5-61.7,52.4-86.6c23.2-25.4,51.9-46.6,83.1-61.2
		c31.5-14.9,66.7-23.4,102-25.2c35.5-1.5,72,4,105.5,16.1c33.7,12.3,66,31.7,92.7,56.2c27.2,24.7,49.6,55.4,65.2,88.9
		C756.7,491,766,528.5,767.5,566v0.5c1.5,37.8-4.5,76.6-17.6,112.3c-13.3,36-34,70-60.4,98.5c-26.4,28.7-59.4,52.6-95,69
		c-35.8,16.6-75.8,26.2-115.9,27.7c-40.3,1.5-81.6-5-119.4-19.1c-38.3-14.1-74.3-36.3-104.5-64.2c-30.5-28.2-55.7-63-73-100.7
		c-17.6-38-27.7-80.6-29.2-122.9c-1.5-42.8,5.5-86.4,20.4-126.4c15.1-40.3,38.5-78.6,68.3-110.3c29.7-32,66.7-58.7,106.8-77.1
		c40.3-18.4,85.1-29,130-30.5c45.1-1.5,91.2,5.8,133.5,21.7c42.6,15.9,82.9,40.8,116.4,72c33.7,31.5,61.7,70.5,80.8,112.6
		c19.4,42.3,30.5,89.7,32,136.8v0.8c1.5,47.4-6.5,96-23.2,140.3c-16.9,44.8-43.3,87.1-76.1,122.2c-33.2,35.5-74.3,64.7-118.6,84.9
		c-44.6,20.1-94.4,31.7-143.8,33.2c-4.8,0.3-8.8,0.3-12.8,0.3c-46.1,0-92.4-8.6-135.5-24.9c-46.8-17.9-91.2-45.6-128.2-80.1
		c-37-35-67.8-77.8-88.7-124.4c-21.2-46.8-33.2-99-34.8-150.9c-1.5-52.1,7.3-105.5,25.9-154.4c18.6-49.1,47.6-95.5,84.1-134
		c36.5-38.8,81.6-70.8,130.5-92.7c49.1-22.2,103.5-34.5,157.9-36c54.7-1.8,110.3,7.8,161.4,27.5c51.4,19.6,99.7,49.9,140,87.9
		c40.5,38.3,74,85.4,96.7,136.3c22.9,51.1,36,108.3,37.5,164.7l-25.2,0.8c-1.5-53.4-13.6-107-35.3-155.1
		c-21.4-47.9-52.9-92.2-90.9-128.2c-37.8-35.8-83.4-64.2-131.7-82.6c-47.9-18.4-100.5-27.2-151.6-25.7
		c-50.9,1.5-102.3,13.1-148.3,34c-45.8,20.7-88.2,50.6-122.4,87.1c-34,36-61.2,79.6-78.8,125.7c-17.4,45.8-25.9,95.7-24.4,144.6
		c1.5,48.6,12.6,97.5,32.5,141.3c19.6,43.6,48.4,83.9,83.1,116.4c34.5,32.5,75.8,58.2,119.9,74.8c43.6,16.6,91.2,24.4,137.8,22.9
		c46.3-1.5,92.7-12.1,134.2-31c41.3-18.6,79.6-46.1,110.6-79.1c30.7-32.7,55.2-72,71-113.8c15.6-41.3,23.2-86.6,21.7-130.7v-0.8
		c-1.5-43.8-11.8-87.6-29.7-126.9c-17.9-39.3-43.8-75.3-75.3-104.5c-31-29-68.5-52.1-108-67c-39-14.6-81.9-21.7-123.7-20.1
		c-41.6,1.5-83.1,11.3-120.4,28.2c-37,16.9-71,41.6-98.7,71.3c-27.5,29.5-49.1,64.7-63,102c-13.9,37-20.4,77.3-18.9,116.6
		c1.5,39,10.8,78.3,26.9,113.3c15.9,34.8,39.3,67,67.2,92.9c27.7,25.7,61,46.1,96.2,59.2c34.8,12.8,72.8,18.9,109.8,17.4
		c36.8-1.5,73.5-10.3,106.3-25.4c32.5-15.1,62.7-36.8,86.9-63.2c23.9-25.9,43.1-57.2,55.2-90.2c12.1-32.5,17.6-68,16.1-102.8v-0.5
		c-1.5-34.3-9.8-68.5-24.2-99c-14.1-30.5-34.8-58.4-59.4-81.1c-24.4-22.4-53.4-40-84.4-51.1c-30.5-11.1-63.5-16.1-95.7-14.6
		c-32,1.5-63.7,9.3-92.4,22.7c-28.2,13.3-54.2,32.5-75.1,55.4c-20.7,22.7-37,49.9-47.4,78.3c-10.1,28.2-14.9,58.9-13.3,88.7
		c1.5,29.5,8.8,59.2,21.2,85.4c12.3,25.9,30,49.9,51.4,69.3c20.9,18.9,46.1,34,72.3,43.3c25.9,9.3,54.2,13.3,81.9,11.8
		c27.2-1.5,54.2-8.3,78.3-19.9c23.9-11.3,45.8-27.7,63.2-47.4c17.4-19.4,31-42.3,39.5-66.5c8.3-23.7,12.1-49.6,10.6-74.8v-0.5
		c-1.5-24.7-7.8-49.1-18.4-71c-10.6-21.7-25.4-41.6-43.3-57.4c-17.6-15.6-38.5-28-60.4-35.5c-21.7-7.6-45.1-10.6-67.8-9.1
		c-22.4,1.5-44.6,7.3-64.5,17.1c-19.4,9.6-37.3,23.2-51.4,39.5c-13.9,15.9-24.9,34.8-31.5,54.7c-6.5,19.6-9.3,40-7.8,60.7
		c1.5,20.4,6.5,39.5,15.6,57.4c8.6,17.4,20.9,33,35.5,45.6c14.4,12.3,31,21.9,48.6,27.7c17.4,5.8,35.5,7.8,53.9,6.5
		c17.9-1.5,34.8-6,50.4-14.1c15.1-7.8,28.7-18.6,39.8-31.5c10.6-12.6,18.9-27.2,23.7-42.8c4.8-15.1,6.5-31,5.3-46.8v-0.8
		c-1.5-15.1-5.8-29.7-12.6-42.8c-6.8-12.8-16.4-24.7-27.5-33.7c-10.8-9.1-23.7-15.9-36.8-19.9c-12.8-3.8-26.2-5.3-39.8-3.8
		c-12.8,1.3-25.2,5-36.5,11.3c-10.8,5.8-20.4,13.9-28,23.4c-7.3,9.1-12.8,19.9-15.9,30.7c-3,10.6-3.8,21.7-2.5,32.7
		c1.3,10.6,4.5,20.4,9.8,29.5c5,8.6,11.6,16.1,19.4,22.2c7.6,5.8,16.1,9.8,24.7,12.1c8.6,2.3,16.9,2.5,25.9,1.3
		c8.1-1.3,15.6-4,22.4-8.1c6.3-4,12.1-9.3,16.4-15.4c4-5.8,6.8-12.1,8.3-18.6c1.3-6.3,1.3-12.3,0-18.9l-0.3-0.8
		c-1.3-5.5-3.3-10.3-6.3-14.6c-3-4.3-6.8-7.8-11.1-10.6c-4-2.5-8.3-4-12.3-4.5c-4-0.5-7.6-0.3-12.1,1L475.1,515.7z"/>
</g>
</svg>
