<?xml version="1.0" encoding="utf-8"?>
<!-- Generator: Adobe Illustrator 27.2.0, SVG Export Plug-In . SVG Version: 6.00 Build 0)  -->
<svg version="1.1" id="Layer_1" xmlns="http://www.w3.org/2000/svg" xmlns:xlink="http://www.w3.org/1999/xlink" x="0px" y="0px"
	 viewBox="0 0 865.5 69.5" style="enable-background:new 0 0 865.5 69.5;" xml:space="preserve">
<style type="text/css">
	.st0{fill:#231F20;}
</style>
<g>
	<path class="st0" d="M49.8,9.7v51.6h-6.8V37.7H17.4v23.5h-6.8V9.7h6.8v21.9h25.6V9.7H49.8z"/>
	<path class="st0" d="M69.8,14.2c0,2.4-2,4.4-4.3,4.4c-2.3,0-4.3-2-4.3-4.4s2-4.4,4.3-4.4C67.8,9.9,69.8,11.8,69.8,14.2z M68.8,61.2
		h-6.6V25.4h6.6V61.2z"/>
	<path class="st0" d="M109,4.9v56.3h-6.6v-4.7c-3.5,3.3-7.5,5.4-11.6,5.4c-8,0-13.1-7.1-13.1-17.4c0-11.2,6-20.3,16.8-20.3
		c2,0,4.9,0.3,7.8,0.9V4.9H109z M102.4,50.3V31.4c-2.6-0.8-5.3-1.1-7.1-1.1c-7.4,0-10.7,6.6-10.7,13.7c0,6.4,2.7,11.9,8.3,11.9
		C96,55.8,99.4,54,102.4,50.3z"/>
	<path class="st0" d="M149.4,4.9v56.3h-6.6v-4.7c-3.5,3.3-7.5,5.4-11.6,5.4c-8,0-13.1-7.1-13.1-17.4c0-11.2,6-20.3,16.8-20.3
		c2,0,4.9,0.3,7.8,0.9V4.9H149.4z M142.8,50.3V31.4c-2.6-0.8-5.3-1.1-7.1-1.1c-7.4,0-10.7,6.6-10.7,13.7c0,6.4,2.7,11.9,8.3,11.9
		C136.4,55.8,139.8,54,142.8,50.3z"/>
	<path class="st0" d="M188.9,44.9h-23.9c0.5,7.7,3.9,11.6,11.2,11.6c3.3,0,6.5-0.8,10-2.5l2.2,5.1c-3.8,1.9-8.4,3-12.9,3
		c-11.1,0-17-6.6-17-18.3c0-11.6,5.9-19.2,16.5-19.2C186.1,24.6,189.9,33.2,188.9,44.9z M165.1,39.4h17.4c-0.2-6.5-2.7-9.5-8-9.5
		C169,30,165.9,33.3,165.1,39.4z"/>
	<path class="st0" d="M228.4,38.5v22.7h-6.6V39.4c0-3.3,0-8.7-6.7-8.7c-4,0-7.4,1.9-10.6,5.9v24.6h-6.6V25.4h6.6v5.2
		c3.9-4.1,8.3-6.1,13.1-6.1C228.4,24.5,228.4,34.4,228.4,38.5z"/>
	<path class="st0" d="M285.4,55.1v6.2h-25.7V9.7h6.8v45.4H285.4z"/>
	<path class="st0" d="M300.6,14.2c0,2.4-2,4.4-4.3,4.4c-2.3,0-4.3-2-4.3-4.4s2-4.4,4.3-4.4C298.6,9.9,300.6,11.8,300.6,14.2z
		 M299.6,61.2H293V25.4h6.6V61.2z"/>
	<path class="st0" d="M340.1,25.4l-13.9,35.8h-5.9l-14.2-35.8h7.3l10,28.1l9.8-28.1H340.1z"/>
	<path class="st0" d="M373.7,44.9h-23.9c0.5,7.7,3.9,11.6,11.2,11.6c3.3,0,6.5-0.8,10-2.5l2.2,5.1c-3.8,1.9-8.4,3-12.9,3
		c-11.1,0-17-6.6-17-18.3c0-11.6,5.9-19.2,16.5-19.2C370.9,24.6,374.7,33.2,373.7,44.9z M349.9,39.4h17.4c-0.2-6.5-2.7-9.5-8-9.5
		C353.8,30,350.7,33.3,349.9,39.4z"/>
	<path class="st0" d="M380,60.2l1.6-5.6c2.9,1.1,5.8,1.7,8,1.7c3.6,0,6.5-1.8,6.5-4.9c0-7.1-15.6-5.6-15.6-16.8
		c0-6.6,5.1-10.1,12.5-10.1c2.6,0,5.4,0.4,8.3,1.3l-1.4,5.4c-2.3-0.7-4.9-1.1-6.6-1.1c-3.8,0-6.2,1.7-6.2,4.3
		c0,6.5,15.7,5.8,15.7,17c0,6.2-4.8,10.6-12.8,10.6C386.5,62,382.9,61.4,380,60.2z"/>
	<path class="st0" d="M413.7,31.7c0-2.3,1.9-4.1,4.2-4.1c2.3,0,4.1,1.9,4.1,4.1c0,2.4-1.9,4.4-4.1,4.4
		C415.6,36.1,413.7,34.1,413.7,31.7z M413.7,57.9c0-2.3,1.9-4.1,4.2-4.1c2.3,0,4.1,1.8,4.1,4.1c0,2.4-1.9,4.4-4.1,4.4
		C415.6,62.3,413.7,60.3,413.7,57.9z"/>
	<path class="st0" d="M476.4,9.7v51.6h-6.8V37.7H444v23.5h-6.8V9.7h6.8v21.9h25.6V9.7H476.4z"/>
	<path class="st0" d="M496.4,14.2c0,2.4-2,4.4-4.3,4.4c-2.3,0-4.3-2-4.3-4.4s2-4.4,4.3-4.4C494.4,9.9,496.4,11.8,496.4,14.2z
		 M495.4,61.2h-6.6V25.4h6.6V61.2z"/>
	<path class="st0" d="M535.6,4.9v56.3H529v-4.7c-3.5,3.3-7.5,5.4-11.6,5.4c-8,0-13.1-7.1-13.1-17.4c0-11.2,6-20.3,16.8-20.3
		c2,0,4.9,0.3,7.8,0.9V4.9H535.6z M529,50.3V31.4c-2.6-0.8-5.3-1.1-7.1-1.1c-7.4,0-10.7,6.6-10.7,13.7c0,6.4,2.7,11.9,8.3,11.9
		C522.6,55.8,526,54,529,50.3z"/>
	<path class="st0" d="M576,4.9v56.3h-6.6v-4.7c-3.5,3.3-7.5,5.4-11.6,5.4c-8,0-13.1-7.1-13.1-17.4c0-11.2,6-20.3,16.8-20.3
		c2,0,4.9,0.3,7.8,0.9V4.9H576z M569.4,50.3V31.4c-2.6-0.8-5.3-1.1-7.1-1.1c-7.4,0-10.7,6.6-10.7,13.7c0,6.4,2.7,11.9,8.3,11.9
		C563,55.8,566.4,54,569.4,50.3z"/>
	<path class="st0" d="M615.5,44.9h-23.9c0.5,7.7,3.9,11.6,11.2,11.6c3.3,0,6.5-0.8,10-2.5l2.2,5.1c-3.8,1.9-8.4,3-12.9,3
		c-11.1,0-17-6.6-17-18.3c0-11.6,5.9-19.2,16.5-19.2C612.7,24.6,616.5,33.2,615.5,44.9z M591.7,39.4h17.4c-0.2-6.5-2.7-9.5-8-9.5
		C595.6,30,592.5,33.3,591.7,39.4z"/>
	<path class="st0" d="M655,38.5v22.7h-6.6V39.4c0-3.3,0-8.7-6.7-8.7c-4,0-7.4,1.9-10.6,5.9v24.6h-6.6V25.4h6.6v5.2
		c3.9-4.1,8.3-6.1,13.1-6.1C655,24.5,655,34.4,655,38.5z"/>
	<path class="st0" d="M723.8,37v22.6c-3.8,1.5-10.1,2.6-15.1,2.6c-15.5,0-25-10.1-25-27c0-17.7,11.3-26.4,25-26.4
		c3.9,0,9.5,0.8,14.4,2.3l-1.7,6c-4.7-1.4-9.1-2-12.4-2c-10.8,0-18.2,6.7-18.2,20.3c0,14.2,8.4,20.6,18.1,20.6c2.4,0,5.3-0.4,8-1.1
		V37H723.8z"/>
	<path class="st0" d="M763.7,44.9h-23.9c0.5,7.7,3.9,11.6,11.2,11.6c3.3,0,6.5-0.8,10-2.5l2.2,5.1c-3.8,1.9-8.4,3-12.9,3
		c-11.1,0-17-6.6-17-18.3c0-11.6,5.9-19.2,16.5-19.2C761,24.6,764.8,33.2,763.7,44.9z M740,39.4h17.4c-0.2-6.5-2.7-9.5-8-9.5
		C743.9,30,740.8,33.3,740,39.4z"/>
	<path class="st0" d="M825.3,37.4v23.8h-6.6V38.5c0-2.7,0-7.8-6.2-7.8c-3.6,0-6.9,1.7-10.1,5.3v1.5v23.8h-6.6V38.5
		c0-2.7,0-7.8-6.2-7.8c-3.7,0-7.1,1.7-10.2,5.2v25.4h-6.6V25.4h6.6V30c3.7-3.8,7.7-5.5,12.2-5.5c6.1,0,8.7,2.9,9.8,6.2
		c4-4.3,8.3-6.2,13.1-6.2C825.3,24.5,825.3,33.7,825.3,37.4z"/>
	<path class="st0" d="M833.4,60.2l1.6-5.6c2.9,1.1,5.8,1.7,8,1.7c3.6,0,6.5-1.8,6.5-4.9c0-7.1-15.6-5.6-15.6-16.8
		c0-6.6,5.1-10.1,12.5-10.1c2.6,0,5.4,0.4,8.3,1.3l-1.4,5.4c-2.3-0.7-4.9-1.1-6.6-1.1c-3.8,0-6.2,1.7-6.2,4.3
		c0,6.5,15.7,5.8,15.7,17c0,6.2-4.8,10.6-12.8,10.6C839.9,62,836.3,61.4,833.4,60.2z"/>
</g>
</svg>
